G04 DipTrace 3.3.0.1*
G04 Bottom.gbr*
%MOMM*%
G04 #@! TF.FileFunction,Copper,L2,Bot*
G04 #@! TF.Part,Single*
G04 #@! TA.AperFunction,Conductor*
%ADD14C,0.33*%
G04 #@! TA.AperFunction,CopperBalancing*
%ADD15C,0.635*%
G04 #@! TA.AperFunction,ComponentPad*
%ADD16R,1.6X1.6*%
%ADD17C,1.6*%
%ADD18C,1.65*%
%ADD22O,4.5X2.0*%
%ADD23O,5.0X2.0*%
%ADD24O,2.0X4.5*%
%ADD25C,1.524*%
%ADD26C,1.524*%
%ADD27R,2.2X2.2*%
%ADD28C,2.2*%
%ADD29R,1.5X1.5*%
%ADD30C,1.5*%
%ADD31C,1.5*%
%FSLAX35Y35*%
G04*
G71*
G90*
G75*
G01*
G04 Bottom*
%LPD*%
X4179000Y3782000D2*
D14*
X4306000Y3909000D1*
X5322000D1*
Y2714500D1*
X5388000Y2648500D1*
X6776000D1*
X6903000Y2775500D1*
X8363500D1*
X8429500Y2841500D1*
Y2968500D1*
X8239000Y3159000D1*
X7096000Y6588000D2*
Y6143500D1*
X6969000Y6016500D1*
X7286500D1*
X7350000Y6080000D1*
X1508000Y4810000D2*
Y3794000D1*
X2016000Y3286000D1*
X3671000Y4036000D2*
Y3718510D1*
X3737000Y3652510D1*
X3988497D1*
X4054500Y3718510D1*
Y4435500D1*
X4302000Y4683000D1*
X4941000Y3528000D2*
X4816490Y3652510D1*
X4120503D1*
X4054500Y3718510D1*
X4687000Y2639000D2*
Y3020000D1*
X4941000Y3274000D1*
X1508000Y2524000D2*
Y2966000D1*
X1574000Y3032000D1*
X2016000D1*
X6715000Y4683000D2*
Y5000500D1*
X6969000Y5254500D1*
X2778000Y4048000D2*
X3221500Y4491500D1*
Y6016500D1*
X3287500Y6082500D1*
X5828500D1*
Y5887000D1*
X6207000Y5508500D1*
X5953000Y2524000D2*
Y1358490D1*
X5887000Y1292490D1*
X3501510D1*
X2778000Y2016000D1*
X6715000Y3032000D2*
X7093500Y3410500D1*
Y5638000D1*
X6969000Y5762500D1*
X6207000Y1952500D2*
Y2458000D1*
X6273000Y2524000D1*
X6715000D1*
Y3286000D2*
X6842000Y3413000D1*
Y3857500D1*
X1889000Y6080000D2*
X2016000Y5953000D1*
Y5318000D1*
Y4048000D2*
X2310070Y4342070D1*
Y6647700D1*
X2376070Y6713700D1*
X7794500D1*
X7860500Y6647700D1*
Y3791500D1*
X8239000Y3413000D1*
X2016000Y4556000D2*
X2145500Y4685500D1*
Y6713700D1*
X2211500Y6779700D1*
X7860500D1*
X7926500Y6713700D1*
Y3979500D1*
X8239000Y3667000D1*
X5699000Y5953000D2*
X5525997D1*
X5256000Y5683003D1*
X5322000Y5617003D1*
Y4925000D1*
X2778000Y3540000D2*
X2487430D1*
X2233430Y3794000D1*
X2016000D1*
X2778000Y3286000D2*
X3047400D1*
X3059400Y3274000D1*
X4179000D1*
X4552000Y5683000D2*
X5256000Y5683003D1*
X4179000Y3274000D2*
Y2173997D1*
X4078997D1*
X3667000Y1762000D1*
X5953000Y3286000D2*
X6334000Y2905000D1*
X8239000D1*
X5826000Y3857500D2*
X5953000Y3730500D1*
Y3286000D1*
X4941000Y4036000D2*
X5647500D1*
X5826000Y3857500D1*
X4802000Y4683000D2*
Y4175000D1*
X4941000Y4036000D1*
X5322000Y4925000D2*
X5080000Y4683000D1*
X4802000D1*
X4179000Y2173997D2*
X4244997Y2108000D1*
X4810000D1*
X1634397Y6851083D2*
D15*
X2161280D1*
X7910697D2*
X8112553D1*
X1659827Y6787917D2*
X2094833D1*
X7977143D2*
X8087127D1*
X1669303Y6724750D2*
X2056097D1*
X8015880D2*
X8077737D1*
X1664290Y6661583D2*
X2055367D1*
X8016610D2*
X8082660D1*
X1644240Y6598417D2*
X2055367D1*
X2400203D2*
X5930523D1*
X6229420D2*
X6946527D1*
X7245423D2*
X7770393D1*
X8016610D2*
X8102803D1*
X1604773Y6535250D2*
X2055367D1*
X2400203D2*
X5940187D1*
X6219760D2*
X6956187D1*
X7235763D2*
X7770393D1*
X8016610D2*
X8142270D1*
X1188147Y6472083D2*
X1231227D1*
X1530763D2*
X2055367D1*
X2400203D2*
X5989040D1*
X6170907D2*
X7005043D1*
X7186910D2*
X7770393D1*
X8016610D2*
X8216280D1*
X8515723D2*
X8558897D1*
X1188147Y6408917D2*
X2055367D1*
X2400203D2*
X7005863D1*
X7186180D2*
X7770393D1*
X8016610D2*
X8558897D1*
X1188147Y6345750D2*
X2055367D1*
X2400203D2*
X7005863D1*
X7186180D2*
X7770393D1*
X8016610D2*
X8558897D1*
X1188147Y6282583D2*
X2055367D1*
X2400203D2*
X7005863D1*
X7186180D2*
X7770393D1*
X8016610D2*
X8558897D1*
X1188147Y6219417D2*
X1848740D1*
X1929253D2*
X2055367D1*
X2400203D2*
X2864743D1*
X2945253D2*
X7005863D1*
X7503640D2*
X7770393D1*
X8016610D2*
X8558897D1*
X1188147Y6156250D2*
X1761057D1*
X2016933D2*
X2055367D1*
X2400203D2*
X2777060D1*
X3032937D2*
X3241357D1*
X5874590D2*
X6058400D1*
X6355660D2*
X6935863D1*
X7503640D2*
X7770393D1*
X8016610D2*
X8558897D1*
X1188147Y6093083D2*
X1739730D1*
X2400203D2*
X2755733D1*
X3054267D2*
X3173270D1*
X5917977D2*
X6058400D1*
X6355660D2*
X6842710D1*
X7503640D2*
X7770393D1*
X8016610D2*
X8558897D1*
X1188147Y6029917D2*
X1748207D1*
X2400203D2*
X2764210D1*
X3045790D2*
X3132437D1*
X5918613D2*
X6058400D1*
X6355660D2*
X6821020D1*
X7503640D2*
X7770393D1*
X8016610D2*
X8558897D1*
X1188147Y5966750D2*
X1794507D1*
X2400203D2*
X2810510D1*
X2999487D2*
X3131343D1*
X3311660D2*
X5414913D1*
X5918613D2*
X6058400D1*
X6355660D2*
X6829313D1*
X7503640D2*
X7770393D1*
X8016610D2*
X8558897D1*
X1188147Y5903583D2*
X1925850D1*
X2400203D2*
X3131343D1*
X3311660D2*
X5351747D1*
X5936753D2*
X6058400D1*
X6355660D2*
X6876070D1*
X7061947D2*
X7770393D1*
X8016610D2*
X8558897D1*
X1188147Y5840417D2*
X1925850D1*
X2400203D2*
X3131343D1*
X3311660D2*
X4464080D1*
X4639930D2*
X5288583D1*
X5999917D2*
X6843623D1*
X7094397D2*
X7770393D1*
X8016610D2*
X8558897D1*
X1188147Y5777250D2*
X1925850D1*
X2400203D2*
X3131343D1*
X3311660D2*
X4395447D1*
X4708470D2*
X5225420D1*
X5475100D2*
X5813400D1*
X6063080D2*
X6821110D1*
X7116910D2*
X7770393D1*
X8016610D2*
X8558897D1*
X1188147Y5714083D2*
X1925850D1*
X2400203D2*
X3131343D1*
X3311660D2*
X4371110D1*
X5411933D2*
X5876567D1*
X6126243D2*
X6828857D1*
X7142247D2*
X7770393D1*
X8016610D2*
X8558897D1*
X1188147Y5650917D2*
X1925850D1*
X2400203D2*
X3131343D1*
X3311660D2*
X4371293D1*
X5405007D2*
X5939730D1*
X6189410D2*
X6874340D1*
X7182623D2*
X7770393D1*
X8016610D2*
X8558897D1*
X1188147Y5587750D2*
X1925850D1*
X2400203D2*
X3131343D1*
X3311660D2*
X4396083D1*
X4707923D2*
X5226423D1*
X5412117D2*
X6002893D1*
X6331503D2*
X6844443D1*
X7183627D2*
X7770393D1*
X8016610D2*
X8558897D1*
X1188147Y5524583D2*
X1925850D1*
X2400203D2*
X3131343D1*
X3311660D2*
X4466083D1*
X4637923D2*
X5231890D1*
X5412117D2*
X6059313D1*
X6354747D2*
X6821293D1*
X7183627D2*
X7770393D1*
X8016610D2*
X8558897D1*
X1188147Y5461417D2*
X1862320D1*
X2400203D2*
X2738050D1*
X2817923D2*
X3131343D1*
X3311660D2*
X5231890D1*
X5412117D2*
X6066330D1*
X6347637D2*
X6828400D1*
X7183627D2*
X7323323D1*
X7630607D2*
X7770393D1*
X8016610D2*
X8558897D1*
X1188147Y5398250D2*
X1862320D1*
X2400203D2*
X2648180D1*
X2907887D2*
X3131343D1*
X3311660D2*
X5231890D1*
X5412117D2*
X6110720D1*
X6303340D2*
X6872697D1*
X7183627D2*
X7323323D1*
X7630607D2*
X7770393D1*
X8016610D2*
X8558897D1*
X1188147Y5335083D2*
X1862320D1*
X2400203D2*
X2625393D1*
X2930670D2*
X3131343D1*
X3311660D2*
X5231890D1*
X5412117D2*
X6083377D1*
X6330593D2*
X6845353D1*
X7183627D2*
X7323323D1*
X7630607D2*
X7770393D1*
X8016610D2*
X8558897D1*
X1188147Y5271917D2*
X1862320D1*
X2400203D2*
X2631773D1*
X2924200D2*
X3131343D1*
X3311660D2*
X5231890D1*
X5412117D2*
X6059403D1*
X6354563D2*
X6821473D1*
X7183627D2*
X7323323D1*
X7630607D2*
X7770393D1*
X8016610D2*
X8558897D1*
X1188147Y5208750D2*
X1862320D1*
X2400203D2*
X2672880D1*
X2883093D2*
X3131343D1*
X3311660D2*
X5231890D1*
X5412117D2*
X6065877D1*
X6348093D2*
X6798413D1*
X7183627D2*
X7323323D1*
X7630607D2*
X7770393D1*
X8016610D2*
X8558897D1*
X1188147Y5145583D2*
X1887020D1*
X2400203D2*
X2649000D1*
X2906973D2*
X3131343D1*
X3311660D2*
X5231890D1*
X5412117D2*
X6109080D1*
X6304890D2*
X6735250D1*
X7183627D2*
X7770393D1*
X8016610D2*
X8558897D1*
X1188147Y5082417D2*
X1863507D1*
X2400203D2*
X2625483D1*
X2930490D2*
X3131343D1*
X3311660D2*
X5231890D1*
X5412117D2*
X6672087D1*
X6921767D2*
X7003400D1*
X7183627D2*
X7770393D1*
X8016610D2*
X8558897D1*
X1188147Y5019250D2*
X1869340D1*
X2400203D2*
X2631317D1*
X2924657D2*
X3131343D1*
X3311660D2*
X5207463D1*
X5436543D2*
X6626970D1*
X6858600D2*
X7003400D1*
X7183627D2*
X7770393D1*
X8016610D2*
X8558897D1*
X1188147Y4956083D2*
X1482880D1*
X1533200D2*
X1909443D1*
X2400203D2*
X2671423D1*
X2884553D2*
X3131343D1*
X3311660D2*
X5175563D1*
X5468447D2*
X6624873D1*
X6805100D2*
X7003400D1*
X7183627D2*
X7770393D1*
X8016610D2*
X8558897D1*
X1188147Y4892917D2*
X1379887D1*
X1636127D2*
X1887933D1*
X2400203D2*
X2649913D1*
X2906063D2*
X3131343D1*
X3311660D2*
X5165080D1*
X5468170D2*
X6624873D1*
X6805100D2*
X7003400D1*
X7183627D2*
X7770393D1*
X8016610D2*
X8558897D1*
X1188147Y4829750D2*
X1355733D1*
X1660280D2*
X1863687D1*
X2400203D2*
X2625667D1*
X2930307D2*
X3131343D1*
X3311660D2*
X4118363D1*
X4485620D2*
X4696137D1*
X4907807D2*
X5101917D1*
X5435633D2*
X6442033D1*
X6479897D2*
X6561343D1*
X6868627D2*
X7003400D1*
X7183627D2*
X7770393D1*
X8016610D2*
X8558897D1*
X1188147Y4766583D2*
X1360927D1*
X1655087D2*
X1868883D1*
X2400203D2*
X2630863D1*
X2925113D2*
X3131343D1*
X3311660D2*
X4118363D1*
X4485620D2*
X4639260D1*
X5288433D2*
X6333387D1*
X6868627D2*
X7003400D1*
X7183627D2*
X7770393D1*
X8016610D2*
X8558897D1*
X1188147Y4703417D2*
X1400030D1*
X1615983D2*
X1907983D1*
X2400203D2*
X2669963D1*
X2886010D2*
X3131343D1*
X3311660D2*
X4118363D1*
X4485620D2*
X4619573D1*
X5225267D2*
X6308780D1*
X6868627D2*
X7003400D1*
X7183627D2*
X7770393D1*
X8016610D2*
X8119757D1*
X8286310D2*
X8519703D1*
X1188147Y4640250D2*
X1417893D1*
X1598120D2*
X1888843D1*
X2400203D2*
X2650823D1*
X2905150D2*
X3131343D1*
X3311660D2*
X4118363D1*
X4485620D2*
X4623583D1*
X5162103D2*
X6313700D1*
X6868627D2*
X7003400D1*
X7183627D2*
X7770393D1*
X8016610D2*
X8075277D1*
X8330790D2*
X8475223D1*
X1188147Y4577083D2*
X1417893D1*
X1598120D2*
X1863870D1*
X2168147D2*
X2219887D1*
X2400203D2*
X2625850D1*
X2930123D2*
X3131343D1*
X3311660D2*
X4071240D1*
X4485620D2*
X4653480D1*
X4950553D2*
X6352257D1*
X6868627D2*
X7003400D1*
X7183627D2*
X7770393D1*
X8016610D2*
X8071813D1*
X8334160D2*
X8471853D1*
X1188147Y4513917D2*
X1417893D1*
X1598120D2*
X1868520D1*
X2163497D2*
X2219887D1*
X2400203D2*
X2630497D1*
X2925477D2*
X3119040D1*
X3311660D2*
X4008077D1*
X4485620D2*
X4711903D1*
X4892130D2*
X7003400D1*
X7183627D2*
X7770393D1*
X8016610D2*
X8104717D1*
X8301257D2*
X8504757D1*
X1188147Y4450750D2*
X1417893D1*
X1598120D2*
X1906617D1*
X2125397D2*
X2219887D1*
X2400203D2*
X2668597D1*
X2887377D2*
X3055877D1*
X3301087D2*
X3965783D1*
X4194590D2*
X4711903D1*
X4892130D2*
X7003400D1*
X7183627D2*
X7770393D1*
X8016610D2*
X8558897D1*
X1188147Y4387583D2*
X1417893D1*
X1598120D2*
X1889757D1*
X2142260D2*
X2219887D1*
X2400203D2*
X2651733D1*
X2904240D2*
X2992710D1*
X3242390D2*
X3964327D1*
X4144643D2*
X4711903D1*
X4892130D2*
X7003400D1*
X7183627D2*
X7770393D1*
X8016610D2*
X8558897D1*
X1188147Y4324417D2*
X1417893D1*
X1598120D2*
X1864053D1*
X2398290D2*
X2626030D1*
X3179227D2*
X3964327D1*
X4144643D2*
X4711903D1*
X4892130D2*
X7003400D1*
X7183627D2*
X7770393D1*
X8016610D2*
X8558897D1*
X1188147Y4261250D2*
X1417893D1*
X1598120D2*
X1868153D1*
X2354083D2*
X2630133D1*
X3116063D2*
X3964327D1*
X4144643D2*
X4711903D1*
X4892130D2*
X7003400D1*
X7183627D2*
X7770393D1*
X8016610D2*
X8558897D1*
X1188147Y4198083D2*
X1417893D1*
X1598120D2*
X1905250D1*
X2290920D2*
X2667230D1*
X3052897D2*
X3964327D1*
X4144643D2*
X4711903D1*
X4903797D2*
X7003400D1*
X7183627D2*
X7770393D1*
X8016610D2*
X8558897D1*
X1188147Y4134917D2*
X1417893D1*
X1598120D2*
X1890757D1*
X2227753D2*
X2652737D1*
X2989733D2*
X3517347D1*
X3824630D2*
X3964327D1*
X4144643D2*
X4722113D1*
X5049630D2*
X7003400D1*
X7183627D2*
X7770393D1*
X8016610D2*
X8558897D1*
X1188147Y4071750D2*
X1417893D1*
X1598120D2*
X1864327D1*
X2167690D2*
X2626303D1*
X2929670D2*
X3517347D1*
X3824630D2*
X3964327D1*
X4144643D2*
X4780447D1*
X5736597D2*
X7003400D1*
X7183627D2*
X7770393D1*
X8016610D2*
X8558897D1*
X1188147Y4008583D2*
X1417893D1*
X1598120D2*
X1867697D1*
X2164227D2*
X2629770D1*
X2926297D2*
X3517347D1*
X3824630D2*
X3964327D1*
X4144643D2*
X4795030D1*
X5799760D2*
X7003400D1*
X7183627D2*
X7770393D1*
X8022260D2*
X8558897D1*
X1188147Y3945417D2*
X1417893D1*
X1598120D2*
X1903973D1*
X2128040D2*
X2665953D1*
X2890020D2*
X3517347D1*
X3824630D2*
X3964327D1*
X4144643D2*
X4217530D1*
X5467170D2*
X5613247D1*
X5945777D2*
X6722217D1*
X6961780D2*
X7003400D1*
X7183627D2*
X7770393D1*
X8085423D2*
X8558897D1*
X1188147Y3882250D2*
X1417893D1*
X1598120D2*
X1891760D1*
X2140253D2*
X3580877D1*
X3761100D2*
X3964327D1*
X5469357D2*
X5676410D1*
X5973667D2*
X6694327D1*
X7183627D2*
X7770393D1*
X8148587D2*
X8558897D1*
X1188147Y3819083D2*
X1417893D1*
X1607780D2*
X1864507D1*
X2333210D2*
X3580877D1*
X3761100D2*
X3964327D1*
X4340970D2*
X4797307D1*
X5084720D2*
X5203817D1*
X5440190D2*
X5681423D1*
X5989253D2*
X6697423D1*
X7183627D2*
X7770393D1*
X8211753D2*
X8558897D1*
X1188147Y3755917D2*
X1427007D1*
X1670947D2*
X1867333D1*
X2396373D2*
X3580877D1*
X3761100D2*
X3964327D1*
X4325203D2*
X4794757D1*
X5087273D2*
X5231890D1*
X5412117D2*
X5718337D1*
X6039200D2*
X6734340D1*
X6949657D2*
X7003400D1*
X7183627D2*
X7778323D1*
X8387663D2*
X8558897D1*
X1188147Y3692750D2*
X1484430D1*
X1734110D2*
X1902697D1*
X2129317D2*
X2209860D1*
X2459540D2*
X3584887D1*
X5058197D2*
X5231890D1*
X5412117D2*
X5862893D1*
X6043120D2*
X6751840D1*
X6932157D2*
X7003400D1*
X7183627D2*
X7834377D1*
X8387663D2*
X8558897D1*
X1188147Y3629583D2*
X1547593D1*
X1797273D2*
X2273023D1*
X2522703D2*
X2654743D1*
X2901230D2*
X3635107D1*
X5046987D2*
X5231890D1*
X5412117D2*
X5862893D1*
X6043120D2*
X6751840D1*
X6932157D2*
X7003400D1*
X7183627D2*
X7897543D1*
X8387663D2*
X8558897D1*
X1188147Y3566417D2*
X1610757D1*
X1860437D2*
X2336187D1*
X2929213D2*
X4035603D1*
X4322377D2*
X4777710D1*
X5084357D2*
X5231890D1*
X5412117D2*
X5862893D1*
X6043120D2*
X6751840D1*
X6932157D2*
X7003400D1*
X7183627D2*
X7960707D1*
X8387663D2*
X8558897D1*
X1188147Y3503250D2*
X1673923D1*
X1923600D2*
X2399353D1*
X2927027D2*
X4032503D1*
X4325477D2*
X4794573D1*
X5087457D2*
X5231890D1*
X5412117D2*
X5862893D1*
X6043120D2*
X6751840D1*
X6932157D2*
X7003400D1*
X7183627D2*
X8023870D1*
X8355397D2*
X8558897D1*
X1188147Y3440083D2*
X1737087D1*
X1986767D2*
X2663400D1*
X2892573D2*
X4060757D1*
X4297220D2*
X4822737D1*
X5059200D2*
X5231890D1*
X5412117D2*
X5862893D1*
X6043120D2*
X6744273D1*
X6932157D2*
X6998207D1*
X7376673D2*
X8087033D1*
X8385020D2*
X8558897D1*
X1188147Y3376917D2*
X1800250D1*
X2138250D2*
X2655747D1*
X2900230D2*
X4074430D1*
X4283640D2*
X4836410D1*
X5045620D2*
X5231890D1*
X5412117D2*
X5804377D1*
X6101637D2*
X6599170D1*
X7376673D2*
X8095053D1*
X8383017D2*
X8558897D1*
X1188147Y3313750D2*
X1863413D1*
X2166960D2*
X2627033D1*
X4322013D2*
X4798037D1*
X5083993D2*
X5231890D1*
X5412117D2*
X5804377D1*
X6101637D2*
X6569090D1*
X7376673D2*
X8130693D1*
X8347287D2*
X8558897D1*
X1188147Y3250583D2*
X1866697D1*
X2165320D2*
X2628673D1*
X4325660D2*
X4792750D1*
X5087730D2*
X5231890D1*
X5412117D2*
X5804377D1*
X6113303D2*
X6570823D1*
X7376673D2*
X8123767D1*
X8354213D2*
X8558897D1*
X1188147Y3187417D2*
X1900237D1*
X2131780D2*
X2662217D1*
X2893757D2*
X4059757D1*
X4298223D2*
X4729587D1*
X5060293D2*
X5231890D1*
X5412117D2*
X5804377D1*
X6176467D2*
X6606007D1*
X6995230D2*
X8093233D1*
X8384747D2*
X8558897D1*
X1188147Y3124250D2*
X1894860D1*
X2137157D2*
X2656840D1*
X2899137D2*
X4088830D1*
X4269147D2*
X4666423D1*
X4916100D2*
X5231890D1*
X5725660D2*
X5989860D1*
X6239630D2*
X6600353D1*
X6932063D2*
X8094690D1*
X8398600D2*
X8558897D1*
X1188147Y3061083D2*
X1478233D1*
X2166780D2*
X2627217D1*
X2928757D2*
X4088830D1*
X4269147D2*
X4607633D1*
X4852937D2*
X5231890D1*
X5725660D2*
X6053023D1*
X6302793D2*
X6569363D1*
X6868900D2*
X8129417D1*
X8461767D2*
X8558897D1*
X1188147Y2997917D2*
X1424183D1*
X2165683D2*
X2628400D1*
X2927663D2*
X4088830D1*
X4269147D2*
X4596877D1*
X4789773D2*
X5231890D1*
X5725660D2*
X6116280D1*
X6365957D2*
X6570460D1*
X6859513D2*
X8124860D1*
X8514267D2*
X8558897D1*
X1188147Y2934750D2*
X1417893D1*
X1601583D2*
X1899053D1*
X2132963D2*
X2661030D1*
X2894943D2*
X4088830D1*
X4269147D2*
X4596877D1*
X4777103D2*
X5231890D1*
X5725660D2*
X6179443D1*
X8519643D2*
X8558897D1*
X1188147Y2871583D2*
X1417893D1*
X1598120D2*
X1895953D1*
X2136063D2*
X2657933D1*
X2898133D2*
X4088830D1*
X4269147D2*
X4596877D1*
X4777103D2*
X5231890D1*
X5412117D2*
X5839470D1*
X6066543D2*
X6242607D1*
X8519643D2*
X8558897D1*
X1188147Y2808417D2*
X1417893D1*
X1598120D2*
X1865510D1*
X2166503D2*
X2627490D1*
X2928483D2*
X4088830D1*
X4269147D2*
X4596877D1*
X4777103D2*
X5231890D1*
X5412117D2*
X5807660D1*
X6098353D2*
X6569637D1*
X8512807D2*
X8558897D1*
X1188147Y2745250D2*
X1417893D1*
X1598120D2*
X1866057D1*
X2165957D2*
X2628037D1*
X2927937D2*
X4088830D1*
X4269147D2*
X4575093D1*
X4798980D2*
X5231890D1*
X5416127D2*
X5808207D1*
X6097807D2*
X6570187D1*
X8458120D2*
X8558897D1*
X1188147Y2682083D2*
X1417893D1*
X1598120D2*
X1897867D1*
X2134147D2*
X2659847D1*
X2896127D2*
X4088830D1*
X4269147D2*
X4537177D1*
X4836803D2*
X5238363D1*
X7249617D2*
X8558897D1*
X1188147Y2618917D2*
X1389000D1*
X1627013D2*
X1897047D1*
X2134970D2*
X2659027D1*
X2896947D2*
X4088830D1*
X4269147D2*
X4532257D1*
X4841817D2*
X5292777D1*
X6871270D2*
X6942333D1*
X7249617D2*
X8558897D1*
X1188147Y2555750D2*
X1357830D1*
X1658183D2*
X1865783D1*
X2166140D2*
X2627853D1*
X2928210D2*
X4088830D1*
X4269147D2*
X4556137D1*
X4817847D2*
X5807933D1*
X6098080D2*
X6179900D1*
X6860060D2*
X6942333D1*
X7249617D2*
X8558897D1*
X1188147Y2492583D2*
X1357737D1*
X1658277D2*
X1865783D1*
X2166230D2*
X2627763D1*
X2928210D2*
X4088830D1*
X4269147D2*
X4649013D1*
X4724970D2*
X5807840D1*
X6098170D2*
X6124300D1*
X6860150D2*
X6942333D1*
X7249617D2*
X8558897D1*
X1188147Y2429417D2*
X1388727D1*
X1627287D2*
X1896773D1*
X2135243D2*
X2658753D1*
X2897220D2*
X4088830D1*
X4269147D2*
X5840380D1*
X6065633D2*
X6116827D1*
X6303250D2*
X6602360D1*
X6827613D2*
X8558897D1*
X1188147Y2366250D2*
X1898140D1*
X2133873D2*
X2660120D1*
X2895853D2*
X4088830D1*
X4269147D2*
X5862893D1*
X6043120D2*
X6116827D1*
X6297143D2*
X8558897D1*
X1188147Y2303083D2*
X1866150D1*
X2165867D2*
X2628127D1*
X2927847D2*
X4088830D1*
X4269147D2*
X5862893D1*
X6043120D2*
X6116827D1*
X6297143D2*
X8558897D1*
X1188147Y2239917D2*
X1865420D1*
X2166503D2*
X2627490D1*
X2928577D2*
X4020927D1*
X4269147D2*
X4550757D1*
X5069227D2*
X5862893D1*
X6043120D2*
X6116827D1*
X6297143D2*
X8558897D1*
X1188147Y2176750D2*
X1895680D1*
X2136337D2*
X2657660D1*
X2898407D2*
X3956943D1*
X5118900D2*
X5862893D1*
X6043120D2*
X6116827D1*
X6297143D2*
X8558897D1*
X1188147Y2113583D2*
X1899327D1*
X2132690D2*
X2661303D1*
X2894670D2*
X3893780D1*
X5133577D2*
X5862893D1*
X6043120D2*
X6116827D1*
X6297143D2*
X8558897D1*
X1188147Y2050417D2*
X1866423D1*
X2165593D2*
X2628400D1*
X2927573D2*
X3830523D1*
X4080293D2*
X4177697D1*
X5123457D2*
X5154507D1*
X5405553D2*
X5862893D1*
X6577417D2*
X8558897D1*
X1188147Y1987250D2*
X1865237D1*
X2166780D2*
X2627217D1*
X2931583D2*
X3767360D1*
X4017130D2*
X4537907D1*
X5082170D2*
X5115407D1*
X5444563D2*
X5862893D1*
X6610503D2*
X8558897D1*
X1188147Y1924083D2*
X1894587D1*
X2137430D2*
X2656567D1*
X2994747D2*
X3704197D1*
X3953967D2*
X5106383D1*
X5453680D2*
X5862893D1*
X6611870D2*
X8558897D1*
X1188147Y1860917D2*
X2808233D1*
X3057910D2*
X3513337D1*
X3890803D2*
X5106383D1*
X5453680D2*
X5862893D1*
X6582703D2*
X8558897D1*
X1188147Y1797750D2*
X2871397D1*
X3121077D2*
X3513337D1*
X3827637D2*
X5106383D1*
X5453680D2*
X5862893D1*
X6043120D2*
X8558897D1*
X1188147Y1734583D2*
X2934560D1*
X3184240D2*
X3513337D1*
X3820620D2*
X5106383D1*
X5453680D2*
X5862893D1*
X6043120D2*
X8558897D1*
X1188147Y1671417D2*
X2997723D1*
X3247403D2*
X3513337D1*
X3820620D2*
X5106747D1*
X5453223D2*
X5862893D1*
X6043120D2*
X8558897D1*
X1188147Y1608250D2*
X1207590D1*
X1554460D2*
X3060887D1*
X3310567D2*
X5123973D1*
X5435997D2*
X5862893D1*
X6043120D2*
X8192490D1*
X8539513D2*
X8558897D1*
X1616803Y1545083D2*
X3124053D1*
X3373730D2*
X5178937D1*
X5381037D2*
X5862893D1*
X6043120D2*
X8130237D1*
X1650803Y1481917D2*
X3187217D1*
X3436897D2*
X5862893D1*
X6043120D2*
X8096240D1*
X1666933Y1418750D2*
X3250380D1*
X3500060D2*
X5862893D1*
X6043120D2*
X8080107D1*
X1668303Y1355583D2*
X3313543D1*
X6043120D2*
X8078740D1*
X1655177Y1292417D2*
X3376710D1*
X6011767D2*
X8091863D1*
X1625100Y1229250D2*
X3440147D1*
X5948327D2*
X8121853D1*
X3547043Y4183290D2*
X3818290D1*
Y3888710D1*
X3754760D1*
X3754790Y3753173D1*
X3771690Y3736317D1*
X3953837Y3736300D1*
X3970693Y3753200D1*
X3970967Y4442073D1*
X3973027Y4455060D1*
X3977087Y4467567D1*
X3983057Y4479280D1*
X3990787Y4489917D1*
X4110747Y4610243D1*
X4124730Y4624227D1*
X4124710Y4860290D1*
X4479290D1*
Y4505710D1*
X4243133D1*
X4138317Y4400820D1*
X4138290Y3918430D1*
X4156740Y3922537D1*
X4179000Y3924290D1*
X4201043Y3922563D1*
X4251583Y3972713D1*
X4262220Y3980443D1*
X4273933Y3986413D1*
X4286440Y3990473D1*
X4299427Y3992533D1*
X4469333Y3992790D1*
X4805387D1*
X4800463Y4013740D1*
X4798710Y4036000D1*
X4800437Y4058043D1*
X4738287Y4120583D1*
X4730557Y4131220D1*
X4724587Y4142933D1*
X4720527Y4155440D1*
X4718467Y4168427D1*
X4718210Y4338333D1*
Y4526733D1*
X4697790Y4539570D1*
X4676637Y4557637D1*
X4658570Y4578790D1*
X4644033Y4602513D1*
X4633387Y4628213D1*
X4626893Y4655267D1*
X4624710Y4683000D1*
X4626893Y4710733D1*
X4633387Y4737787D1*
X4644033Y4763487D1*
X4658570Y4787210D1*
X4676637Y4808363D1*
X4697790Y4826430D1*
X4721513Y4840967D1*
X4747213Y4851613D1*
X4774267Y4858107D1*
X4802000Y4860290D1*
X4829733Y4858107D1*
X4856787Y4851613D1*
X4882487Y4840967D1*
X4906210Y4826430D1*
X4927363Y4808363D1*
X4945430Y4787210D1*
X4958133Y4766760D1*
X5045267Y4766790D1*
X5180393Y4901890D1*
X5178510Y4925000D1*
X5180277Y4947447D1*
X5185533Y4969340D1*
X5194150Y4990143D1*
X5205913Y5009340D1*
X5220537Y5026463D1*
X5238207Y5041453D1*
X5238210Y5582253D1*
X5221310Y5599197D1*
X4708307Y5599210D1*
X4695430Y5578790D1*
X4677363Y5557637D1*
X4656210Y5539570D1*
X4632487Y5525033D1*
X4606787Y5514387D1*
X4579733Y5507893D1*
X4552000Y5505710D1*
X4524267Y5507893D1*
X4497213Y5514387D1*
X4471513Y5525033D1*
X4447790Y5539570D1*
X4426637Y5557637D1*
X4408570Y5578790D1*
X4394033Y5602513D1*
X4383387Y5628213D1*
X4376893Y5655267D1*
X4374710Y5683000D1*
X4376893Y5710733D1*
X4383387Y5737787D1*
X4394033Y5763487D1*
X4408570Y5787210D1*
X4426637Y5808363D1*
X4447790Y5826430D1*
X4471513Y5840967D1*
X4497213Y5851613D1*
X4524267Y5858107D1*
X4552000Y5860290D1*
X4579733Y5858107D1*
X4606787Y5851613D1*
X4632487Y5840967D1*
X4656210Y5826430D1*
X4677363Y5808363D1*
X4695430Y5787210D1*
X4708133Y5766760D1*
X5221283Y5766793D1*
X5453200Y5998697D1*
X3322263Y5998710D1*
X3305307Y5981810D1*
X3305033Y4484927D1*
X3302977Y4471940D1*
X3298913Y4459433D1*
X3292943Y4447720D1*
X3285213Y4437083D1*
X3165253Y4316757D1*
X2922860Y4074360D1*
X2924837Y4059557D1*
Y4036443D1*
X2921220Y4013617D1*
X2914077Y3991633D1*
X2903587Y3971040D1*
X2890000Y3952343D1*
X2873657Y3936000D1*
X2854960Y3922413D1*
X2834367Y3911923D1*
X2812383Y3904780D1*
X2789557Y3901163D1*
X2766443D1*
X2743617Y3904780D1*
X2721633Y3911923D1*
X2701040Y3922413D1*
X2682343Y3936000D1*
X2666000Y3952343D1*
X2652413Y3971040D1*
X2641923Y3991633D1*
X2634780Y4013617D1*
X2631163Y4036443D1*
Y4059557D1*
X2634780Y4082383D1*
X2641923Y4104367D1*
X2652413Y4124960D1*
X2666000Y4143657D1*
X2682343Y4160000D1*
X2701040Y4173587D1*
X2703447Y4174933D1*
X2691427Y4182840D1*
X2673850Y4197850D1*
X2658840Y4215427D1*
X2646763Y4235133D1*
X2637920Y4256483D1*
X2632523Y4278960D1*
X2630710Y4302000D1*
X2632523Y4325040D1*
X2637920Y4347517D1*
X2646763Y4368867D1*
X2658840Y4388573D1*
X2673850Y4406150D1*
X2691427Y4421160D1*
X2703447Y4428933D1*
X2691427Y4436840D1*
X2673850Y4451850D1*
X2658840Y4469427D1*
X2646763Y4489133D1*
X2637920Y4510483D1*
X2632523Y4532960D1*
X2630710Y4556000D1*
X2632523Y4579040D1*
X2637920Y4601517D1*
X2646763Y4622867D1*
X2658840Y4642573D1*
X2673850Y4660150D1*
X2691427Y4675160D1*
X2703447Y4682933D1*
X2691427Y4690840D1*
X2673850Y4705850D1*
X2658840Y4723427D1*
X2646763Y4743133D1*
X2637920Y4764483D1*
X2632523Y4786960D1*
X2630710Y4810000D1*
X2632523Y4833040D1*
X2637920Y4855517D1*
X2646763Y4876867D1*
X2658840Y4896573D1*
X2673850Y4914150D1*
X2691427Y4929160D1*
X2703447Y4936933D1*
X2691427Y4944840D1*
X2673850Y4959850D1*
X2658840Y4977427D1*
X2646763Y4997133D1*
X2637920Y5018483D1*
X2632523Y5040960D1*
X2630710Y5064000D1*
X2632523Y5087040D1*
X2637920Y5109517D1*
X2646763Y5130867D1*
X2658840Y5150573D1*
X2673850Y5168150D1*
X2691427Y5183160D1*
X2703447Y5190933D1*
X2691427Y5198840D1*
X2673850Y5213850D1*
X2658840Y5231427D1*
X2646763Y5251133D1*
X2637920Y5272483D1*
X2632523Y5294960D1*
X2630710Y5318000D1*
X2632523Y5341040D1*
X2637920Y5363517D1*
X2646763Y5384867D1*
X2658840Y5404573D1*
X2673850Y5422150D1*
X2691427Y5437160D1*
X2711133Y5449237D1*
X2732483Y5458080D1*
X2754960Y5463477D1*
X2778000Y5465290D1*
X2801040Y5463477D1*
X2823517Y5458080D1*
X2844867Y5449237D1*
X2864573Y5437160D1*
X2882150Y5422150D1*
X2897160Y5404573D1*
X2909237Y5384867D1*
X2918080Y5363517D1*
X2923477Y5341040D1*
X2925290Y5318000D1*
X2923477Y5294960D1*
X2918080Y5272483D1*
X2909237Y5251133D1*
X2897160Y5231427D1*
X2882150Y5213850D1*
X2864573Y5198840D1*
X2852553Y5191067D1*
X2864573Y5183160D1*
X2882150Y5168150D1*
X2897160Y5150573D1*
X2909237Y5130867D1*
X2918080Y5109517D1*
X2923477Y5087040D1*
X2925290Y5064000D1*
X2923477Y5040960D1*
X2918080Y5018483D1*
X2909237Y4997133D1*
X2897160Y4977427D1*
X2882150Y4959850D1*
X2864573Y4944840D1*
X2852553Y4937067D1*
X2864573Y4929160D1*
X2882150Y4914150D1*
X2897160Y4896573D1*
X2909237Y4876867D1*
X2918080Y4855517D1*
X2923477Y4833040D1*
X2925290Y4810000D1*
X2923477Y4786960D1*
X2918080Y4764483D1*
X2909237Y4743133D1*
X2897160Y4723427D1*
X2882150Y4705850D1*
X2864573Y4690840D1*
X2852553Y4683067D1*
X2864573Y4675160D1*
X2882150Y4660150D1*
X2897160Y4642573D1*
X2909237Y4622867D1*
X2918080Y4601517D1*
X2923477Y4579040D1*
X2925290Y4556000D1*
X2923477Y4532960D1*
X2918080Y4510483D1*
X2909237Y4489133D1*
X2897160Y4469427D1*
X2882150Y4451850D1*
X2864573Y4436840D1*
X2852553Y4429067D1*
X2864573Y4421160D1*
X2882150Y4406150D1*
X2897160Y4388573D1*
X2909237Y4368867D1*
X2918080Y4347517D1*
X2923477Y4325040D1*
X2924843Y4313330D1*
X3137740Y4526237D1*
X3137967Y6023073D1*
X3140023Y6036060D1*
X3144087Y6048567D1*
X3150057Y6060280D1*
X3157787Y6070917D1*
X3228250Y6141750D1*
X3238250Y6150287D1*
X3249460Y6157157D1*
X3261607Y6162190D1*
X3274393Y6165260D1*
X3287500Y6166290D1*
X5835073Y6166033D1*
X5848060Y6163977D1*
X5860567Y6159913D1*
X5872280Y6153943D1*
X5882917Y6146213D1*
X5892213Y6136917D1*
X5899943Y6126280D1*
X5905913Y6114567D1*
X5909977Y6102060D1*
X5912033Y6089073D1*
X5912290Y5921627D1*
X6184927Y5649070D1*
X6207000Y5650790D1*
X6229260Y5649037D1*
X6250970Y5643827D1*
X6271597Y5635280D1*
X6290637Y5623617D1*
X6307613Y5609113D1*
X6322117Y5592137D1*
X6333780Y5573097D1*
X6342327Y5552470D1*
X6347537Y5530760D1*
X6349290Y5508500D1*
X6347537Y5486240D1*
X6342327Y5464530D1*
X6333780Y5443903D1*
X6322117Y5424863D1*
X6307613Y5407887D1*
X6290637Y5393383D1*
X6271163Y5381517D1*
X6290637Y5369617D1*
X6307613Y5355113D1*
X6322117Y5338137D1*
X6333780Y5319097D1*
X6342327Y5298470D1*
X6347537Y5276760D1*
X6349290Y5254500D1*
X6347537Y5232240D1*
X6342327Y5210530D1*
X6333780Y5189903D1*
X6322117Y5170863D1*
X6307613Y5153887D1*
X6290637Y5139383D1*
X6271597Y5127720D1*
X6250970Y5119173D1*
X6229260Y5113963D1*
X6207000Y5112210D1*
X6184740Y5113963D1*
X6163030Y5119173D1*
X6142403Y5127720D1*
X6123363Y5139383D1*
X6106387Y5153887D1*
X6091883Y5170863D1*
X6080220Y5189903D1*
X6071673Y5210530D1*
X6066463Y5232240D1*
X6064710Y5254500D1*
X6066463Y5276760D1*
X6071673Y5298470D1*
X6080220Y5319097D1*
X6091883Y5338137D1*
X6106387Y5355113D1*
X6123363Y5369617D1*
X6142837Y5381483D1*
X6123363Y5393383D1*
X6106387Y5407887D1*
X6091883Y5424863D1*
X6080220Y5443903D1*
X6071673Y5464530D1*
X6066463Y5486240D1*
X6064710Y5508500D1*
X6066437Y5530543D1*
X5791280Y5805723D1*
X5551710Y5805710D1*
Y5860123D1*
X5374563Y5683063D1*
X5389787Y5666253D1*
X5396657Y5655043D1*
X5401690Y5642897D1*
X5404760Y5630110D1*
X5405790Y5617003D1*
X5406340Y5041087D1*
X5423463Y5026463D1*
X5438087Y5009340D1*
X5449850Y4990143D1*
X5458467Y4969340D1*
X5463723Y4947447D1*
X5465490Y4925000D1*
X5463723Y4902553D1*
X5458467Y4880660D1*
X5449850Y4859857D1*
X5438087Y4840660D1*
X5423463Y4823537D1*
X5406340Y4808913D1*
X5387143Y4797150D1*
X5366340Y4788533D1*
X5344447Y4783277D1*
X5322000Y4781510D1*
X5298907Y4783407D1*
X5134417Y4619287D1*
X5123780Y4611557D1*
X5112067Y4605587D1*
X5099560Y4601527D1*
X5086573Y4599467D1*
X4958320Y4599210D1*
X4945430Y4578790D1*
X4927363Y4557637D1*
X4906210Y4539570D1*
X4885760Y4526867D1*
X4885790Y4209680D1*
X4918930Y4176567D1*
X4941000Y4178290D1*
X4963260Y4176537D1*
X4984970Y4171327D1*
X5005597Y4162780D1*
X5024637Y4151117D1*
X5041613Y4136613D1*
X5055980Y4119807D1*
X5654073Y4119533D1*
X5667060Y4117473D1*
X5679567Y4113413D1*
X5691280Y4107443D1*
X5701917Y4099713D1*
X5802843Y3999153D1*
X5826000Y4000990D1*
X5848447Y3999223D1*
X5870340Y3993967D1*
X5891143Y3985350D1*
X5910340Y3973587D1*
X5927463Y3958963D1*
X5942087Y3941840D1*
X5953850Y3922643D1*
X5962467Y3901840D1*
X5967723Y3879947D1*
X5969490Y3857500D1*
X5967593Y3834407D1*
X6016713Y3784917D1*
X6024443Y3774280D1*
X6030413Y3762567D1*
X6034477Y3750060D1*
X6036533Y3737073D1*
X6036790Y3567167D1*
Y3428350D1*
X6095290Y3428290D1*
Y3262130D1*
X6368720Y2988777D1*
X6579457Y2988790D1*
X6574463Y3009740D1*
X6572710Y3032000D1*
X6574463Y3054260D1*
X6579673Y3075970D1*
X6588220Y3096597D1*
X6599883Y3115637D1*
X6614387Y3132613D1*
X6631363Y3147117D1*
X6650837Y3158983D1*
X6631363Y3170883D1*
X6614387Y3185387D1*
X6599883Y3202363D1*
X6588220Y3221403D1*
X6579673Y3242030D1*
X6574463Y3263740D1*
X6572710Y3286000D1*
X6574463Y3308260D1*
X6579673Y3329970D1*
X6588220Y3350597D1*
X6599883Y3369637D1*
X6614387Y3386613D1*
X6631363Y3401117D1*
X6650403Y3412780D1*
X6671030Y3421327D1*
X6692740Y3426537D1*
X6715000Y3428290D1*
X6737043Y3426563D1*
X6758163Y3447660D1*
X6758210Y3741033D1*
X6740537Y3756037D1*
X6725913Y3773160D1*
X6714150Y3792357D1*
X6705533Y3813160D1*
X6700277Y3835053D1*
X6698510Y3857500D1*
X6700277Y3879947D1*
X6705533Y3901840D1*
X6714150Y3922643D1*
X6725913Y3941840D1*
X6740537Y3958963D1*
X6757660Y3973587D1*
X6776857Y3985350D1*
X6797660Y3993967D1*
X6819553Y3999223D1*
X6842000Y4000990D1*
X6864447Y3999223D1*
X6886340Y3993967D1*
X6907143Y3985350D1*
X6926340Y3973587D1*
X6943463Y3958963D1*
X6958087Y3941840D1*
X6969850Y3922643D1*
X6978467Y3901840D1*
X6983723Y3879947D1*
X6985490Y3857500D1*
X6983723Y3835053D1*
X6978467Y3813160D1*
X6969850Y3792357D1*
X6958087Y3773160D1*
X6943463Y3756037D1*
X6925793Y3741047D1*
X6925533Y3406427D1*
X6923477Y3393440D1*
X6919413Y3380933D1*
X6913443Y3369220D1*
X6905713Y3358583D1*
X6855553Y3308057D1*
X6857033Y3292497D1*
X7009647Y3445143D1*
X7009710Y5118117D1*
X6991260Y5113963D1*
X6969000Y5112210D1*
X6946957Y5113937D1*
X6798743Y4965747D1*
X6798790Y4830330D1*
X6862290Y4830290D1*
Y4535710D1*
X6567710D1*
Y4581557D1*
X6556657Y4571000D1*
X6537960Y4557413D1*
X6517367Y4546923D1*
X6495383Y4539780D1*
X6472557Y4536163D1*
X6449443D1*
X6426617Y4539780D1*
X6404633Y4546923D1*
X6384040Y4557413D1*
X6365343Y4571000D1*
X6349000Y4587343D1*
X6335413Y4606040D1*
X6324923Y4626633D1*
X6317780Y4648617D1*
X6314163Y4671443D1*
Y4694557D1*
X6317780Y4717383D1*
X6324923Y4739367D1*
X6335413Y4759960D1*
X6349000Y4778657D1*
X6365343Y4795000D1*
X6384040Y4808587D1*
X6404633Y4819077D1*
X6426617Y4826220D1*
X6449443Y4829837D1*
X6472557D1*
X6495383Y4826220D1*
X6517367Y4819077D1*
X6537960Y4808587D1*
X6556657Y4795000D1*
X6567697Y4784397D1*
X6567710Y4830290D1*
X6631240D1*
X6631467Y5007073D1*
X6633523Y5020060D1*
X6637587Y5032567D1*
X6643557Y5044280D1*
X6651287Y5054917D1*
X6771247Y5175243D1*
X6828413Y5232410D1*
X6826710Y5254500D1*
X6828463Y5276760D1*
X6833673Y5298470D1*
X6842220Y5319097D1*
X6853883Y5338137D1*
X6868387Y5355113D1*
X6885363Y5369617D1*
X6904837Y5381483D1*
X6885363Y5393383D1*
X6868387Y5407887D1*
X6853883Y5424863D1*
X6842220Y5443903D1*
X6833673Y5464530D1*
X6828463Y5486240D1*
X6826710Y5508500D1*
X6828463Y5530760D1*
X6833673Y5552470D1*
X6842220Y5573097D1*
X6853883Y5592137D1*
X6868387Y5609113D1*
X6885363Y5623617D1*
X6904837Y5635483D1*
X6885363Y5647383D1*
X6868387Y5661887D1*
X6853883Y5678863D1*
X6842220Y5697903D1*
X6833673Y5718530D1*
X6828463Y5740240D1*
X6826710Y5762500D1*
X6828463Y5784760D1*
X6833673Y5806470D1*
X6842220Y5827097D1*
X6853883Y5846137D1*
X6868387Y5863113D1*
X6885363Y5877617D1*
X6904837Y5889483D1*
X6885363Y5901383D1*
X6868387Y5915887D1*
X6853883Y5932863D1*
X6842220Y5951903D1*
X6833673Y5972530D1*
X6828463Y5994240D1*
X6826710Y6016500D1*
X6828463Y6038760D1*
X6833673Y6060470D1*
X6842220Y6081097D1*
X6853883Y6100137D1*
X6868387Y6117113D1*
X6885363Y6131617D1*
X6904403Y6143280D1*
X6925030Y6151827D1*
X6946740Y6157037D1*
X6969000Y6158790D1*
X6991043Y6157063D1*
X7012163Y6178160D1*
X7012210Y6471533D1*
X6994537Y6486537D1*
X6979913Y6503660D1*
X6968150Y6522857D1*
X6959533Y6543660D1*
X6954277Y6565553D1*
X6952510Y6588000D1*
X6954277Y6610447D1*
X6958853Y6629927D1*
X6217220Y6629910D1*
X6221723Y6610447D1*
X6223490Y6588000D1*
X6221723Y6565553D1*
X6216467Y6543660D1*
X6207850Y6522857D1*
X6196087Y6503660D1*
X6181463Y6486537D1*
X6164340Y6471913D1*
X6145143Y6460150D1*
X6124340Y6451533D1*
X6102447Y6446277D1*
X6080000Y6444510D1*
X6057553Y6446277D1*
X6035660Y6451533D1*
X6014857Y6460150D1*
X5995660Y6471913D1*
X5978537Y6486537D1*
X5963913Y6503660D1*
X5952150Y6522857D1*
X5943533Y6543660D1*
X5938277Y6565553D1*
X5936510Y6588000D1*
X5938277Y6610447D1*
X5942853Y6629927D1*
X2410790Y6629910D1*
X2393877Y6613010D1*
X2393603Y4335497D1*
X2391547Y4322510D1*
X2387483Y4310003D1*
X2381513Y4298290D1*
X2373783Y4287653D1*
X2253823Y4167327D1*
X2160953Y4074457D1*
X2162837Y4059557D1*
Y4036443D1*
X2159220Y4013617D1*
X2152077Y3991633D1*
X2141587Y3971040D1*
X2128000Y3952343D1*
X2111657Y3936000D1*
X2092960Y3922413D1*
X2090553Y3921067D1*
X2102573Y3913160D1*
X2120150Y3898150D1*
X2135160Y3880573D1*
X2137043Y3877757D1*
X2240003Y3877533D1*
X2252990Y3875477D1*
X2265497Y3871413D1*
X2277210Y3865443D1*
X2287847Y3857713D1*
X2408173Y3737753D1*
X2522183Y3623743D1*
X2656870Y3623790D1*
X2666000Y3635657D1*
X2682343Y3652000D1*
X2701040Y3665587D1*
X2721633Y3676077D1*
X2743617Y3683220D1*
X2766443Y3686837D1*
X2789557D1*
X2812383Y3683220D1*
X2834367Y3676077D1*
X2854960Y3665587D1*
X2873657Y3652000D1*
X2890000Y3635657D1*
X2903587Y3616960D1*
X2914077Y3596367D1*
X2921220Y3574383D1*
X2924837Y3551557D1*
Y3528443D1*
X2921220Y3505617D1*
X2914077Y3483633D1*
X2903587Y3463040D1*
X2890000Y3444343D1*
X2873657Y3428000D1*
X2854960Y3414413D1*
X2852553Y3413067D1*
X2864573Y3405160D1*
X2882150Y3390150D1*
X2897160Y3372573D1*
X2899043Y3369757D1*
X3053973Y3369533D1*
X3066960Y3367477D1*
X3079467Y3363413D1*
X3085463Y3360647D1*
X3106067Y3357790D1*
X4063917D1*
X4078387Y3374613D1*
X4095363Y3389117D1*
X4114837Y3400983D1*
X4095363Y3412883D1*
X4078387Y3427387D1*
X4063883Y3444363D1*
X4052220Y3463403D1*
X4043673Y3484030D1*
X4038463Y3505740D1*
X4036710Y3528000D1*
X4038463Y3550260D1*
X4043673Y3571970D1*
X4052220Y3592597D1*
X4055693Y3598807D1*
X4037747Y3584720D1*
X4026533Y3577850D1*
X4014387Y3572820D1*
X4001603Y3569750D1*
X3988470Y3568720D1*
X3730427Y3568977D1*
X3717440Y3571033D1*
X3704933Y3575097D1*
X3693220Y3581067D1*
X3682583Y3588797D1*
X3611750Y3659260D1*
X3603213Y3669260D1*
X3596343Y3680470D1*
X3591310Y3692617D1*
X3588240Y3705403D1*
X3587210Y3718537D1*
Y3888680D1*
X3523710Y3888710D1*
Y4183290D1*
X3547043D1*
X4836327Y2627247D2*
X4832650Y2604033D1*
X4825387Y2581677D1*
X4814717Y2560733D1*
X4800900Y2541720D1*
X4784280Y2525100D1*
X4765267Y2511283D1*
X4744323Y2500613D1*
X4721967Y2493350D1*
X4698753Y2489673D1*
X4675247D1*
X4652033Y2493350D1*
X4629677Y2500613D1*
X4608733Y2511283D1*
X4589720Y2525100D1*
X4573100Y2541720D1*
X4559283Y2560733D1*
X4548613Y2581677D1*
X4541350Y2604033D1*
X4537673Y2627247D1*
Y2650753D1*
X4541350Y2673967D1*
X4548613Y2696323D1*
X4559283Y2717267D1*
X4573100Y2736280D1*
X4589720Y2752900D1*
X4603197Y2763017D1*
X4603467Y3026573D1*
X4605527Y3039560D1*
X4609587Y3052067D1*
X4615557Y3063780D1*
X4623287Y3074417D1*
X4743247Y3194743D1*
X4800413Y3251910D1*
X4798710Y3274000D1*
X4800463Y3296260D1*
X4805673Y3317970D1*
X4814220Y3338597D1*
X4825883Y3357637D1*
X4840387Y3374613D1*
X4857363Y3389117D1*
X4876837Y3400983D1*
X4857363Y3412883D1*
X4840387Y3427387D1*
X4825883Y3444363D1*
X4814220Y3463403D1*
X4805673Y3484030D1*
X4800463Y3505740D1*
X4798710Y3528000D1*
X4800437Y3550043D1*
X4781790Y3568713D1*
X4315280Y3568720D1*
X4319537Y3550260D1*
X4321290Y3528000D1*
X4319537Y3505740D1*
X4314327Y3484030D1*
X4305780Y3463403D1*
X4294117Y3444363D1*
X4279613Y3427387D1*
X4262637Y3412883D1*
X4243163Y3401017D1*
X4262637Y3389117D1*
X4279613Y3374613D1*
X4294117Y3357637D1*
X4305780Y3338597D1*
X4314327Y3317970D1*
X4319537Y3296260D1*
X4321290Y3274000D1*
X4319537Y3251740D1*
X4314327Y3230030D1*
X4305780Y3209403D1*
X4294117Y3190363D1*
X4279613Y3173387D1*
X4262807Y3159020D1*
X4262790Y2208780D1*
X4279690Y2191803D1*
X4515243Y2191790D1*
X4524660Y2206330D1*
X4541707Y2226293D1*
X4561670Y2243340D1*
X4584053Y2257057D1*
X4608303Y2267103D1*
X4633830Y2273230D1*
X4660050Y2275287D1*
X4973127Y2274773D1*
X4999053Y2270667D1*
X5024020Y2262557D1*
X5047410Y2250637D1*
X5068647Y2235207D1*
X5087207Y2216647D1*
X5102637Y2195410D1*
X5114557Y2172020D1*
X5122667Y2147053D1*
X5126773Y2121127D1*
Y2094873D1*
X5122667Y2068947D1*
X5114557Y2043980D1*
X5102637Y2020590D1*
X5087207Y1999353D1*
X5068647Y1980793D1*
X5047410Y1965363D1*
X5024020Y1953443D1*
X4999053Y1945333D1*
X4973127Y1941227D1*
X4913333Y1940710D1*
X4660000D1*
X4633830Y1942770D1*
X4608303Y1948897D1*
X4584053Y1958943D1*
X4561670Y1972660D1*
X4541707Y1989707D1*
X4524660Y2009670D1*
X4515330Y2024217D1*
X4238423Y2024467D1*
X4225437Y2026523D1*
X4212930Y2030587D1*
X4201217Y2036557D1*
X4190580Y2044287D1*
X4144307Y2090193D1*
X4113650Y2090207D1*
X3814257Y1790760D1*
X3814290Y1614710D1*
X3519710D1*
Y1909290D1*
X3695713D1*
X4024580Y2237710D1*
X4035217Y2245440D1*
X4046930Y2251410D1*
X4059437Y2255473D1*
X4072423Y2257530D1*
X4079023Y2257787D1*
X4095210Y2267330D1*
Y3159010D1*
X4078387Y3173387D1*
X4064020Y3190193D1*
X3052827Y3190467D1*
X3039840Y3192523D1*
X3027333Y3196587D1*
X3021337Y3199353D1*
X3000733Y3202210D1*
X2899107D1*
X2890000Y3190343D1*
X2873657Y3174000D1*
X2854960Y3160413D1*
X2852553Y3159067D1*
X2864573Y3151160D1*
X2882150Y3136150D1*
X2897160Y3118573D1*
X2909237Y3098867D1*
X2918080Y3077517D1*
X2923477Y3055040D1*
X2925290Y3032000D1*
X2923477Y3008960D1*
X2918080Y2986483D1*
X2909237Y2965133D1*
X2897160Y2945427D1*
X2882150Y2927850D1*
X2864573Y2912840D1*
X2852553Y2905067D1*
X2864573Y2897160D1*
X2882150Y2882150D1*
X2897160Y2864573D1*
X2909237Y2844867D1*
X2918080Y2823517D1*
X2923477Y2801040D1*
X2925290Y2778000D1*
X2923477Y2754960D1*
X2918080Y2732483D1*
X2909237Y2711133D1*
X2897160Y2691427D1*
X2882150Y2673850D1*
X2864573Y2658840D1*
X2852553Y2651067D1*
X2864573Y2643160D1*
X2882150Y2628150D1*
X2897160Y2610573D1*
X2909237Y2590867D1*
X2918080Y2569517D1*
X2923477Y2547040D1*
X2925290Y2524000D1*
X2923477Y2500960D1*
X2918080Y2478483D1*
X2909237Y2457133D1*
X2897160Y2437427D1*
X2882150Y2419850D1*
X2864573Y2404840D1*
X2852553Y2397067D1*
X2864573Y2389160D1*
X2882150Y2374150D1*
X2897160Y2356573D1*
X2909237Y2336867D1*
X2918080Y2315517D1*
X2923477Y2293040D1*
X2925290Y2270000D1*
X2923477Y2246960D1*
X2918080Y2224483D1*
X2909237Y2203133D1*
X2897160Y2183427D1*
X2882150Y2165850D1*
X2864573Y2150840D1*
X2852553Y2143067D1*
X2864573Y2135160D1*
X2882150Y2120150D1*
X2897160Y2102573D1*
X2909237Y2082867D1*
X2918080Y2061517D1*
X2923477Y2039040D1*
X2925290Y2016000D1*
X2923477Y1992960D1*
X2922817Y1989637D1*
X3536207Y1376290D1*
X5852253Y1376280D1*
X5869193Y1393180D1*
X5869210Y2408947D1*
X5852387Y2423387D1*
X5837883Y2440363D1*
X5826220Y2459403D1*
X5817673Y2480030D1*
X5812463Y2501740D1*
X5810710Y2524000D1*
X5812463Y2546260D1*
X5816763Y2564737D1*
X5381427Y2564967D1*
X5368440Y2567027D1*
X5355933Y2571087D1*
X5344220Y2577057D1*
X5333583Y2584787D1*
X5262750Y2655250D1*
X5254213Y2665250D1*
X5247343Y2676460D1*
X5242310Y2688607D1*
X5239240Y2701393D1*
X5238210Y2714527D1*
X5237660Y3792913D1*
X5220537Y3807537D1*
X5205547Y3825207D1*
X5076543Y3825210D1*
X5081537Y3804260D1*
X5083290Y3782000D1*
X5081537Y3759740D1*
X5076327Y3738030D1*
X5067780Y3717403D1*
X5056117Y3698363D1*
X5041613Y3681387D1*
X5024637Y3666883D1*
X5005163Y3655017D1*
X5024637Y3643117D1*
X5041613Y3628613D1*
X5056117Y3611637D1*
X5067780Y3592597D1*
X5076327Y3571970D1*
X5081537Y3550260D1*
X5083290Y3528000D1*
X5081537Y3505740D1*
X5076327Y3484030D1*
X5067780Y3463403D1*
X5056117Y3444363D1*
X5041613Y3427387D1*
X5024637Y3412883D1*
X5005163Y3401017D1*
X5024637Y3389117D1*
X5041613Y3374613D1*
X5056117Y3357637D1*
X5067780Y3338597D1*
X5076327Y3317970D1*
X5081537Y3296260D1*
X5083290Y3274000D1*
X5081537Y3251740D1*
X5076327Y3230030D1*
X5067780Y3209403D1*
X5056117Y3190363D1*
X5041613Y3173387D1*
X5024637Y3158883D1*
X5005597Y3147220D1*
X4984970Y3138673D1*
X4963260Y3133463D1*
X4941000Y3131710D1*
X4918957Y3133437D1*
X4770743Y2985247D1*
X4770790Y2763243D1*
X4784280Y2752900D1*
X4800900Y2736280D1*
X4814717Y2717267D1*
X4825387Y2696323D1*
X4832650Y2673967D1*
X4836327Y2650753D1*
Y2627247D1*
X7353043Y5465290D2*
X7624290D1*
Y5170710D1*
X7329710D1*
Y5465290D1*
X7353043D1*
X7226043Y6227290D2*
X7497290D1*
Y5932710D1*
X7084067D1*
X7069613Y5915887D1*
X7052637Y5901383D1*
X7033163Y5889517D1*
X7052637Y5877617D1*
X7069613Y5863113D1*
X7084117Y5846137D1*
X7095780Y5827097D1*
X7104327Y5806470D1*
X7109537Y5784760D1*
X7111290Y5762500D1*
X7109563Y5740457D1*
X7157213Y5692417D1*
X7164943Y5681780D1*
X7170913Y5670067D1*
X7174973Y5657560D1*
X7177033Y5644573D1*
X7177290Y5474667D1*
Y3496710D1*
X7370290Y3496790D1*
Y3202210D1*
X7075710D1*
Y3274123D1*
X6855570Y3054073D1*
X6857290Y3032000D1*
X6855537Y3009740D1*
X6850550Y2988827D1*
X8124013Y2988790D1*
X8138387Y3005613D1*
X8155363Y3020117D1*
X8174837Y3031983D1*
X8155363Y3043883D1*
X8138387Y3058387D1*
X8123883Y3075363D1*
X8112220Y3094403D1*
X8103673Y3115030D1*
X8098463Y3136740D1*
X8096710Y3159000D1*
X8098463Y3181260D1*
X8103673Y3202970D1*
X8112220Y3223597D1*
X8123883Y3242637D1*
X8138387Y3259613D1*
X8155363Y3274117D1*
X8174837Y3285983D1*
X8155363Y3297883D1*
X8138387Y3312387D1*
X8123883Y3329363D1*
X8112220Y3348403D1*
X8103673Y3369030D1*
X8098463Y3390740D1*
X8096710Y3413000D1*
X8098437Y3435043D1*
X7796787Y3737083D1*
X7789057Y3747720D1*
X7783087Y3759433D1*
X7779023Y3771940D1*
X7776967Y3784927D1*
X7776710Y3954833D1*
Y6612920D1*
X7759810Y6629893D1*
X7233317Y6629910D1*
X7237723Y6610447D1*
X7239490Y6588000D1*
X7237723Y6565553D1*
X7232467Y6543660D1*
X7223850Y6522857D1*
X7212087Y6503660D1*
X7197463Y6486537D1*
X7179793Y6471547D1*
X7179533Y6136927D1*
X7177477Y6123940D1*
X7173413Y6111433D1*
X7170647Y6105437D1*
X7179000Y6100290D1*
X7202790D1*
X7202710Y6227290D1*
X7226043D1*
X5448043Y3179290D2*
X5719290D1*
Y2884710D1*
X5424710D1*
Y3179290D1*
X5448043D1*
X6607837Y1940943D2*
X6604220Y1918117D1*
X6597077Y1896133D1*
X6586587Y1875540D1*
X6573000Y1856843D1*
X6556657Y1840500D1*
X6537960Y1826913D1*
X6517367Y1816423D1*
X6495383Y1809280D1*
X6472557Y1805663D1*
X6449443D1*
X6426617Y1809280D1*
X6404633Y1816423D1*
X6384040Y1826913D1*
X6365343Y1840500D1*
X6354303Y1851103D1*
X6354290Y1805210D1*
X6059710D1*
Y2099790D1*
X6123240D1*
X6123467Y2464573D1*
X6125527Y2477560D1*
X6129587Y2490067D1*
X6135557Y2501780D1*
X6143287Y2512417D1*
X6195250Y2564747D1*
X6089400Y2564710D1*
X6093537Y2546260D1*
X6095290Y2524000D1*
X6093537Y2501740D1*
X6088327Y2480030D1*
X6079780Y2459403D1*
X6068117Y2440363D1*
X6053613Y2423387D1*
X6036807Y2409020D1*
X6036533Y1351917D1*
X6034477Y1338930D1*
X6030413Y1326423D1*
X6024443Y1314710D1*
X6016713Y1304073D1*
X5946250Y1233240D1*
X5936250Y1224703D1*
X5925040Y1217833D1*
X5912893Y1212800D1*
X5900107Y1209730D1*
X5887000Y1208700D1*
X3494937Y1208957D1*
X3481950Y1211013D1*
X3469443Y1215077D1*
X3457730Y1221047D1*
X3447093Y1228777D1*
X3326767Y1348737D1*
X2804400Y1871100D1*
X2789557Y1869163D1*
X2766443D1*
X2743617Y1872780D1*
X2721633Y1879923D1*
X2701040Y1890413D1*
X2682343Y1904000D1*
X2666000Y1920343D1*
X2652413Y1939040D1*
X2641923Y1959633D1*
X2634780Y1981617D1*
X2631163Y2004443D1*
Y2027557D1*
X2634780Y2050383D1*
X2641923Y2072367D1*
X2652413Y2092960D1*
X2666000Y2111657D1*
X2682343Y2128000D1*
X2701040Y2141587D1*
X2703447Y2142933D1*
X2691427Y2150840D1*
X2673850Y2165850D1*
X2658840Y2183427D1*
X2646763Y2203133D1*
X2637920Y2224483D1*
X2632523Y2246960D1*
X2630710Y2270000D1*
X2632523Y2293040D1*
X2637920Y2315517D1*
X2646763Y2336867D1*
X2658840Y2356573D1*
X2673850Y2374150D1*
X2691427Y2389160D1*
X2703447Y2396933D1*
X2691427Y2404840D1*
X2673850Y2419850D1*
X2658840Y2437427D1*
X2646763Y2457133D1*
X2637920Y2478483D1*
X2632523Y2500960D1*
X2630710Y2524000D1*
X2632523Y2547040D1*
X2637920Y2569517D1*
X2646763Y2590867D1*
X2658840Y2610573D1*
X2673850Y2628150D1*
X2691427Y2643160D1*
X2703447Y2650933D1*
X2691427Y2658840D1*
X2673850Y2673850D1*
X2658840Y2691427D1*
X2646763Y2711133D1*
X2637920Y2732483D1*
X2632523Y2754960D1*
X2630710Y2778000D1*
X2632523Y2801040D1*
X2637920Y2823517D1*
X2646763Y2844867D1*
X2658840Y2864573D1*
X2673850Y2882150D1*
X2691427Y2897160D1*
X2703447Y2904933D1*
X2691427Y2912840D1*
X2673850Y2927850D1*
X2658840Y2945427D1*
X2646763Y2965133D1*
X2637920Y2986483D1*
X2632523Y3008960D1*
X2630710Y3032000D1*
X2632523Y3055040D1*
X2637920Y3077517D1*
X2646763Y3098867D1*
X2658840Y3118573D1*
X2673850Y3136150D1*
X2691427Y3151160D1*
X2703447Y3158933D1*
X2691427Y3166840D1*
X2673850Y3181850D1*
X2658840Y3199427D1*
X2646763Y3219133D1*
X2637920Y3240483D1*
X2632523Y3262960D1*
X2630710Y3286000D1*
X2632523Y3309040D1*
X2637920Y3331517D1*
X2646763Y3352867D1*
X2658840Y3372573D1*
X2673850Y3390150D1*
X2691427Y3405160D1*
X2703447Y3412933D1*
X2691427Y3420840D1*
X2673850Y3435850D1*
X2658840Y3453427D1*
X2656957Y3456243D1*
X2480857Y3456467D1*
X2467870Y3458523D1*
X2455363Y3462587D1*
X2443650Y3468557D1*
X2433013Y3476287D1*
X2312687Y3596247D1*
X2198677Y3710257D1*
X2137090Y3710210D1*
X2128000Y3698343D1*
X2111657Y3682000D1*
X2092960Y3668413D1*
X2072367Y3657923D1*
X2050383Y3650780D1*
X2027557Y3647163D1*
X2004443D1*
X1981617Y3650780D1*
X1959633Y3657923D1*
X1939040Y3668413D1*
X1920343Y3682000D1*
X1904000Y3698343D1*
X1890413Y3717040D1*
X1879923Y3737633D1*
X1872780Y3759617D1*
X1869163Y3782443D1*
Y3805557D1*
X1872780Y3828383D1*
X1879923Y3850367D1*
X1890413Y3870960D1*
X1904000Y3889657D1*
X1920343Y3906000D1*
X1939040Y3919587D1*
X1941447Y3920933D1*
X1929427Y3928840D1*
X1911850Y3943850D1*
X1896840Y3961427D1*
X1884763Y3981133D1*
X1875920Y4002483D1*
X1870523Y4024960D1*
X1868710Y4048000D1*
X1870523Y4071040D1*
X1875920Y4093517D1*
X1884763Y4114867D1*
X1896840Y4134573D1*
X1911850Y4152150D1*
X1929427Y4167160D1*
X1941447Y4174933D1*
X1929427Y4182840D1*
X1911850Y4197850D1*
X1896840Y4215427D1*
X1884763Y4235133D1*
X1875920Y4256483D1*
X1870523Y4278960D1*
X1868710Y4302000D1*
X1870523Y4325040D1*
X1875920Y4347517D1*
X1884763Y4368867D1*
X1896840Y4388573D1*
X1911850Y4406150D1*
X1929427Y4421160D1*
X1941447Y4428933D1*
X1929427Y4436840D1*
X1911850Y4451850D1*
X1896840Y4469427D1*
X1884763Y4489133D1*
X1875920Y4510483D1*
X1870523Y4532960D1*
X1868710Y4556000D1*
X1870523Y4579040D1*
X1875920Y4601517D1*
X1884763Y4622867D1*
X1896840Y4642573D1*
X1911850Y4660150D1*
X1929427Y4675160D1*
X1941447Y4682933D1*
X1929427Y4690840D1*
X1911850Y4705850D1*
X1896840Y4723427D1*
X1884763Y4743133D1*
X1875920Y4764483D1*
X1870523Y4786960D1*
X1868710Y4810000D1*
X1870523Y4833040D1*
X1875920Y4855517D1*
X1884763Y4876867D1*
X1896840Y4896573D1*
X1911850Y4914150D1*
X1929427Y4929160D1*
X1941447Y4936933D1*
X1929427Y4944840D1*
X1911850Y4959850D1*
X1896840Y4977427D1*
X1884763Y4997133D1*
X1875920Y5018483D1*
X1870523Y5040960D1*
X1868710Y5064000D1*
X1870523Y5087040D1*
X1875920Y5109517D1*
X1884763Y5130867D1*
X1896840Y5150573D1*
X1911850Y5168150D1*
X1914603Y5170697D1*
X1868710Y5170710D1*
Y5465290D1*
X1932240D1*
X1932210Y5918377D1*
X1911447Y5938277D1*
X1889000Y5936510D1*
X1866553Y5938277D1*
X1844660Y5943533D1*
X1823857Y5952150D1*
X1804660Y5963913D1*
X1787537Y5978537D1*
X1772913Y5995660D1*
X1761150Y6014857D1*
X1752533Y6035660D1*
X1747277Y6057553D1*
X1745510Y6080000D1*
X1747277Y6102447D1*
X1752533Y6124340D1*
X1761150Y6145143D1*
X1772913Y6164340D1*
X1787537Y6181463D1*
X1804660Y6196087D1*
X1823857Y6207850D1*
X1844660Y6216467D1*
X1866553Y6221723D1*
X1889000Y6223490D1*
X1911447Y6221723D1*
X1933340Y6216467D1*
X1954143Y6207850D1*
X1973340Y6196087D1*
X1990463Y6181463D1*
X2005087Y6164340D1*
X2016850Y6145143D1*
X2025467Y6124340D1*
X2030723Y6102447D1*
X2032490Y6080000D1*
X2030593Y6056907D1*
X2061743Y6025753D1*
X2061967Y6720270D1*
X2064023Y6733257D1*
X2068087Y6745760D1*
X2074057Y6757477D1*
X2081783Y6768113D1*
X2152250Y6838947D1*
X2162247Y6847487D1*
X2173457Y6854357D1*
X2185607Y6859390D1*
X2198390Y6862460D1*
X2211523Y6863490D1*
X7867080Y6863230D1*
X7880067Y6861173D1*
X7892570Y6857110D1*
X7904287Y6851140D1*
X7914923Y6843413D1*
X7985750Y6772950D1*
X7994287Y6762950D1*
X8001157Y6751740D1*
X8006190Y6739593D1*
X8009260Y6726807D1*
X8010290Y6713700D1*
Y4014233D1*
X8215253Y3809243D1*
X8381290Y3809290D1*
Y3524710D1*
X8327060D1*
X8339613Y3513613D1*
X8354117Y3496637D1*
X8365780Y3477597D1*
X8374327Y3456970D1*
X8379537Y3435260D1*
X8381290Y3413000D1*
X8379537Y3390740D1*
X8374327Y3369030D1*
X8365780Y3348403D1*
X8354117Y3329363D1*
X8339613Y3312387D1*
X8322637Y3297883D1*
X8303163Y3286017D1*
X8322637Y3274117D1*
X8339613Y3259613D1*
X8354117Y3242637D1*
X8365780Y3223597D1*
X8374327Y3202970D1*
X8379537Y3181260D1*
X8381290Y3159000D1*
X8379563Y3136957D1*
X8493213Y3022917D1*
X8500943Y3012280D1*
X8506913Y3000567D1*
X8510977Y2988060D1*
X8513033Y2975073D1*
X8513290Y2841500D1*
X8512260Y2828393D1*
X8509190Y2815607D1*
X8504157Y2803460D1*
X8497287Y2792250D1*
X8488730Y2782233D1*
X8417917Y2711787D1*
X8407280Y2704057D1*
X8395567Y2698087D1*
X8383060Y2694023D1*
X8370073Y2691967D1*
X8200167Y2691710D1*
X7243227D1*
X7243290Y2440210D1*
X6948710D1*
Y2691680D1*
X6937707Y2691710D1*
X6839250Y2593250D1*
X6846460Y2578453D1*
X6853360Y2557217D1*
X6856850Y2535163D1*
Y2512837D1*
X6853360Y2490783D1*
X6846460Y2469547D1*
X6836323Y2449653D1*
X6823197Y2431590D1*
X6807410Y2415803D1*
X6789347Y2402677D1*
X6769453Y2392540D1*
X6748217Y2385640D1*
X6726163Y2382150D1*
X6703837D1*
X6681783Y2385640D1*
X6660547Y2392540D1*
X6640653Y2402677D1*
X6622590Y2415803D1*
X6606803Y2431590D1*
X6600020Y2440193D1*
X6307670Y2440210D1*
X6290807Y2423310D1*
X6290790Y2099707D1*
X6354290Y2099790D1*
Y2053943D1*
X6365343Y2064500D1*
X6384040Y2078087D1*
X6404633Y2088577D1*
X6426617Y2095720D1*
X6449443Y2099337D1*
X6472557D1*
X6495383Y2095720D1*
X6517367Y2088577D1*
X6537960Y2078087D1*
X6556657Y2064500D1*
X6573000Y2048157D1*
X6586587Y2029460D1*
X6597077Y2008867D1*
X6604220Y1986883D1*
X6607837Y1964057D1*
Y1940943D1*
X1654837Y2512443D2*
X1651220Y2489617D1*
X1644077Y2467633D1*
X1633587Y2447040D1*
X1620000Y2428343D1*
X1603657Y2412000D1*
X1584960Y2398413D1*
X1564367Y2387923D1*
X1542383Y2380780D1*
X1519557Y2377163D1*
X1496443D1*
X1473617Y2380780D1*
X1451633Y2387923D1*
X1431040Y2398413D1*
X1412343Y2412000D1*
X1396000Y2428343D1*
X1382413Y2447040D1*
X1371923Y2467633D1*
X1364780Y2489617D1*
X1361163Y2512443D1*
Y2535557D1*
X1364780Y2558383D1*
X1371923Y2580367D1*
X1382413Y2600960D1*
X1396000Y2619657D1*
X1412343Y2636000D1*
X1424243Y2645043D1*
X1424467Y2972573D1*
X1426523Y2985560D1*
X1430587Y2998067D1*
X1436557Y3009780D1*
X1444287Y3020417D1*
X1514750Y3091250D1*
X1524750Y3099787D1*
X1535960Y3106657D1*
X1548107Y3111690D1*
X1560893Y3114760D1*
X1574000Y3115790D1*
X1894923D1*
X1904000Y3127657D1*
X1920343Y3144000D1*
X1939040Y3157587D1*
X1941447Y3158933D1*
X1929427Y3166840D1*
X1911850Y3181850D1*
X1896840Y3199427D1*
X1884763Y3219133D1*
X1875920Y3240483D1*
X1870523Y3262960D1*
X1868710Y3286000D1*
X1870523Y3309040D1*
X1871183Y3312363D1*
X1444287Y3739583D1*
X1436557Y3750220D1*
X1430587Y3761933D1*
X1426523Y3774440D1*
X1424467Y3787427D1*
X1424210Y3957333D1*
Y4688780D1*
X1412343Y4698000D1*
X1396000Y4714343D1*
X1382413Y4733040D1*
X1371923Y4753633D1*
X1364780Y4775617D1*
X1361163Y4798443D1*
Y4821557D1*
X1364780Y4844383D1*
X1371923Y4866367D1*
X1382413Y4886960D1*
X1396000Y4905657D1*
X1412343Y4922000D1*
X1431040Y4935587D1*
X1451633Y4946077D1*
X1473617Y4953220D1*
X1496443Y4956837D1*
X1519557D1*
X1542383Y4953220D1*
X1564367Y4946077D1*
X1584960Y4935587D1*
X1603657Y4922000D1*
X1620000Y4905657D1*
X1633587Y4886960D1*
X1644077Y4866367D1*
X1651220Y4844383D1*
X1654837Y4821557D1*
Y4798443D1*
X1651220Y4775617D1*
X1644077Y4753633D1*
X1633587Y4733040D1*
X1620000Y4714343D1*
X1603657Y4698000D1*
X1591757Y4688957D1*
X1591790Y3828633D1*
X1989590Y3430910D1*
X2004443Y3432837D1*
X2027557D1*
X2050383Y3429220D1*
X2072367Y3422077D1*
X2092960Y3411587D1*
X2111657Y3398000D1*
X2128000Y3381657D1*
X2141587Y3362960D1*
X2152077Y3342367D1*
X2159220Y3320383D1*
X2162837Y3297557D1*
Y3274443D1*
X2159220Y3251617D1*
X2152077Y3229633D1*
X2141587Y3209040D1*
X2128000Y3190343D1*
X2111657Y3174000D1*
X2092960Y3160413D1*
X2090553Y3159067D1*
X2102573Y3151160D1*
X2120150Y3136150D1*
X2135160Y3118573D1*
X2147237Y3098867D1*
X2156080Y3077517D1*
X2161477Y3055040D1*
X2163290Y3032000D1*
X2161477Y3008960D1*
X2156080Y2986483D1*
X2147237Y2965133D1*
X2135160Y2945427D1*
X2120150Y2927850D1*
X2102573Y2912840D1*
X2090553Y2905067D1*
X2102573Y2897160D1*
X2120150Y2882150D1*
X2135160Y2864573D1*
X2147237Y2844867D1*
X2156080Y2823517D1*
X2161477Y2801040D1*
X2163290Y2778000D1*
X2161477Y2754960D1*
X2156080Y2732483D1*
X2147237Y2711133D1*
X2135160Y2691427D1*
X2120150Y2673850D1*
X2102573Y2658840D1*
X2090553Y2651067D1*
X2102573Y2643160D1*
X2120150Y2628150D1*
X2135160Y2610573D1*
X2147237Y2590867D1*
X2156080Y2569517D1*
X2161477Y2547040D1*
X2163290Y2524000D1*
X2161477Y2500960D1*
X2156080Y2478483D1*
X2147237Y2457133D1*
X2135160Y2437427D1*
X2120150Y2419850D1*
X2102573Y2404840D1*
X2090553Y2397067D1*
X2102573Y2389160D1*
X2120150Y2374150D1*
X2135160Y2356573D1*
X2147237Y2336867D1*
X2156080Y2315517D1*
X2161477Y2293040D1*
X2163290Y2270000D1*
X2161477Y2246960D1*
X2156080Y2224483D1*
X2147237Y2203133D1*
X2135160Y2183427D1*
X2120150Y2165850D1*
X2102573Y2150840D1*
X2090553Y2143067D1*
X2102573Y2135160D1*
X2120150Y2120150D1*
X2135160Y2102573D1*
X2147237Y2082867D1*
X2156080Y2061517D1*
X2161477Y2039040D1*
X2163290Y2016000D1*
X2161477Y1992960D1*
X2156080Y1970483D1*
X2147237Y1949133D1*
X2135160Y1929427D1*
X2120150Y1911850D1*
X2102573Y1896840D1*
X2082867Y1884763D1*
X2061517Y1875920D1*
X2039040Y1870523D1*
X2016000Y1868710D1*
X1992960Y1870523D1*
X1970483Y1875920D1*
X1949133Y1884763D1*
X1929427Y1896840D1*
X1911850Y1911850D1*
X1896840Y1929427D1*
X1884763Y1949133D1*
X1875920Y1970483D1*
X1870523Y1992960D1*
X1868710Y2016000D1*
X1870523Y2039040D1*
X1875920Y2061517D1*
X1884763Y2082867D1*
X1896840Y2102573D1*
X1911850Y2120150D1*
X1929427Y2135160D1*
X1941447Y2142933D1*
X1929427Y2150840D1*
X1911850Y2165850D1*
X1896840Y2183427D1*
X1884763Y2203133D1*
X1875920Y2224483D1*
X1870523Y2246960D1*
X1868710Y2270000D1*
X1870523Y2293040D1*
X1875920Y2315517D1*
X1884763Y2336867D1*
X1896840Y2356573D1*
X1911850Y2374150D1*
X1929427Y2389160D1*
X1941447Y2396933D1*
X1929427Y2404840D1*
X1911850Y2419850D1*
X1896840Y2437427D1*
X1884763Y2457133D1*
X1875920Y2478483D1*
X1870523Y2500960D1*
X1868710Y2524000D1*
X1870523Y2547040D1*
X1875920Y2569517D1*
X1884763Y2590867D1*
X1896840Y2610573D1*
X1911850Y2628150D1*
X1929427Y2643160D1*
X1941447Y2650933D1*
X1929427Y2658840D1*
X1911850Y2673850D1*
X1896840Y2691427D1*
X1884763Y2711133D1*
X1875920Y2732483D1*
X1870523Y2754960D1*
X1868710Y2778000D1*
X1870523Y2801040D1*
X1875920Y2823517D1*
X1884763Y2844867D1*
X1896840Y2864573D1*
X1911850Y2882150D1*
X1929427Y2897160D1*
X1941447Y2904933D1*
X1929427Y2912840D1*
X1911850Y2927850D1*
X1896840Y2945427D1*
X1894957Y2948243D1*
X1608670Y2948210D1*
X1591807Y2931310D1*
X1591790Y2645077D1*
X1603657Y2636000D1*
X1620000Y2619657D1*
X1633587Y2600960D1*
X1644077Y2580367D1*
X1651220Y2558383D1*
X1654837Y2535557D1*
Y2512443D1*
X1662213Y6692867D2*
X1659610Y6670873D1*
X1655290Y6649150D1*
X1649277Y6627830D1*
X1641610Y6607050D1*
X1632337Y6586937D1*
X1621517Y6567613D1*
X1609210Y6549197D1*
X1595497Y6531800D1*
X1580463Y6515537D1*
X1564200Y6500503D1*
X1546803Y6486790D1*
X1528387Y6474483D1*
X1509063Y6463663D1*
X1488950Y6454390D1*
X1468170Y6446723D1*
X1446850Y6440710D1*
X1425127Y6436390D1*
X1403133Y6433787D1*
X1381000Y6432917D1*
X1358867Y6433787D1*
X1336873Y6436390D1*
X1315150Y6440710D1*
X1293830Y6446723D1*
X1273050Y6454390D1*
X1252937Y6463663D1*
X1233613Y6474483D1*
X1215197Y6486790D1*
X1197800Y6500503D1*
X1181727Y6515360D1*
X1181750Y1580700D1*
X1197800Y1595497D1*
X1215197Y1609210D1*
X1233613Y1621517D1*
X1252937Y1632337D1*
X1273050Y1641610D1*
X1293830Y1649277D1*
X1315150Y1655290D1*
X1336873Y1659610D1*
X1358867Y1662213D1*
X1381000Y1663083D1*
X1403133Y1662213D1*
X1425127Y1659610D1*
X1446850Y1655290D1*
X1468170Y1649277D1*
X1488950Y1641610D1*
X1509063Y1632337D1*
X1528387Y1621517D1*
X1546803Y1609210D1*
X1564200Y1595497D1*
X1580463Y1580463D1*
X1595497Y1564200D1*
X1609210Y1546803D1*
X1621517Y1528387D1*
X1632337Y1509063D1*
X1641610Y1488950D1*
X1649277Y1468170D1*
X1655290Y1446850D1*
X1659610Y1425127D1*
X1662213Y1403133D1*
X1663083Y1381000D1*
X1662213Y1358867D1*
X1659610Y1336873D1*
X1655290Y1315150D1*
X1649277Y1293830D1*
X1641610Y1273050D1*
X1632337Y1252937D1*
X1621517Y1233613D1*
X1609210Y1215197D1*
X1595497Y1197800D1*
X1580640Y1181727D1*
X8166317Y1181750D1*
X8151503Y1197800D1*
X8137790Y1215197D1*
X8125483Y1233613D1*
X8114663Y1252937D1*
X8105390Y1273050D1*
X8097723Y1293830D1*
X8091710Y1315150D1*
X8087390Y1336873D1*
X8084787Y1358867D1*
X8083917Y1381000D1*
X8084787Y1403133D1*
X8087390Y1425127D1*
X8091710Y1446850D1*
X8097723Y1468170D1*
X8105390Y1488950D1*
X8114663Y1509063D1*
X8125483Y1528387D1*
X8137790Y1546803D1*
X8151503Y1564200D1*
X8166537Y1580463D1*
X8182800Y1595497D1*
X8200197Y1609210D1*
X8218613Y1621517D1*
X8237937Y1632337D1*
X8258050Y1641610D1*
X8278830Y1649277D1*
X8300150Y1655290D1*
X8321873Y1659610D1*
X8343867Y1662213D1*
X8366000Y1663083D1*
X8388133Y1662213D1*
X8410127Y1659610D1*
X8431850Y1655290D1*
X8453170Y1649277D1*
X8473950Y1641610D1*
X8494063Y1632337D1*
X8513387Y1621517D1*
X8531803Y1609210D1*
X8549200Y1595497D1*
X8565273Y1580640D1*
X8565250Y4480377D1*
X8545210Y4488583D1*
X8528180Y4499020D1*
X8512993Y4511993D1*
X8500020Y4527180D1*
X8489583Y4544210D1*
X8481940Y4562667D1*
X8477277Y4582087D1*
X8475710Y4602000D1*
X8477277Y4621913D1*
X8481940Y4641333D1*
X8489583Y4659790D1*
X8500020Y4676820D1*
X8512993Y4692007D1*
X8528180Y4704980D1*
X8545210Y4715417D1*
X8565280Y4723517D1*
X8565250Y6515300D1*
X8549200Y6500503D1*
X8531803Y6486790D1*
X8513387Y6474483D1*
X8494063Y6463663D1*
X8473950Y6454390D1*
X8453170Y6446723D1*
X8431850Y6440710D1*
X8410127Y6436390D1*
X8388133Y6433787D1*
X8366000Y6432917D1*
X8343867Y6433787D1*
X8321873Y6436390D1*
X8300150Y6440710D1*
X8278830Y6446723D1*
X8258050Y6454390D1*
X8237937Y6463663D1*
X8218613Y6474483D1*
X8200197Y6486790D1*
X8182800Y6500503D1*
X8166537Y6515537D1*
X8151503Y6531800D1*
X8137790Y6549197D1*
X8125483Y6567613D1*
X8114663Y6586937D1*
X8105390Y6607050D1*
X8097723Y6627830D1*
X8091710Y6649150D1*
X8087390Y6670873D1*
X8084787Y6692867D1*
X8083917Y6715000D1*
X8084787Y6737133D1*
X8087390Y6759127D1*
X8091710Y6780850D1*
X8097723Y6802170D1*
X8105390Y6822950D1*
X8114663Y6843063D1*
X8125483Y6862387D1*
X8137790Y6880803D1*
X8151503Y6898200D1*
X8166360Y6914273D1*
X1580683Y6914250D1*
X1595497Y6898200D1*
X1609210Y6880803D1*
X1621517Y6862387D1*
X1632337Y6843063D1*
X1641610Y6822950D1*
X1649277Y6802170D1*
X1655290Y6780850D1*
X1659610Y6759127D1*
X1662213Y6737133D1*
X1663083Y6715000D1*
X1662213Y6692867D1*
X8329897Y4592013D2*
X8326773Y4572283D1*
X8320600Y4553287D1*
X8311533Y4535490D1*
X8299793Y4519333D1*
X8285667Y4505207D1*
X8269510Y4493467D1*
X8251713Y4484400D1*
X8232717Y4478227D1*
X8212987Y4475103D1*
X8193013D1*
X8173283Y4478227D1*
X8154287Y4484400D1*
X8136490Y4493467D1*
X8120333Y4505207D1*
X8106207Y4519333D1*
X8094467Y4535490D1*
X8085400Y4553287D1*
X8079227Y4572283D1*
X8076103Y4592013D1*
Y4611987D1*
X8079227Y4631717D1*
X8085400Y4650713D1*
X8094467Y4668510D1*
X8106207Y4684667D1*
X8120333Y4698793D1*
X8136490Y4710533D1*
X8154287Y4719600D1*
X8173283Y4725773D1*
X8193013Y4728897D1*
X8212987D1*
X8232717Y4725773D1*
X8251713Y4719600D1*
X8269510Y4710533D1*
X8285667Y4698793D1*
X8299793Y4684667D1*
X8311533Y4668510D1*
X8320600Y4650713D1*
X8326773Y4631717D1*
X8329897Y4611987D1*
Y4592013D1*
X5112713Y1932950D2*
X5114770Y1959170D1*
X5120897Y1984697D1*
X5130943Y2008947D1*
X5144660Y2031330D1*
X5161707Y2051293D1*
X5181670Y2068340D1*
X5204053Y2082057D1*
X5228303Y2092103D1*
X5253830Y2098230D1*
X5280000Y2100290D1*
X5306170Y2098230D1*
X5331697Y2092103D1*
X5355947Y2082057D1*
X5378330Y2068340D1*
X5398293Y2051293D1*
X5415340Y2031330D1*
X5429057Y2008947D1*
X5439103Y1984697D1*
X5445230Y1959170D1*
X5447290Y1933000D1*
X5446773Y1669873D1*
X5442667Y1643947D1*
X5434557Y1618980D1*
X5422637Y1595590D1*
X5407207Y1574353D1*
X5388647Y1555793D1*
X5367410Y1540363D1*
X5344020Y1528443D1*
X5319053Y1520333D1*
X5293127Y1516227D1*
X5266873D1*
X5240947Y1520333D1*
X5215980Y1528443D1*
X5192590Y1540363D1*
X5171353Y1555793D1*
X5152793Y1574353D1*
X5137363Y1595590D1*
X5125443Y1618980D1*
X5117333Y1643947D1*
X5113227Y1669873D1*
X5112710Y1729667D1*
Y1932543D1*
X5465047Y3897743D2*
X5461527Y3875503D1*
X5454567Y3854090D1*
X5444347Y3834027D1*
X5431110Y3815810D1*
X5415190Y3799890D1*
X5405790Y3792333D1*
Y2749170D1*
X5422690Y2732307D1*
X5818300Y2732290D1*
X5814640Y2744783D1*
X5811150Y2766837D1*
Y2789163D1*
X5814640Y2811217D1*
X5821540Y2832453D1*
X5831677Y2852347D1*
X5844803Y2870410D1*
X5860590Y2886197D1*
X5878653Y2899323D1*
X5898547Y2909460D1*
X5919783Y2916360D1*
X5941837Y2919850D1*
X5964163D1*
X5986217Y2916360D1*
X6007453Y2909460D1*
X6027347Y2899323D1*
X6045410Y2886197D1*
X6061197Y2870410D1*
X6074323Y2852347D1*
X6084460Y2832453D1*
X6091360Y2811217D1*
X6094850Y2789163D1*
Y2766837D1*
X6091360Y2744783D1*
X6088000Y2732290D1*
X6580280D1*
X6576640Y2744783D1*
X6573150Y2766837D1*
Y2789163D1*
X6576640Y2811217D1*
X6579450Y2821173D1*
X6327427Y2821467D1*
X6314440Y2823523D1*
X6301933Y2827587D1*
X6290220Y2833557D1*
X6279583Y2841287D1*
X6159257Y2961247D1*
X5976800Y3143703D1*
X5810710Y3143710D1*
Y3428290D1*
X5869137D1*
X5869210Y3695883D1*
X5848447Y3715777D1*
X5826000Y3714010D1*
X5803553Y3715777D1*
X5781660Y3721033D1*
X5760857Y3729650D1*
X5741660Y3741413D1*
X5724537Y3756037D1*
X5709913Y3773160D1*
X5698150Y3792357D1*
X5689533Y3813160D1*
X5684277Y3835053D1*
X5682510Y3857500D1*
X5684407Y3880593D1*
X5612780Y3952223D1*
X5458920Y3952210D1*
X5463723Y3931447D1*
X5465490Y3909000D1*
X5465047Y3897743D1*
X3048047Y6068743D2*
X3044527Y6046503D1*
X3037567Y6025090D1*
X3027347Y6005027D1*
X3014110Y5986810D1*
X2998190Y5970890D1*
X2979973Y5957653D1*
X2959910Y5947433D1*
X2938497Y5940473D1*
X2916257Y5936953D1*
X2893743D1*
X2871503Y5940473D1*
X2850090Y5947433D1*
X2830027Y5957653D1*
X2811810Y5970890D1*
X2795890Y5986810D1*
X2782653Y6005027D1*
X2772433Y6025090D1*
X2765473Y6046503D1*
X2761953Y6068743D1*
Y6091257D1*
X2765473Y6113497D1*
X2772433Y6134910D1*
X2782653Y6154973D1*
X2795890Y6173190D1*
X2811810Y6189110D1*
X2830027Y6202347D1*
X2850090Y6212567D1*
X2871503Y6219527D1*
X2893743Y6223047D1*
X2916257D1*
X2938497Y6219527D1*
X2959910Y6212567D1*
X2979973Y6202347D1*
X2998190Y6189110D1*
X3014110Y6173190D1*
X3027347Y6154973D1*
X3037567Y6134910D1*
X3044527Y6113497D1*
X3048047Y6091257D1*
Y6068743D1*
X8096710Y3673733D2*
Y3690867D1*
X7944317Y3843187D1*
X7969247Y3801250D1*
X8096663Y3673833D1*
X6088043Y6158790D2*
X6349290D1*
Y5874210D1*
X6064710D1*
Y6158790D1*
X6088043D1*
X2162837Y4544443D2*
X2159220Y4521617D1*
X2152077Y4499633D1*
X2141587Y4479040D1*
X2128000Y4460343D1*
X2111657Y4444000D1*
X2092960Y4430413D1*
X2090553Y4429067D1*
X2102573Y4421160D1*
X2120150Y4406150D1*
X2135160Y4388573D1*
X2147237Y4368867D1*
X2156080Y4347517D1*
X2161477Y4325040D1*
X2162843Y4313330D1*
X2226217Y4376713D1*
X2226280Y4663177D1*
X2220157Y4647460D1*
X2213287Y4636250D1*
X2204730Y4626233D1*
X2160860Y4582360D1*
X2162837Y4567557D1*
Y4544443D1*
X4320850Y3770837D2*
X4317360Y3748783D1*
X4313677Y3736270D1*
X4806303Y3736300D1*
X4802640Y3748783D1*
X4799150Y3770837D1*
Y3793163D1*
X4802640Y3815217D1*
X4805450Y3825173D1*
X4340633Y3825210D1*
X4319553Y3804057D1*
X4321290Y3782000D1*
X4320850Y3770837D1*
X7944303Y3826193D2*
X7969247Y3801250D1*
D16*
X3671000Y4036000D3*
D17*
X3417000D3*
D18*
X4433000Y2639000D3*
X4687000D3*
D16*
X3667000Y1762000D3*
D17*
Y2524000D3*
X5699000Y5699000D3*
D16*
Y5953000D3*
D17*
X6461000Y4683000D3*
D16*
X6715000D3*
D17*
X7731000Y5318000D3*
D16*
X7477000D3*
D17*
X7350000Y5826000D3*
D16*
Y6080000D3*
D17*
X5572000Y2778000D3*
D16*
Y3032000D3*
D17*
X6461000Y1952500D3*
D16*
X6207000D3*
D17*
X7350000Y2587500D3*
D16*
X7096000D3*
D17*
X7223000Y3095500D3*
D16*
Y3349500D3*
D17*
X1508000Y2524000D3*
D16*
Y2270000D3*
D17*
Y4810000D3*
D16*
Y5064000D3*
D22*
X4810000Y1508000D3*
D23*
Y2108000D3*
D24*
X5280000Y1808000D3*
D25*
X5322000Y4925000D3*
D26*
Y3909000D3*
D27*
X4302000Y4683000D3*
D28*
X4552000Y5683000D3*
X4802000Y4683000D3*
D25*
X7096000Y6588000D3*
D26*
X6080000D3*
D25*
X6842000Y3857500D3*
D26*
X5826000D3*
D25*
X2905000Y6080000D3*
D26*
X1889000D3*
D29*
X8239000Y3667000D3*
D30*
Y3413000D3*
Y3159000D3*
Y2905000D3*
Y2651000D3*
D29*
X6207000Y6016500D3*
D30*
Y5762500D3*
Y5508500D3*
Y5254500D3*
X6969000D3*
Y5508500D3*
Y5762500D3*
Y6016500D3*
D29*
X5953000Y3286000D3*
D30*
Y3032000D3*
Y2778000D3*
Y2524000D3*
X6715000D3*
Y2778000D3*
Y3032000D3*
Y3286000D3*
D16*
X2016000Y5318000D3*
D17*
Y5064000D3*
Y4810000D3*
Y4556000D3*
Y4302000D3*
Y4048000D3*
Y3794000D3*
Y3540000D3*
Y3286000D3*
Y3032000D3*
Y2778000D3*
Y2524000D3*
Y2270000D3*
Y2016000D3*
X2778000D3*
Y2270000D3*
Y2524000D3*
Y2778000D3*
Y3032000D3*
Y3286000D3*
Y3540000D3*
Y3794000D3*
Y4048000D3*
Y4302000D3*
Y4556000D3*
Y4810000D3*
Y5064000D3*
Y5318000D3*
D29*
X4179000Y4036000D3*
D31*
Y3782000D3*
Y3528000D3*
Y3274000D3*
X4941000D3*
Y3528000D3*
Y3782000D3*
Y4036000D3*
M02*
