G04 DipTrace 3.3.0.1*
G04 BottomMask.gbr*
%MOMM*%
G04 #@! TF.FileFunction,Soldermask,Bot*
G04 #@! TF.Part,Single*
%ADD34C,3.0*%
%ADD35C,1.2*%
%ADD44C,1.7*%
%ADD46C,1.7*%
%ADD48R,1.7X1.7*%
%ADD50C,2.4*%
%ADD52R,2.4X2.4*%
%ADD54C,1.724*%
%ADD56C,1.724*%
%ADD58O,2.2X4.7*%
%ADD60O,5.2X2.2*%
%ADD62O,4.7X2.2*%
%ADD70C,1.85*%
%ADD72C,1.8*%
%ADD73R,1.8X1.8*%
%FSLAX35Y35*%
G04*
G71*
G90*
G75*
G01*
G04 BotMask*
%LPD*%
D73*
X3671000Y4036000D3*
D72*
X3417000D3*
D70*
X4433000Y2639000D3*
X4687000D3*
D73*
X3667000Y1762000D3*
D72*
Y2524000D3*
X5699000Y5699000D3*
D73*
Y5953000D3*
D72*
X6461000Y4683000D3*
D73*
X6715000D3*
D72*
X7731000Y5318000D3*
D73*
X7477000D3*
D72*
X7350000Y5826000D3*
D73*
Y6080000D3*
D72*
X5572000Y2778000D3*
D73*
Y3032000D3*
D72*
X6461000Y1952500D3*
D73*
X6207000D3*
D72*
X7350000Y2587500D3*
D73*
X7096000D3*
D72*
X7223000Y3095500D3*
D73*
Y3349500D3*
D72*
X1508000Y2524000D3*
D73*
Y2270000D3*
D72*
Y4810000D3*
D73*
Y5064000D3*
D34*
X1381000Y6715000D3*
X8366000D3*
X1381000Y1381000D3*
X8366000D3*
D35*
X8603000Y4602000D3*
X8203000D3*
D62*
X4810000Y1508000D3*
D60*
Y2108000D3*
D58*
X5280000Y1808000D3*
D56*
X5322000Y4925000D3*
D54*
Y3909000D3*
D52*
X4302000Y4683000D3*
D50*
X4552000Y5683000D3*
X4802000Y4683000D3*
D56*
X7096000Y6588000D3*
D54*
X6080000D3*
D56*
X6842000Y3857500D3*
D54*
X5826000D3*
D56*
X2905000Y6080000D3*
D54*
X1889000D3*
D48*
X8239000Y3667000D3*
D46*
Y3413000D3*
Y3159000D3*
Y2905000D3*
Y2651000D3*
D48*
X6207000Y6016500D3*
D46*
Y5762500D3*
Y5508500D3*
Y5254500D3*
X6969000D3*
Y5508500D3*
Y5762500D3*
Y6016500D3*
D48*
X5953000Y3286000D3*
D46*
Y3032000D3*
Y2778000D3*
Y2524000D3*
X6715000D3*
Y2778000D3*
Y3032000D3*
Y3286000D3*
D73*
X2016000Y5318000D3*
D72*
Y5064000D3*
Y4810000D3*
Y4556000D3*
Y4302000D3*
Y4048000D3*
Y3794000D3*
Y3540000D3*
Y3286000D3*
Y3032000D3*
Y2778000D3*
Y2524000D3*
Y2270000D3*
Y2016000D3*
X2778000D3*
Y2270000D3*
Y2524000D3*
Y2778000D3*
Y3032000D3*
Y3286000D3*
Y3540000D3*
Y3794000D3*
Y4048000D3*
Y4302000D3*
Y4556000D3*
Y4810000D3*
Y5064000D3*
Y5318000D3*
D48*
X4179000Y4036000D3*
D44*
Y3782000D3*
Y3528000D3*
Y3274000D3*
X4941000D3*
Y3528000D3*
Y3782000D3*
Y4036000D3*
M02*
