G04 DipTrace 3.3.0.1*
G04 TopSilk.gbr*
%MOMM*%
G04 #@! TF.FileFunction,Legend,Top*
G04 #@! TF.Part,Single*
%ADD10C,0.25*%
%ADD12C,0.0762*%
%ADD32O,0.39347X0.3915*%
%ADD75C,0.19608*%
%ADD76C,0.23529*%
%ADD77C,0.11765*%
%ADD78C,0.15686*%
%FSLAX35Y35*%
G04*
G71*
G90*
G75*
G01*
G04 TopSilk*
%LPD*%
X3873898Y4066023D2*
D10*
Y4005977D1*
X3903918Y4036000D2*
X3843940D1*
X3290015D2*
X3290634Y4053718D1*
X3292486Y4071350D1*
X3295564Y4088810D1*
X3299851Y4106012D1*
X3305328Y4122873D1*
X3311967Y4139311D1*
X3319736Y4155246D1*
X3328597Y4170599D1*
X3338508Y4185297D1*
X3349419Y4199268D1*
X3361278Y4212443D1*
X3374026Y4224759D1*
X3387603Y4236155D1*
X3401941Y4246576D1*
X3416970Y4255970D1*
X3432618Y4264294D1*
X3448809Y4271505D1*
X3465463Y4277568D1*
X3482499Y4282455D1*
X3499834Y4286141D1*
X3517385Y4288609D1*
X3535064Y4289845D1*
X3552787D1*
X3570466Y4288609D1*
X3588017Y4286141D1*
X3605352Y4282455D1*
X3622388Y4277568D1*
X3639042Y4271505D1*
X3655232Y4264294D1*
X3670881Y4255970D1*
X3685910Y4246576D1*
X3700248Y4236155D1*
X3713825Y4224759D1*
X3726573Y4212443D1*
X3738432Y4199268D1*
X3749343Y4185297D1*
X3759254Y4170599D1*
X3768115Y4155246D1*
X3775884Y4139311D1*
X3782523Y4122873D1*
X3788000Y4106012D1*
X3792287Y4088810D1*
X3795365Y4071350D1*
X3797217Y4053718D1*
X3797836Y4036000D1*
X3797217Y4018282D1*
X3795365Y4000650D1*
X3792287Y3983190D1*
X3788000Y3965988D1*
X3782523Y3949127D1*
X3775884Y3932689D1*
X3768115Y3916754D1*
X3759254Y3901401D1*
X3749343Y3886703D1*
X3738432Y3872732D1*
X3726573Y3859557D1*
X3713825Y3847241D1*
X3700248Y3835845D1*
X3685910Y3825424D1*
X3670881Y3816030D1*
X3655232Y3807706D1*
X3639042Y3800495D1*
X3622388Y3794432D1*
X3605352Y3789545D1*
X3588017Y3785859D1*
X3570466Y3783391D1*
X3552787Y3782155D1*
X3535064D1*
X3517385Y3783391D1*
X3499834Y3785859D1*
X3482499Y3789545D1*
X3465463Y3794432D1*
X3448809Y3800495D1*
X3432618Y3807706D1*
X3416970Y3816030D1*
X3401941Y3825424D1*
X3387603Y3835845D1*
X3374026Y3847241D1*
X3361278Y3859557D1*
X3349419Y3872732D1*
X3338508Y3886703D1*
X3328597Y3901401D1*
X3319736Y3916754D1*
X3311967Y3932689D1*
X3305328Y3949127D1*
X3299851Y3965988D1*
X3295564Y3983190D1*
X3292486Y4000650D1*
X3290634Y4018282D1*
X3290015Y4036000D1*
X4305000Y2479000D2*
X4815000D1*
X4305000Y2799000D2*
X4815000D1*
X4305000Y2479000D2*
Y2799000D1*
X4815000Y2479000D2*
Y2799000D1*
X3729992Y1508461D2*
X3604008D1*
X3667000Y1444517D2*
Y1571199D1*
X3159000Y2143020D2*
G02X3159000Y2143020I508000J0D01*
G01*
X5546600Y6003648D2*
Y5648352D1*
X5851400Y6003648D2*
Y5648352D1*
X5546600D2*
G03X5851400Y5648352I152400J-152D01*
G01*
Y6003648D2*
G03X5546600Y6003648I-152400J152D01*
G01*
X6765648Y4835400D2*
X6410352D1*
X6765648Y4530600D2*
X6410352D1*
Y4835400D2*
G03X6410352Y4530600I-152J-152400D01*
G01*
X6765648D2*
G03X6765648Y4835400I152J152400D01*
G01*
X7426352Y5165600D2*
X7781648D1*
X7426352Y5470400D2*
X7781648D1*
Y5165600D2*
G03X7781648Y5470400I152J152400D01*
G01*
X7426352D2*
G03X7426352Y5165600I-152J-152400D01*
G01*
X7197600Y6130648D2*
Y5775352D1*
X7502400Y6130648D2*
Y5775352D1*
X7197600D2*
G03X7502400Y5775352I152400J-152D01*
G01*
Y6130648D2*
G03X7197600Y6130648I-152400J152D01*
G01*
X5419600Y3082648D2*
Y2727352D1*
X5724400Y3082648D2*
Y2727352D1*
X5419600D2*
G03X5724400Y2727352I152400J-152D01*
G01*
Y3082648D2*
G03X5419600Y3082648I-152400J152D01*
G01*
X6156352Y1800100D2*
X6511648D1*
X6156352Y2104900D2*
X6511648D1*
Y1800100D2*
G03X6511648Y2104900I152J152400D01*
G01*
X6156352D2*
G03X6156352Y1800100I-152J-152400D01*
G01*
X7045352Y2435100D2*
X7400648D1*
X7045352Y2739900D2*
X7400648D1*
Y2435100D2*
G03X7400648Y2739900I152J152400D01*
G01*
X7045352D2*
G03X7045352Y2435100I-152J-152400D01*
G01*
X7070600Y3400148D2*
Y3044852D1*
X7375400Y3400148D2*
Y3044852D1*
X7070600D2*
G03X7375400Y3044852I152400J-152D01*
G01*
Y3400148D2*
G03X7070600Y3400148I-152400J152D01*
G01*
X1660400Y2219352D2*
Y2574648D1*
X1355600Y2219352D2*
Y2574648D1*
X1660400D2*
G03X1355600Y2574648I-152400J152D01*
G01*
Y2219352D2*
G03X1660400Y2219352I152400J-152D01*
G01*
X1355600Y5114648D2*
Y4759352D1*
X1660400Y5114648D2*
Y4759352D1*
X1355600D2*
G03X1660400Y4759352I152400J-152D01*
G01*
Y5114648D2*
G03X1355600Y5114648I-152400J152D01*
G01*
X8753012Y4351998D2*
Y4852002D1*
X8347886D2*
X8148075D1*
X7857894D2*
X7803109D1*
Y4756972D1*
X8753012Y4852002D2*
X8658035D1*
X8347886Y4351998D2*
X8148075D1*
X7857894D2*
X7803109D1*
Y4761960D1*
X8753012Y4351998D2*
X8658035D1*
X9003000Y4401964D2*
Y4802036D1*
Y4401964D2*
X8753012Y4402050D1*
X9003000Y4802036D2*
X8753012Y4801950D1*
X7803109Y4772022D2*
X7722980D1*
Y4852002D1*
X4360000Y738000D2*
X5260048D1*
Y1537974D1*
Y2078052D2*
Y2178012D1*
X5085016D1*
X4535032D2*
X4360000D1*
Y738000D1*
X5195000Y4163457D2*
Y4670543D1*
X5449000D2*
X5195000D1*
X5449000Y4163457D2*
Y4670543D1*
Y4163457D2*
X5195000D1*
X4082000Y5333060D2*
G02X4271974Y5652944I481615J-69670D01*
G01*
X4472006Y4703052D2*
X4631994D1*
X4082000D2*
X4152030D1*
X4951970D2*
X5022000D1*
Y5337940D2*
G03X4857030Y5652944I-515718J-69385D01*
G01*
X4082000Y4703052D2*
Y5333060D1*
X5022000Y4703052D2*
Y5342942D1*
X4851954Y5652944D2*
X4722046D1*
X4271974D2*
X4381954D1*
X6334457Y6715000D2*
X6841543D1*
Y6461000D2*
Y6715000D1*
X6334457Y6461000D2*
X6841543D1*
X6334457D2*
Y6715000D1*
X6080457Y3984500D2*
X6587543D1*
Y3730500D2*
Y3984500D1*
X6080457Y3730500D2*
X6587543D1*
X6080457D2*
Y3984500D1*
X2143457Y6207000D2*
X2650543D1*
Y5953000D2*
Y6207000D1*
X2143457Y5953000D2*
X2650543D1*
X2143457D2*
Y6207000D1*
X8112009Y3794000D2*
X8366006D1*
Y2524000D1*
X8112009D1*
Y3794000D1*
X6651475Y6143500D2*
X6841992D1*
X6651475D2*
G02X6524525Y6143500I-63475J-25D01*
G01*
X6841992D2*
Y5127500D1*
X6524525Y6143500D2*
X6334008D1*
Y5127500D1*
X6841992D2*
X6334008D1*
X6397475Y3413000D2*
X6587992D1*
X6397475D2*
G02X6270525Y3413000I-63475J-25D01*
G01*
X6587992D2*
Y2397000D1*
X6270525Y3413000D2*
X6080008D1*
Y2397000D1*
X6587992D2*
X6080008D1*
X2136996Y5467000D2*
Y1867000D1*
X2657004Y5467000D2*
Y1867000D1*
X2136996D2*
X2657004D1*
X2136996Y5467000D2*
X2336978D1*
X2657004D2*
X2457022D1*
X2336978D2*
G03X2457022Y5467000I60022J263D01*
G01*
X4820011Y4155000D2*
Y3155000D1*
X4299989D2*
X4820011D1*
X4299989Y4155000D2*
Y3155000D1*
Y4155000D2*
X4499990D1*
X4820011D2*
X4620010D1*
X4499990D2*
G03X4620010Y4155000I60010J10D01*
G01*
D32*
X1351763Y2939275D3*
X1337970Y3064000D2*
D10*
X1263000D1*
X1753000Y4204000D2*
X1678030D1*
X1753000Y3064000D2*
Y4204000D1*
Y3064000D2*
X1678030D1*
X1337970Y4204000D2*
X1263000D1*
Y3064000D2*
Y4204000D1*
X3882900Y6885180D2*
D12*
X3890520D1*
X3974340D2*
X3989580D1*
X3837180Y6877560D2*
X3852420D1*
X3876778D2*
X3894065D1*
X3928620D2*
X3943860D1*
X3968121D2*
X3993097D1*
X3839785Y6869940D2*
X3852420D1*
X3872321D2*
X3896421D1*
X3925048D2*
X3945038D1*
X3963175D2*
X3995256D1*
X3842053Y6862320D2*
X3852420D1*
X3869769D2*
X3898140D1*
X3921000D2*
X3946928D1*
X3959100D2*
X3978827D1*
X3989580D2*
X3996073D1*
X3843497Y6854700D2*
X3852420D1*
X3868561D2*
X3963356D1*
X3981960D2*
X3995388D1*
X3844244Y6847080D2*
X3852420D1*
X3868316D2*
X3928620D1*
X3943860D2*
X3956693D1*
X3974340D2*
X3992987D1*
X3844581Y6839460D2*
X3852420D1*
X3869281D2*
X3875280D1*
X3890520D2*
X3928620D1*
X3943860D2*
X3951480D1*
X3966720D2*
X3989580D1*
X3684780Y6831840D2*
X3700020D1*
X3844723D2*
X3852420D1*
X3871804D2*
X3993628D1*
X4134360D2*
X4149600D1*
X3678656Y6824220D2*
X3700429D1*
X3844800D2*
X3852420D1*
X3875280D2*
X3898140D1*
X3921000D2*
X3943860D1*
X3959100D2*
X3997200D1*
X4133951D2*
X4156636D1*
X3674172Y6816600D2*
X3701419D1*
X4132961D2*
X4161849D1*
X3671446Y6808980D2*
X3706881D1*
X4127499D2*
X4141980D1*
X4157220D2*
X4163562D1*
X3600960Y6801360D2*
D3*
X3669540D2*
X3719824D1*
X4114556D2*
X4164840D1*
X4233420D2*
D3*
X3601020Y6793740D2*
X3734249D1*
X3806700D2*
X4035300D1*
X4100131D2*
X4233420D1*
X3601615Y6786120D2*
X3747334D1*
X3806700D2*
X4035300D1*
X4087046D2*
X4233070D1*
X3603044Y6778500D2*
X3652773D1*
X3690843D2*
X3757944D1*
X3806700D2*
X3814320D1*
X4020060D2*
X4035300D1*
X4076436D2*
X4143798D1*
X4181607D2*
X4232259D1*
X3609423Y6770880D2*
X3657835D1*
X3695816D2*
X3766165D1*
X3806700D2*
X3814320D1*
X4020060D2*
X4035300D1*
X4068215D2*
X4139368D1*
X4176545D2*
X4227965D1*
X3617177Y6763260D2*
X3659316D1*
X3696403D2*
X3707320D1*
X3722560D2*
X3746918D1*
X3762187D2*
X3772359D1*
X3806700D2*
X3814320D1*
X3905760D2*
X3928620D1*
X4020060D2*
X4035300D1*
X4062021D2*
X4081340D1*
X4097467D2*
X4111820D1*
X4127060D2*
X4139919D1*
X4175064D2*
X4222199D1*
X3623792Y6755640D2*
X3657262D1*
X3691381D2*
X3706598D1*
X3728906D2*
X3748807D1*
X3764344D2*
X3777035D1*
X3806700D2*
X3814320D1*
X3902243D2*
X3932137D1*
X4020060D2*
X4035300D1*
X4057345D2*
X4074965D1*
X4092034D2*
X4105474D1*
X4127782D2*
X4144398D1*
X4177118D2*
X4216662D1*
X3628654Y6748020D2*
X3654300D1*
X3684780D2*
X3703190D1*
X3733431D2*
X3750780D1*
X3767288D2*
X3780337D1*
X3806700D2*
X3814320D1*
X3900054D2*
X3934326D1*
X4020060D2*
X4035300D1*
X4054043D2*
X4070149D1*
X4087656D2*
X4100949D1*
X4131190D2*
X4149600D1*
X4180080D2*
X4212318D1*
X3630133Y6740400D2*
X3693185D1*
X3736003D2*
X3752114D1*
X3770418D2*
X3782240D1*
X3806700D2*
X3814320D1*
X3898947D2*
X3905760D1*
X3928620D2*
X3935463D1*
X4020060D2*
X4035300D1*
X4052140D2*
X4066391D1*
X4084464D2*
X4098377D1*
X4141195D2*
X4208754D1*
X3547620Y6732780D2*
X3585720D1*
X3630901D2*
X3679270D1*
X3737216D2*
X3752793D1*
X3772812D2*
X3783173D1*
X3806700D2*
X3814320D1*
X3898455D2*
X3936245D1*
X4020060D2*
X4035300D1*
X4051207D2*
X4062484D1*
X4082630D2*
X4097164D1*
X4155110D2*
X4206020D1*
X4248660D2*
X4286760D1*
X3541527Y6725160D2*
X3595650D1*
X3631235D2*
X3664603D1*
X3737485D2*
X3752848D1*
X3774152D2*
X3783582D1*
X3806700D2*
X3814320D1*
X3898256D2*
X3937621D1*
X4020060D2*
X4035300D1*
X4050798D2*
X4058160D1*
X4081978D2*
X4096924D1*
X4169777D2*
X4204366D1*
X4238895D2*
X4292853D1*
X3536465Y6717540D2*
X3603272D1*
X3631366D2*
X3653162D1*
X3736698D2*
X3751981D1*
X3772354D2*
X3783750D1*
X3806700D2*
X3814320D1*
X3898179D2*
X3913380D1*
X3928620D2*
X3940303D1*
X4020060D2*
X4035300D1*
X4050630D2*
X4061997D1*
X4082575D2*
X4097979D1*
X4181218D2*
X4203495D1*
X4231594D2*
X4297915D1*
X3535016Y6709920D2*
X3579248D1*
X3591842D2*
X3608758D1*
X3631415D2*
X3644667D1*
X3734626D2*
X3749916D1*
X3769379D2*
X3783840D1*
X3806700D2*
X3814320D1*
X3898140D2*
X3905760D1*
X3928620D2*
X3943860D1*
X4020060D2*
X4035300D1*
X4050540D2*
X4065459D1*
X4084530D2*
X4100993D1*
X4189713D2*
X4202940D1*
X4225800D2*
X4242538D1*
X4256280D2*
X4299483D1*
X3537324Y6702300D2*
X3547620D1*
X3562860D2*
X3580869D1*
X3596269D2*
X3612411D1*
X3631431D2*
X3642235D1*
X3731143D2*
X3746785D1*
X3765098D2*
X4069636D1*
X4087619D2*
X4106012D1*
X4192145D2*
X4238111D1*
X4256280D2*
X4271520D1*
X4286760D2*
X4297936D1*
X3540495Y6694680D2*
X3581841D1*
X3599247D2*
X3614206D1*
X3631407D2*
X3643794D1*
X3725574D2*
X3742742D1*
X3759529D2*
X3814320D1*
X3829560D2*
X4004820D1*
X4020060D2*
X4075019D1*
X4091646D2*
X4112376D1*
X4190586D2*
X4235133D1*
X4256340D2*
X4263900D1*
X4279140D2*
X4295154D1*
X3543378Y6687060D2*
X3581059D1*
X3599331D2*
X3614200D1*
X3631141D2*
X3648738D1*
X3717353D2*
X3738120D1*
X3753360D2*
X3776220D1*
X3799080D2*
X3814320D1*
X3837180D2*
X3997200D1*
X4020060D2*
X4035300D1*
X4058160D2*
X4081020D1*
X4096260D2*
X4119437D1*
X4185642D2*
X4203260D1*
X4219387D2*
X4235049D1*
X4256920D2*
X4291282D1*
X3542908Y6679440D2*
X3578619D1*
X3596143D2*
X3612508D1*
X3630141D2*
X3654300D1*
X3707640D2*
X3768600D1*
X3806700D2*
X3814320D1*
X3844800D2*
X3867660D1*
X3890520D2*
X3898140D1*
X3936553D2*
X3943860D1*
X3966720D2*
X3989580D1*
X4020060D2*
X4035300D1*
X4065780D2*
X4126740D1*
X4180080D2*
X4204505D1*
X4221574D2*
X4238237D1*
X4258304D2*
X4286760D1*
X3541558Y6671820D2*
X3574906D1*
X3591152D2*
X3609457D1*
X3628048D2*
X3814320D1*
X3852390D2*
X3898170D1*
X3937736D2*
X3981990D1*
X4020060D2*
X4207332D1*
X4224816D2*
X4243228D1*
X4264242D2*
X4302000D1*
X3540000Y6664200D2*
X3570480D1*
X3584816D2*
X3605099D1*
X3625094D2*
X3715260D1*
X3745740D2*
X3814320D1*
X3859713D2*
X3898460D1*
X3940342D2*
X3974667D1*
X4020060D2*
X4088640D1*
X4119120D2*
X4211379D1*
X4229244D2*
X4249564D1*
X4271520D2*
X4294380D1*
X3577781Y6656580D2*
X3599368D1*
X3621642D2*
X3640267D1*
X3669540D2*
X3753360D1*
X3783840D2*
X3814320D1*
X3866064D2*
X3899638D1*
X3943860D2*
X3968316D1*
X4020060D2*
X4050540D1*
X4081020D2*
X4164840D1*
X4194142D2*
X4215662D1*
X4235000D2*
X4256599D1*
X3570680Y6648960D2*
X3592676D1*
X3617743D2*
X3634804D1*
X3684780D2*
X3791460D1*
X3806700D2*
X3814320D1*
X3870590D2*
X3902243D1*
X3936240D2*
X3963790D1*
X4020060D2*
X4149600D1*
X4199843D2*
X4219791D1*
X4241700D2*
X4263730D1*
X3564412Y6641340D2*
X3585492D1*
X3613265D2*
X3630128D1*
X3671067D2*
X3700020D1*
X3735342D2*
X3814320D1*
X3873133D2*
X3905760D1*
X3928620D2*
X3961247D1*
X4020060D2*
X4100215D1*
X4134360D2*
X4164200D1*
X4205223D2*
X4223775D1*
X4248887D2*
X4270266D1*
X3559915Y6633720D2*
X3578325D1*
X3608354D2*
X3625698D1*
X3659289D2*
X3692400D1*
X3765182D2*
X3814320D1*
X3874108D2*
X3960272D1*
X4020060D2*
X4072265D1*
X4141980D2*
X4176891D1*
X4210507D2*
X4227678D1*
X4256055D2*
X4275704D1*
X3557382Y6626100D2*
X3571944D1*
X3603494D2*
X3621008D1*
X3650385D2*
X3713177D1*
X3789211D2*
X3814320D1*
X3873674D2*
X3892018D1*
X3905760D2*
X3936240D1*
X3951510D2*
X3960706D1*
X4020060D2*
X4050410D1*
X4123517D2*
X4187373D1*
X4215326D2*
X4231722D1*
X4262436D2*
X4279824D1*
X3556440Y6618480D2*
X3566952D1*
X3598541D2*
X3616041D1*
X3643621D2*
X3729631D1*
X3799728D2*
X3814320D1*
X3872063D2*
X3887531D1*
X3913380D2*
X3928620D1*
X3951778D2*
X3962317D1*
X4020060D2*
X4041262D1*
X4108355D2*
X4191443D1*
X4219668D2*
X4236180D1*
X4267428D2*
X4282873D1*
X3556485Y6610860D2*
X3562860D1*
X3593340D2*
X3611384D1*
X3641264D2*
X3742018D1*
X3803460D2*
X3814320D1*
X3870189D2*
X3884712D1*
X3952749D2*
X3964191D1*
X4020060D2*
X4038061D1*
X4095586D2*
X4193662D1*
X4223702D2*
X4241040D1*
X4271520D2*
X4282378D1*
X3559519Y6603240D2*
X3607361D1*
X3639994D2*
X3656443D1*
X3730500D2*
X3751828D1*
X3805377D2*
X3814320D1*
X3868889D2*
X3882503D1*
X3954574D2*
X3965491D1*
X4020060D2*
X4036424D1*
X4084539D2*
X4103880D1*
X4186173D2*
X4194668D1*
X4227342D2*
X4278156D1*
X3566956Y6595620D2*
X3604317D1*
X3639425D2*
X3664544D1*
X3738120D2*
X3760053D1*
X3806201D2*
X3814350D1*
X3868192D2*
X3880141D1*
X3956528D2*
X3966188D1*
X4020030D2*
X4035723D1*
X4074987D2*
X4096260D1*
X4175181D2*
X4195079D1*
X4230197D2*
X4271447D1*
X3575896Y6588000D2*
X3602509D1*
X3639194D2*
X3676125D1*
X3745740D2*
X3766501D1*
X3806492D2*
X3814677D1*
X3867872D2*
X3877955D1*
X3957862D2*
X3966508D1*
X4019733D2*
X4035451D1*
X4066389D2*
X4088640D1*
X4162117D2*
X4195235D1*
X4231923D2*
X4263132D1*
X3583899Y6580380D2*
X3601609D1*
X3639107D2*
X3688360D1*
X3753360D2*
X3771289D1*
X3806319D2*
X3815481D1*
X3867735D2*
X3876429D1*
X3958609D2*
X3966645D1*
X4018434D2*
X4035322D1*
X4058160D2*
X4081020D1*
X4148827D2*
X4195291D1*
X4232789D2*
X4255423D1*
X3589325Y6572760D2*
X3601213D1*
X3639076D2*
X3699090D1*
X3760980D2*
X3771230D1*
X3805182D2*
X3820125D1*
X3867660D2*
X3875280D1*
X3959100D2*
X3966720D1*
X4015967D2*
X4034960D1*
X4061968D2*
X4073400D1*
X4136862D2*
X4171922D1*
X4187700D2*
X4195310D1*
X4233173D2*
X4248660D1*
X3532380Y6565140D2*
X3601053D1*
X3639065D2*
X3654300D1*
X3681785D2*
X3703465D1*
X3757172D2*
X3770062D1*
X3802591D2*
X3827433D1*
X4008958D2*
X4034141D1*
X4065133D2*
X4078095D1*
X4130874D2*
X4157342D1*
X4187700D2*
X4195317D1*
X4233329D2*
X4309620D1*
X3532380Y6557520D2*
X3600991D1*
X3639062D2*
X3654300D1*
X3692087D2*
X3705853D1*
X3754037D2*
X3768282D1*
X3799080D2*
X3837066D1*
X3999314D2*
X4030285D1*
X4068067D2*
X4082143D1*
X4128676D2*
X4144687D1*
X4187700D2*
X4195319D1*
X4233389D2*
X4306103D1*
X3532380Y6549900D2*
X3540000D1*
X3639060D2*
X3654300D1*
X3696149D2*
X3706937D1*
X3751371D2*
X3766340D1*
X3814320D2*
X3848581D1*
X3987140D2*
X4021191D1*
X4070512D2*
X4084955D1*
X4127537D2*
X4138562D1*
X4187700D2*
X4195320D1*
X4294380D2*
X4303914D1*
X3532380Y6542280D2*
X3540000D1*
X3610390D2*
X3654300D1*
X3698364D2*
X3707469D1*
X3749235D2*
X3764871D1*
X3829560D2*
X3861743D1*
X3973346D2*
X4009528D1*
X4072040D2*
X4086513D1*
X4126953D2*
X4136326D1*
X4187700D2*
X4224280D1*
X4294380D2*
X4302807D1*
X3532380Y6534660D2*
X3540000D1*
X3588941D2*
X3654300D1*
X3699369D2*
X3708471D1*
X3750177D2*
X3768651D1*
X3844770D2*
X3875981D1*
X3958721D2*
X3996009D1*
X4072824D2*
X4084949D1*
X4125926D2*
X4135168D1*
X4187700D2*
X4246712D1*
X4294380D2*
X4302315D1*
X3532380Y6527040D2*
X3540000D1*
X3573025D2*
X3654300D1*
X3699868D2*
X3710513D1*
X3751983D2*
X3778511D1*
X3859742D2*
X3890774D1*
X3943730D2*
X3981505D1*
X4073188D2*
X4082101D1*
X4123871D2*
X4134577D1*
X4187700D2*
X4262145D1*
X4294380D2*
X4302117D1*
X3532380Y6519420D2*
X3540000D1*
X3567273D2*
X3600960D1*
X3700858D2*
X3718308D1*
X3757555D2*
X3787655D1*
X3874006D2*
X3905760D1*
X3928620D2*
X3966555D1*
X4035300D2*
X4077927D1*
X4116073D2*
X4133547D1*
X4233420D2*
X4271945D1*
X4294380D2*
X4302041D1*
X3532380Y6511800D2*
X3540000D1*
X3562860D2*
X3600960D1*
X3702894D2*
X3727956D1*
X3772891D2*
X3794708D1*
X3887356D2*
X3951422D1*
X4035300D2*
X4065508D1*
X4106424D2*
X4131491D1*
X4233420D2*
X4279140D1*
X4294380D2*
X4302014D1*
X3532380Y6504180D2*
X3540000D1*
X3593340D2*
X3600960D1*
X3710689D2*
X3738120D1*
X3791460D2*
X3797019D1*
X3900328D2*
X3936221D1*
X4035300D2*
X4050540D1*
X4096260D2*
X4123693D1*
X4233420D2*
X4248660D1*
X4294380D2*
X4302005D1*
X3532380Y6496560D2*
X3600960D1*
X3720337D2*
X3798285D1*
X3913380D2*
X3921000D1*
X4035300D2*
X4114044D1*
X4233420D2*
X4302001D1*
X3532380Y6488940D2*
X3600960D1*
X3730500D2*
X3799080D1*
X4035300D2*
X4103880D1*
X4233420D2*
X4302000D1*
X3791460Y6405120D2*
X3837180D1*
X3875280D2*
X3951480D1*
X3966720D2*
X3981960D1*
X4027680D2*
X4042920D1*
X3791460Y6397500D2*
X3846820D1*
X3875280D2*
X3951480D1*
X3966720D2*
X3981960D1*
X4027680D2*
X4042920D1*
X3791460Y6389880D2*
X3854576D1*
X3875280D2*
X3951480D1*
X3966720D2*
X3981960D1*
X4027680D2*
X4042920D1*
X3791460Y6382260D2*
X3806700D1*
X3837180D2*
X3857372D1*
X3905760D2*
X3921000D1*
X3966720D2*
X3981960D1*
X4027680D2*
X4042920D1*
X3791460Y6374640D2*
X3806700D1*
X3844800D2*
X3858595D1*
X3905760D2*
X3921000D1*
X3966720D2*
X3981960D1*
X4027680D2*
X4042920D1*
X3791460Y6367020D2*
X3858730D1*
X3905760D2*
X3921000D1*
X3966720D2*
X3981990D1*
X4027650D2*
X4042920D1*
X3791460Y6359400D2*
X3855720D1*
X3905760D2*
X3921000D1*
X3966720D2*
X3982280D1*
X4027360D2*
X4042920D1*
X3791460Y6351780D2*
X3852213D1*
X3905760D2*
X3921000D1*
X3966750D2*
X3983458D1*
X4026182D2*
X4042890D1*
X3791460Y6344160D2*
X3849219D1*
X3905760D2*
X3921000D1*
X3967077D2*
X3986063D1*
X4023577D2*
X4042593D1*
X3791460Y6336540D2*
X3806700D1*
X3821627D2*
X3850045D1*
X3905760D2*
X3921000D1*
X3967881D2*
X3989580D1*
X4020060D2*
X4041326D1*
X3791460Y6328920D2*
X3806700D1*
X3828064D2*
X3853553D1*
X3905760D2*
X3921000D1*
X3971698D2*
X4038259D1*
X3791460Y6321300D2*
X3806700D1*
X3833078D2*
X3856961D1*
X3905760D2*
X3921000D1*
X3980062D2*
X4033386D1*
X3791460Y6313680D2*
X3806700D1*
X3837180D2*
X3860040D1*
X3905760D2*
X3921000D1*
X3989580D2*
X4027680D1*
X3410460Y6245100D2*
X3463800D1*
X3479040D2*
X3494280D1*
X3547620D2*
X3600960D1*
X3616200D2*
X3631440D1*
X3654300D2*
X3806700D1*
X3844800D2*
X3882900D1*
X3913380D2*
X3928620D1*
X3966720D2*
X3981960D1*
X3997200D2*
X4012440D1*
X4027680D2*
X4042920D1*
X4073400D2*
X4096260D1*
X4126740D2*
X4149600D1*
X4195320D2*
X4233420D1*
X4279140D2*
X4294380D1*
X4332480D2*
X4340100D1*
X4362960D2*
X4378200D1*
X4408680D2*
X4423920D1*
X3410460Y6237480D2*
X3463800D1*
X3479040D2*
X3494280D1*
X3547620D2*
X3600960D1*
X3616200D2*
X3631440D1*
X3650728D2*
X3810272D1*
X3836704D2*
X3889022D1*
X3913380D2*
X3936240D1*
X3966720D2*
X3981960D1*
X3997200D2*
X4012440D1*
X4027680D2*
X4042920D1*
X4065780D2*
X4088640D1*
X4123845D2*
X4150807D1*
X4189518D2*
X4241040D1*
X4279140D2*
X4294380D1*
X4332480D2*
X4340100D1*
X4362960D2*
X4383146D1*
X4408680D2*
X4423920D1*
X3410460Y6229860D2*
X3425700D1*
X3479040D2*
X3494280D1*
X3547620D2*
X3562860D1*
X3616200D2*
X3631440D1*
X3646680D2*
X3669890D1*
X3707640D2*
X3722880D1*
X3753360D2*
X3768600D1*
X3791460D2*
X3814320D1*
X3829560D2*
X3852770D1*
X3864665D2*
X3893479D1*
X3913380D2*
X3943860D1*
X3966720D2*
X3981960D1*
X3997200D2*
X4012440D1*
X4027680D2*
X4042920D1*
X4058160D2*
X4081020D1*
X4120570D2*
X4152964D1*
X4185088D2*
X4205265D1*
X4225800D2*
X4233420D1*
X4279140D2*
X4294380D1*
X4332450D2*
X4340100D1*
X4362960D2*
X4388176D1*
X4408680D2*
X4423920D1*
X3410460Y6222240D2*
X3425700D1*
X3479040D2*
X3494280D1*
X3547620D2*
X3562860D1*
X3616200D2*
X3663842D1*
X3707640D2*
X3722880D1*
X3753360D2*
X3768600D1*
X3799080D2*
X3846712D1*
X3874967D2*
X3896031D1*
X3913380D2*
X3951480D1*
X3966720D2*
X3981960D1*
X3997200D2*
X4012440D1*
X4027680D2*
X4073400D1*
X4117032D2*
X4155908D1*
X4185886D2*
X4216366D1*
X4279140D2*
X4294380D1*
X4332160D2*
X4340100D1*
X4362960D2*
X4393440D1*
X4408680D2*
X4423920D1*
X3410460Y6214620D2*
X3463800D1*
X3479040D2*
X3494280D1*
X3547620D2*
X3600960D1*
X3616200D2*
X3659316D1*
X3707640D2*
X3722880D1*
X3753360D2*
X3842158D1*
X3879045D2*
X3897239D1*
X3913380D2*
X3981960D1*
X3997200D2*
X4012440D1*
X4027680D2*
X4065780D1*
X4113354D2*
X4126740D1*
X4141980D2*
X4159070D1*
X4193266D2*
X4226633D1*
X4279170D2*
X4294380D1*
X4330982D2*
X4340100D1*
X4362960D2*
X4423920D1*
X3410460Y6207000D2*
X3463800D1*
X3479040D2*
X3494280D1*
X3547620D2*
X3600960D1*
X3616200D2*
X3659870D1*
X3707640D2*
X3722880D1*
X3753360D2*
X3806700D1*
X3823438D2*
X3842902D1*
X3881378D2*
X3897446D1*
X3913380D2*
X3928620D1*
X3945358D2*
X3981960D1*
X3997200D2*
X4012440D1*
X4027680D2*
X4071999D1*
X4109793D2*
X4161752D1*
X4204544D2*
X4234929D1*
X4279467D2*
X4294380D1*
X4328377D2*
X4340040D1*
X4362960D2*
X4370580D1*
X4385530D2*
X4423920D1*
X3410460Y6199380D2*
X3425700D1*
X3479040D2*
X3494280D1*
X3547620D2*
X3562860D1*
X3616200D2*
X3664602D1*
X3707640D2*
X3722880D1*
X3753360D2*
X3799080D1*
X3826601D2*
X3844800D1*
X3882900D2*
X3896912D1*
X3913380D2*
X3928620D1*
X3948521D2*
X3981960D1*
X3997200D2*
X4012440D1*
X4027680D2*
X4042920D1*
X4059656D2*
X4076945D1*
X4106637D2*
X4163533D1*
X4218180D2*
X4237634D1*
X4280734D2*
X4294380D1*
X4324860D2*
X4339460D1*
X4362960D2*
X4370580D1*
X4392168D2*
X4423920D1*
X3410460Y6191760D2*
X3463800D1*
X3479040D2*
X3532380D1*
X3547620D2*
X3600960D1*
X3616200D2*
X3631440D1*
X3646680D2*
X3670671D1*
X3707640D2*
X3722880D1*
X3753360D2*
X3768600D1*
X3782439D2*
X3804026D1*
X3831661D2*
X3893140D1*
X3913380D2*
X3928620D1*
X3953581D2*
X3981960D1*
X3997200D2*
X4012440D1*
X4027680D2*
X4042920D1*
X4062792D2*
X4081020D1*
X4103880D2*
X4164840D1*
X4180080D2*
X4236215D1*
X4283801D2*
X4338076D1*
X4362960D2*
X4370580D1*
X4397897D2*
X4423920D1*
X3410460Y6184140D2*
X3463800D1*
X3479040D2*
X3532380D1*
X3547620D2*
X3600960D1*
X3616200D2*
X3631440D1*
X3654300D2*
X3677573D1*
X3707640D2*
X3722880D1*
X3753360D2*
X3768600D1*
X3787385D2*
X3809056D1*
X3837984D2*
X3884790D1*
X3913380D2*
X3928620D1*
X3959904D2*
X3981960D1*
X3997200D2*
X4012440D1*
X4027680D2*
X4042920D1*
X4067686D2*
X4119120D1*
X4157220D2*
X4231323D1*
X4288674D2*
X4332138D1*
X4362960D2*
X4370580D1*
X4403249D2*
X4423920D1*
X3410460Y6176520D2*
X3463800D1*
X3479040D2*
X3532380D1*
X3547620D2*
X3600960D1*
X3616200D2*
X3631440D1*
X3661920D2*
X3684780D1*
X3707640D2*
X3722880D1*
X3753360D2*
X3768600D1*
X3791460D2*
X3814320D1*
X3844800D2*
X3875280D1*
X3913380D2*
X3928620D1*
X3966720D2*
X3981960D1*
X3997200D2*
X4012440D1*
X4027680D2*
X4042920D1*
X4073400D2*
X4111500D1*
X4157220D2*
X4172460D1*
X4195320D2*
X4225800D1*
X4294380D2*
X4324860D1*
X4362960D2*
X4370580D1*
X4408680D2*
X4423920D1*
X4180080Y6138420D2*
X4210560D1*
X4183652Y6130800D2*
X4206988D1*
X3364740Y6123180D2*
X3486660D1*
X3501900D2*
X3517140D1*
X3570480D2*
X3623820D1*
X3639060D2*
X3654300D1*
X3684780D2*
X3700020D1*
X3722880D2*
X3760980D1*
X3799080D2*
X3814320D1*
X3852420D2*
X3875280D1*
X3890520D2*
X3905760D1*
X3943860D2*
X3959100D1*
X3974340D2*
X3989580D1*
X4027680D2*
X4042920D1*
X4058160D2*
X4073400D1*
X4088640D2*
X4103880D1*
X4134360D2*
X4149600D1*
X4187700D2*
X4202940D1*
X4256280D2*
X4294380D1*
X4317240D2*
X4332480D1*
X4378200D2*
X4393440D1*
X4408680D2*
X4423920D1*
X4462020D2*
X4469640D1*
X3364740Y6115560D2*
X3486660D1*
X3501900D2*
X3517140D1*
X3570480D2*
X3623820D1*
X3639060D2*
X3654300D1*
X3677160D2*
X3695947D1*
X3716758D2*
X3767393D1*
X3799080D2*
X3819021D1*
X3849814D2*
X3875280D1*
X3890520D2*
X3905760D1*
X3943860D2*
X3959100D1*
X3974340D2*
X3994594D1*
X4027680D2*
X4042920D1*
X4058160D2*
X4073400D1*
X4088640D2*
X4103880D1*
X4126740D2*
X4145527D1*
X4183892D2*
X4207635D1*
X4248980D2*
X4297379D1*
X4317240D2*
X4332480D1*
X4378200D2*
X4393440D1*
X4408680D2*
X4423920D1*
X4462020D2*
X4469640D1*
X3364740Y6107940D2*
X3486660D1*
X3501900D2*
X3517140D1*
X3570480D2*
X3623820D1*
X3639060D2*
X3654300D1*
X3669540D2*
X3690843D1*
X3712301D2*
X3772796D1*
X3799080D2*
X3823171D1*
X3847526D2*
X3875280D1*
X3890520D2*
X3905760D1*
X3943860D2*
X3959100D1*
X3974340D2*
X3999926D1*
X4027680D2*
X4042920D1*
X4058160D2*
X4073400D1*
X4088640D2*
X4103880D1*
X4119120D2*
X4140423D1*
X4180697D2*
X4211714D1*
X4242632D2*
X4296420D1*
X4317240D2*
X4332480D1*
X4378200D2*
X4393440D1*
X4408680D2*
X4423920D1*
X4461990D2*
X4469640D1*
X3387600Y6100320D2*
X3395220D1*
X3433320D2*
X3448560D1*
X3501900D2*
X3517140D1*
X3570480D2*
X3578100D1*
X3639060D2*
X3685897D1*
X3709749D2*
X3722880D1*
X3759172D2*
X3776906D1*
X3799080D2*
X3826622D1*
X3845964D2*
X3875280D1*
X3890550D2*
X3905760D1*
X3943860D2*
X3959100D1*
X3974340D2*
X4005984D1*
X4027680D2*
X4042920D1*
X4058160D2*
X4073400D1*
X4088640D2*
X4135477D1*
X4177496D2*
X4214816D1*
X4238081D2*
X4258088D1*
X4294380D2*
D3*
X4317240D2*
X4332480D1*
X4378200D2*
X4393440D1*
X4408680D2*
X4423920D1*
X4461700D2*
X4469640D1*
X3387600Y6092700D2*
X3395220D1*
X3433320D2*
X3486660D1*
X3501900D2*
X3517140D1*
X3570480D2*
X3601912D1*
X3639060D2*
X3681980D1*
X3708541D2*
X3722880D1*
X3763629D2*
X3779953D1*
X3799080D2*
X3829560D1*
X3844800D2*
X3875280D1*
X3890818D2*
X3905760D1*
X3943860D2*
X3959070D1*
X3974340D2*
X4012440D1*
X4027680D2*
X4042920D1*
X4058160D2*
X4073400D1*
X4088640D2*
X4131560D1*
X4174073D2*
X4187700D1*
X4202940D2*
X4216776D1*
X4235334D2*
X4253631D1*
X4317240D2*
X4332480D1*
X4378200D2*
X4393440D1*
X4408710D2*
X4423920D1*
X4460522D2*
X4469640D1*
X3387600Y6085080D2*
X3395220D1*
X3433320D2*
X3486660D1*
X3501900D2*
X3517140D1*
X3570480D2*
X3623820D1*
X3639060D2*
X3682665D1*
X3708304D2*
X3722880D1*
X3762881D2*
X3779313D1*
X3799080D2*
X3806700D1*
X3822253D2*
X3875280D1*
X3891819D2*
X3905760D1*
X3943860D2*
X3958773D1*
X3974340D2*
X4042920D1*
X4058160D2*
X4073400D1*
X4088640D2*
X4132236D1*
X4170651D2*
X4218180D1*
X4233420D2*
X4254379D1*
X4317240D2*
X4332480D1*
X4378200D2*
X4393410D1*
X4409007D2*
X4423920D1*
X4457917D2*
X4469610D1*
X3387600Y6077460D2*
X3395220D1*
X3433320D2*
X3448560D1*
X3501900D2*
X3517140D1*
X3570480D2*
X3578100D1*
X3639060D2*
X3687433D1*
X3709357D2*
X3722880D1*
X3760980D2*
X3777544D1*
X3799080D2*
X3806700D1*
X3823436D2*
X3875280D1*
X3893935D2*
X3905760D1*
X3943860D2*
X3957506D1*
X3974340D2*
X3989580D1*
X4004820D2*
X4042920D1*
X4058160D2*
X4073400D1*
X4088640D2*
X4136752D1*
X4167559D2*
X4256280D1*
X4294380D2*
D3*
X4317240D2*
X4332480D1*
X4378200D2*
X4393120D1*
X4410274D2*
X4423920D1*
X4454400D2*
X4469320D1*
X3387600Y6069840D2*
X3395220D1*
X3433320D2*
X3486660D1*
X3501900D2*
X3555240D1*
X3570480D2*
X3623820D1*
X3639060D2*
X3654300D1*
X3669540D2*
X3693520D1*
X3712344D2*
X3775046D1*
X3799080D2*
X3806700D1*
X3826042D2*
X3844800D1*
X3860040D2*
X3875280D1*
X3897086D2*
X3954439D1*
X3974340D2*
X3989580D1*
X4012440D2*
X4042920D1*
X4058160D2*
X4073400D1*
X4088640D2*
X4103880D1*
X4119120D2*
X4141980D1*
X4164840D2*
X4224399D1*
X4241040D2*
X4302000D1*
X4317240D2*
X4332480D1*
X4347720D2*
X4391942D1*
X4413341D2*
X4468142D1*
X3387600Y6062220D2*
X3395220D1*
X3433320D2*
X3486660D1*
X3501900D2*
X3555240D1*
X3570480D2*
X3623820D1*
X3639060D2*
X3654300D1*
X3677160D2*
X3700429D1*
X3717188D2*
X3768627D1*
X3799080D2*
X3806700D1*
X3829560D2*
X3844800D1*
X3860040D2*
X3875280D1*
X3901135D2*
X3949566D1*
X3974340D2*
X3989580D1*
X4020060D2*
X4042920D1*
X4058160D2*
X4073400D1*
X4088640D2*
X4103880D1*
X4126740D2*
X4180080D1*
X4210560D2*
X4229345D1*
X4248660D2*
X4298428D1*
X4317240D2*
X4332480D1*
X4347720D2*
X4389337D1*
X4418214D2*
X4465537D1*
X3387600Y6054600D2*
X3395220D1*
X3433320D2*
X3486660D1*
X3501900D2*
X3555240D1*
X3570480D2*
X3623820D1*
X3639060D2*
X3654300D1*
X3684780D2*
X3707640D1*
X3722880D2*
X3760980D1*
X3799080D2*
X3806700D1*
X3860040D2*
X3875280D1*
X3905760D2*
X3943860D1*
X3974340D2*
X3989580D1*
X4027680D2*
X4042920D1*
X4058160D2*
X4073400D1*
X4088640D2*
X4103880D1*
X4134360D2*
X4172460D1*
X4218180D2*
X4233420D1*
X4256280D2*
X4294380D1*
X4317240D2*
X4332480D1*
X4347720D2*
X4385820D1*
X4423920D2*
X4462020D1*
X4042920Y6016500D2*
X4073400D1*
X4046492Y6008880D2*
X4069828D1*
X3616200Y6001260D2*
X3669540D1*
X3700020D2*
X3722880D1*
X3760980D2*
X3776220D1*
X3806700D2*
X3821940D1*
X3837180D2*
X3844800D1*
X3882900D2*
X3898140D1*
X3913380D2*
X3928620D1*
X3966720D2*
X4027680D1*
X4050540D2*
X4065780D1*
X4096260D2*
X4149600D1*
X4164840D2*
X4218180D1*
X3616200Y5993640D2*
X3669540D1*
X3698813D2*
X3724087D1*
X3760980D2*
X3776220D1*
X3799080D2*
X3817867D1*
X3837180D2*
X3844800D1*
X3882900D2*
X3898140D1*
X3913380D2*
X3928620D1*
X3966720D2*
X4027680D1*
X4046732D2*
X4070475D1*
X4096260D2*
X4149600D1*
X4164840D2*
X4218180D1*
X3616200Y5986020D2*
X3669540D1*
X3696656D2*
X3726244D1*
X3760980D2*
X3776220D1*
X3791460D2*
X3812763D1*
X3837180D2*
X3844800D1*
X3882900D2*
X3898140D1*
X3913380D2*
X3928620D1*
X3966720D2*
X4027680D1*
X4043537D2*
X4074582D1*
X4096260D2*
X4149600D1*
X4164840D2*
X4218180D1*
X3616200Y5978400D2*
X3631440D1*
X3693682D2*
X3729218D1*
X3760980D2*
X3807817D1*
X3837180D2*
X3844830D1*
X3882870D2*
X3898140D1*
X3913380D2*
X3928620D1*
X3989580D2*
X3997200D1*
X4040336D2*
X4077931D1*
X4119120D2*
X4126740D1*
X4164840D2*
X4180080D1*
X3616200Y5970780D2*
X3669540D1*
X3690254D2*
X3732646D1*
X3760980D2*
X3803900D1*
X3837180D2*
X3845120D1*
X3882580D2*
X3898110D1*
X3913380D2*
X3928620D1*
X3989580D2*
X3997200D1*
X4036919D2*
X4050540D1*
X4065780D2*
X4080757D1*
X4119120D2*
X4126740D1*
X4164840D2*
X4218180D1*
X3616200Y5963160D2*
X3669540D1*
X3686621D2*
X3700020D1*
X3722880D2*
X3736279D1*
X3760980D2*
X3804585D1*
X3837210D2*
X3846298D1*
X3881402D2*
X3897813D1*
X3913380D2*
X3928620D1*
X3989580D2*
X3997200D1*
X4033537D2*
X4050540D1*
X4065780D2*
X4083757D1*
X4119120D2*
X4126740D1*
X4164840D2*
X4218180D1*
X3616200Y5955540D2*
X3631440D1*
X3683142D2*
X3739758D1*
X3760980D2*
X3809041D1*
X3837500D2*
X3848903D1*
X3878797D2*
X3896546D1*
X3913380D2*
X3928620D1*
X3989580D2*
X3997200D1*
X4030510D2*
X4087087D1*
X4119120D2*
X4126740D1*
X4164840D2*
X4180080D1*
X3616200Y5947920D2*
X3631440D1*
X3680327D2*
X3742573D1*
X3760980D2*
X3776220D1*
X3791460D2*
X3813944D1*
X3838678D2*
X3852420D1*
X3875280D2*
X3893479D1*
X3913380D2*
X3928620D1*
X3989580D2*
X3997200D1*
X4027647D2*
X4090472D1*
X4119120D2*
X4126740D1*
X4164840D2*
X4180080D1*
X3616200Y5940300D2*
X3631440D1*
X3678494D2*
X3692400D1*
X3730500D2*
X3744406D1*
X3760980D2*
X3776220D1*
X3799080D2*
X3818247D1*
X3841283D2*
X3888606D1*
X3913380D2*
X3966720D1*
X3989580D2*
X3997200D1*
X4024148D2*
X4042920D1*
X4073400D2*
X4093549D1*
X4119120D2*
X4126740D1*
X4164840D2*
X4218180D1*
X3616200Y5932680D2*
X3631440D1*
X3677160D2*
X3692400D1*
X3730500D2*
X3745740D1*
X3760980D2*
X3776220D1*
X3806700D2*
X3821940D1*
X3844800D2*
X3882900D1*
X3913380D2*
X3966720D1*
X3989580D2*
X3997200D1*
X4020060D2*
X4035300D1*
X4081020D2*
X4096260D1*
X4119120D2*
X4126740D1*
X4164840D2*
X4218180D1*
X3882900Y6885180D2*
X3876778Y6877560D1*
X3872321Y6869940D1*
X3869769Y6862320D1*
X3868561Y6854700D1*
X3868316Y6847080D1*
X3869281Y6839460D1*
X3871804Y6831840D1*
X3875280Y6824220D1*
X3890520Y6885180D2*
X3894065Y6877560D1*
X3896421Y6869940D1*
X3898140Y6862320D1*
X3974340Y6885180D2*
X3968121Y6877560D1*
X3963175Y6869940D1*
X3959100Y6862320D1*
X3981960Y6854700D1*
X3974340Y6847080D1*
X3966720Y6839460D1*
X3989580Y6885180D2*
X3993097Y6877560D1*
X3995256Y6869940D1*
X3996073Y6862320D1*
X3995388Y6854700D1*
X3992987Y6847080D1*
X3989580Y6839460D1*
X3993628Y6831840D1*
X3997200Y6824220D1*
X3837180Y6877560D2*
X3839785Y6869940D1*
X3842053Y6862320D1*
X3843497Y6854700D1*
X3844244Y6847080D1*
X3844581Y6839460D1*
X3844723Y6831840D1*
X3844800Y6824220D1*
X3852420Y6877560D2*
Y6869940D1*
Y6862320D1*
Y6854700D1*
Y6847080D1*
Y6839460D1*
Y6831840D1*
Y6824220D1*
X3928620Y6877560D2*
X3925048Y6869940D1*
X3921000Y6862320D1*
X3943860Y6877560D2*
X3945038Y6869940D1*
X3946928Y6862320D1*
X3948920Y6854700D1*
X3950370Y6847080D1*
X3951480Y6839460D1*
X3997200Y6869940D2*
X3978827Y6862320D1*
X3963356Y6854700D1*
X3956693Y6847080D1*
X3951480Y6839460D1*
X3997200Y6869940D2*
X3989580Y6862320D1*
X3981960Y6854700D1*
X3974340Y6847080D1*
X3966720Y6839460D1*
X3928620Y6854700D2*
Y6847080D1*
Y6839460D1*
X3943860Y6854700D2*
Y6847080D1*
Y6839460D1*
X3882900Y6847080D2*
X3875280Y6839460D1*
X3882900Y6847080D2*
X3890520Y6839460D1*
X3684780Y6831840D2*
X3678656Y6824220D1*
X3674172Y6816600D1*
X3671446Y6808980D1*
X3669540Y6801360D1*
X3700020Y6831840D2*
X3700429Y6824220D1*
X3701419Y6816600D1*
X3706881Y6808980D1*
X3719824Y6801360D1*
X3734249Y6793740D1*
X3747334Y6786120D1*
X3757944Y6778500D1*
X3766165Y6770880D1*
X3772359Y6763260D1*
X3777035Y6755640D1*
X3780337Y6748020D1*
X3782240Y6740400D1*
X3783173Y6732780D1*
X3783582Y6725160D1*
X3783750Y6717540D1*
X3783840Y6709920D1*
X4134360Y6831840D2*
X4133951Y6824220D1*
X4132961Y6816600D1*
X4127499Y6808980D1*
X4114556Y6801360D1*
X4100131Y6793740D1*
X4087046Y6786120D1*
X4076436Y6778500D1*
X4068215Y6770880D1*
X4062021Y6763260D1*
X4057345Y6755640D1*
X4054043Y6748020D1*
X4052140Y6740400D1*
X4051207Y6732780D1*
X4050798Y6725160D1*
X4050630Y6717540D1*
X4050540Y6709920D1*
X4149600Y6831840D2*
X4156636Y6824220D1*
X4161849Y6816600D1*
X4163562Y6808980D1*
X4164840Y6801360D1*
X3905760Y6831840D2*
X3898140Y6824220D1*
X3913380Y6831840D2*
X3921000Y6824220D1*
X3951480Y6831840D2*
X3943860Y6824220D1*
X3951480Y6831840D2*
X3959100Y6824220D1*
X4149600Y6816600D2*
X4141980Y6808980D1*
X4149600Y6816600D2*
X4157220Y6808980D1*
X3600960Y6801360D2*
X3601020Y6793740D1*
X3601615Y6786120D1*
X3603044Y6778500D1*
X3609423Y6770880D1*
X3617177Y6763260D1*
X3623792Y6755640D1*
X3628654Y6748020D1*
X3630133Y6740400D1*
X3630901Y6732780D1*
X3631235Y6725160D1*
X3631366Y6717540D1*
X3631415Y6709920D1*
X3631431Y6702300D1*
X3631407Y6694680D1*
X3631141Y6687060D1*
X3630141Y6679440D1*
X3628048Y6671820D1*
X3625094Y6664200D1*
X3621642Y6656580D1*
X3617743Y6648960D1*
X3613265Y6641340D1*
X3608354Y6633720D1*
X3603494Y6626100D1*
X3598541Y6618480D1*
X3593340Y6610860D1*
X4233420Y6801360D2*
X3806700Y6793740D2*
Y6786120D1*
Y6778500D1*
Y6770880D1*
Y6763260D1*
Y6755640D1*
Y6748020D1*
Y6740400D1*
Y6732780D1*
Y6725160D1*
Y6717540D1*
Y6709920D1*
X4035300Y6793740D2*
Y6786120D1*
Y6778500D1*
Y6770880D1*
Y6763260D1*
Y6755640D1*
Y6748020D1*
Y6740400D1*
Y6732780D1*
Y6725160D1*
Y6717540D1*
Y6709920D1*
X4233420Y6793740D2*
X4233070Y6786120D1*
X4232259Y6778500D1*
X4227965Y6770880D1*
X4222199Y6763260D1*
X4216662Y6755640D1*
X4212318Y6748020D1*
X4208754Y6740400D1*
X4206020Y6732780D1*
X4204366Y6725160D1*
X4203495Y6717540D1*
X4202940Y6709920D1*
X3646680Y6786120D2*
X3652773Y6778500D1*
X3657835Y6770880D1*
X3659316Y6763260D1*
X3657262Y6755640D1*
X3654300Y6748020D1*
X3684780Y6786120D2*
X3690843Y6778500D1*
X3695816Y6770880D1*
X3696403Y6763260D1*
X3691381Y6755640D1*
X3684780Y6748020D1*
X3814320Y6786120D2*
Y6778500D1*
Y6770880D1*
Y6763260D1*
Y6755640D1*
Y6748020D1*
Y6740400D1*
Y6732780D1*
Y6725160D1*
Y6717540D1*
Y6709920D1*
X4020060Y6786120D2*
Y6778500D1*
Y6770880D1*
Y6763260D1*
Y6755640D1*
Y6748020D1*
Y6740400D1*
Y6732780D1*
Y6725160D1*
Y6717540D1*
Y6709920D1*
X4149600Y6786120D2*
X4143798Y6778500D1*
X4139368Y6770880D1*
X4139919Y6763260D1*
X4144398Y6755640D1*
X4149600Y6748020D1*
X4187700Y6786120D2*
X4181607Y6778500D1*
X4176545Y6770880D1*
X4175064Y6763260D1*
X4177118Y6755640D1*
X4180080Y6748020D1*
X3707640Y6770880D2*
X3707320Y6763260D1*
X3706598Y6755640D1*
X3703190Y6748020D1*
X3693185Y6740400D1*
X3679270Y6732780D1*
X3664603Y6725160D1*
X3653162Y6717540D1*
X3644667Y6709920D1*
X3642235Y6702300D1*
X3643794Y6694680D1*
X3648738Y6687060D1*
X3654300Y6679440D1*
X3715260Y6770880D2*
X3722560Y6763260D1*
X3728906Y6755640D1*
X3733431Y6748020D1*
X3736003Y6740400D1*
X3737216Y6732780D1*
X3737485Y6725160D1*
X3736698Y6717540D1*
X3734626Y6709920D1*
X3731143Y6702300D1*
X3725574Y6694680D1*
X3717353Y6687060D1*
X3707640Y6679440D1*
X3745740Y6770880D2*
X3746918Y6763260D1*
X3748807Y6755640D1*
X3750780Y6748020D1*
X3752114Y6740400D1*
X3752793Y6732780D1*
X3752848Y6725160D1*
X3751981Y6717540D1*
X3749916Y6709920D1*
X3746785Y6702300D1*
X3742742Y6694680D1*
X3738120Y6687060D1*
X3760980Y6770880D2*
X3762187Y6763260D1*
X3764344Y6755640D1*
X3767288Y6748020D1*
X3770418Y6740400D1*
X3772812Y6732780D1*
X3774152Y6725160D1*
X3772354Y6717540D1*
X3769379Y6709920D1*
X3765098Y6702300D1*
X3759529Y6694680D1*
X3753360Y6687060D1*
X3905760Y6763260D2*
X3902243Y6755640D1*
X3900054Y6748020D1*
X3898947Y6740400D1*
X3898455Y6732780D1*
X3898256Y6725160D1*
X3898179Y6717540D1*
X3898140Y6709920D1*
X3928620Y6763260D2*
X3932137Y6755640D1*
X3934326Y6748020D1*
X3935463Y6740400D1*
X3936245Y6732780D1*
X3937621Y6725160D1*
X3940303Y6717540D1*
X3943860Y6709920D1*
X4088640Y6770880D2*
X4081340Y6763260D1*
X4074965Y6755640D1*
X4070149Y6748020D1*
X4066391Y6740400D1*
X4062484Y6732780D1*
X4058160Y6725160D1*
X4061997Y6717540D1*
X4065459Y6709920D1*
X4069636Y6702300D1*
X4075019Y6694680D1*
X4081020Y6687060D1*
X4103880Y6770880D2*
X4097467Y6763260D1*
X4092034Y6755640D1*
X4087656Y6748020D1*
X4084464Y6740400D1*
X4082630Y6732780D1*
X4081978Y6725160D1*
X4082575Y6717540D1*
X4084530Y6709920D1*
X4087619Y6702300D1*
X4091646Y6694680D1*
X4096260Y6687060D1*
X4119120Y6770880D2*
X4111820Y6763260D1*
X4105474Y6755640D1*
X4100949Y6748020D1*
X4098377Y6740400D1*
X4097164Y6732780D1*
X4096924Y6725160D1*
X4097979Y6717540D1*
X4100993Y6709920D1*
X4106012Y6702300D1*
X4112376Y6694680D1*
X4119437Y6687060D1*
X4126740Y6679440D1*
Y6770880D2*
X4127060Y6763260D1*
X4127782Y6755640D1*
X4131190Y6748020D1*
X4141195Y6740400D1*
X4155110Y6732780D1*
X4169777Y6725160D1*
X4181218Y6717540D1*
X4189713Y6709920D1*
X4192145Y6702300D1*
X4190586Y6694680D1*
X4185642Y6687060D1*
X4180080Y6679440D1*
X3913380Y6748020D2*
X3905760Y6740400D1*
X3921000Y6748020D2*
X3928620Y6740400D1*
X3547620Y6732780D2*
X3541527Y6725160D1*
X3536465Y6717540D1*
X3535016Y6709920D1*
X3537324Y6702300D1*
X3540495Y6694680D1*
X3543378Y6687060D1*
X3542908Y6679440D1*
X3541558Y6671820D1*
X3540000Y6664200D1*
X3578100Y6656580D1*
X3570800Y6648960D1*
X3564454Y6641340D1*
X3559929Y6633720D1*
X3557387Y6626100D1*
X3556441Y6618480D1*
X3556485Y6610860D1*
X3559519Y6603240D1*
X3566956Y6595620D1*
X3575896Y6588000D1*
X3583899Y6580380D1*
X3589325Y6572760D1*
X3593340Y6565140D1*
X3532380D1*
Y6557520D1*
Y6549900D1*
Y6542280D1*
Y6534660D1*
Y6527040D1*
Y6519420D1*
Y6511800D1*
Y6504180D1*
Y6496560D1*
Y6488940D1*
X3585720Y6732780D2*
X3595650Y6725160D1*
X3603272Y6717540D1*
X3608758Y6709920D1*
X3612411Y6702300D1*
X3614206Y6694680D1*
X3614200Y6687060D1*
X3612508Y6679440D1*
X3609457Y6671820D1*
X3605099Y6664200D1*
X3599368Y6656580D1*
X3592676Y6648960D1*
X3585492Y6641340D1*
X3578325Y6633720D1*
X3571944Y6626100D1*
X3566952Y6618480D1*
X3562860Y6610860D1*
X4248660Y6732780D2*
X4238895Y6725160D1*
X4231594Y6717540D1*
X4225800Y6709920D1*
X4286760Y6732780D2*
X4292853Y6725160D1*
X4297915Y6717540D1*
X4299483Y6709920D1*
X4297936Y6702300D1*
X4295154Y6694680D1*
X4291282Y6687060D1*
X4286760Y6679440D1*
X4302000Y6671820D1*
X4294380Y6664200D1*
X3921000Y6725160D2*
X3913380Y6717540D1*
X3905760Y6709920D1*
X3928620Y6725160D2*
Y6717540D1*
Y6709920D1*
X3578100Y6717540D2*
X3579248Y6709920D1*
X3580869Y6702300D1*
X3581841Y6694680D1*
X3581059Y6687060D1*
X3578619Y6679440D1*
X3574906Y6671820D1*
X3570480Y6664200D1*
X3585720Y6717540D2*
X3591842Y6709920D1*
X3596269Y6702300D1*
X3599247Y6694680D1*
X3599331Y6687060D1*
X3596143Y6679440D1*
X3591152Y6671820D1*
X3584816Y6664200D1*
X3577781Y6656580D1*
X3570680Y6648960D1*
X3564412Y6641340D1*
X3559915Y6633720D1*
X3557382Y6626100D1*
X3556440Y6618480D1*
X3556485Y6610860D1*
X3559519Y6603240D1*
X3566956Y6595620D1*
X3575896Y6588000D1*
X3583899Y6580380D1*
X3589325Y6572760D1*
X3593340Y6565140D1*
X3532380D1*
Y6557520D1*
Y6549900D1*
Y6542280D1*
Y6534660D1*
Y6527040D1*
Y6519420D1*
Y6511800D1*
Y6504180D1*
Y6496560D1*
Y6488940D1*
X4248660Y6717540D2*
X4242538Y6709920D1*
X4238111Y6702300D1*
X4235133Y6694680D1*
X4235049Y6687060D1*
X4238237Y6679440D1*
X4243228Y6671820D1*
X4249564Y6664200D1*
X4256599Y6656580D1*
X4263730Y6648960D1*
X4270266Y6641340D1*
X4275704Y6633720D1*
X4279824Y6626100D1*
X4282873Y6618480D1*
X4282378Y6610860D1*
X4278156Y6603240D1*
X4271447Y6595620D1*
X4263132Y6588000D1*
X4255423Y6580380D1*
X4248660Y6572760D1*
X4309620Y6565140D1*
X4306103Y6557520D1*
X4303914Y6549900D1*
X4302807Y6542280D1*
X4302315Y6534660D1*
X4302117Y6527040D1*
X4302041Y6519420D1*
X4302014Y6511800D1*
X4302005Y6504180D1*
X4302001Y6496560D1*
X4302000Y6488940D1*
X4256280Y6717540D2*
Y6709920D1*
Y6702300D1*
X4256340Y6694680D1*
X4256920Y6687060D1*
X4258304Y6679440D1*
X4264242Y6671820D1*
X4271520Y6664200D1*
X3555240Y6709920D2*
X3547620Y6702300D1*
X3555240Y6709920D2*
X3562860Y6702300D1*
X4279140Y6709920D2*
X4271520Y6702300D1*
X4263900Y6694680D1*
X4294380Y6709920D2*
X4286760Y6702300D1*
X4279140Y6694680D1*
X3814320Y6702300D2*
Y6694680D1*
Y6687060D1*
Y6679440D1*
Y6671820D1*
Y6664200D1*
Y6656580D1*
Y6648960D1*
Y6641340D1*
Y6633720D1*
Y6626100D1*
Y6618480D1*
Y6610860D1*
Y6603240D1*
X3814350Y6595620D1*
X3814677Y6588000D1*
X3815481Y6580380D1*
X3820125Y6572760D1*
X3827433Y6565140D1*
X3837066Y6557520D1*
X3848581Y6549900D1*
X3861743Y6542280D1*
X3875981Y6534660D1*
X3890774Y6527040D1*
X3905760Y6519420D1*
X3821940Y6702300D2*
X3829560Y6694680D1*
X3837180Y6687060D1*
X3844800Y6679440D1*
X3852390Y6671820D1*
X3859713Y6664200D1*
X3866064Y6656580D1*
X3870590Y6648960D1*
X3873133Y6641340D1*
X3874108Y6633720D1*
X3873674Y6626100D1*
X3872063Y6618480D1*
X3870189Y6610860D1*
X3868889Y6603240D1*
X3868192Y6595620D1*
X3867872Y6588000D1*
X3867735Y6580380D1*
X3867660Y6572760D1*
X4012440Y6702300D2*
X4004820Y6694680D1*
X3997200Y6687060D1*
X3989580Y6679440D1*
X3981990Y6671820D1*
X3974667Y6664200D1*
X3968316Y6656580D1*
X3963790Y6648960D1*
X3961247Y6641340D1*
X3960272Y6633720D1*
X3960706Y6626100D1*
X3962317Y6618480D1*
X3964191Y6610860D1*
X3965491Y6603240D1*
X3966188Y6595620D1*
X3966508Y6588000D1*
X3966645Y6580380D1*
X3966720Y6572760D1*
X4020060Y6702300D2*
Y6694680D1*
Y6687060D1*
Y6679440D1*
Y6671820D1*
Y6664200D1*
Y6656580D1*
Y6648960D1*
Y6641340D1*
Y6633720D1*
Y6626100D1*
Y6618480D1*
Y6610860D1*
Y6603240D1*
X4020030Y6595620D1*
X4019733Y6588000D1*
X4018434Y6580380D1*
X4015967Y6572760D1*
X4008958Y6565140D1*
X3999314Y6557520D1*
X3987140Y6549900D1*
X3973346Y6542280D1*
X3958721Y6534660D1*
X3943730Y6527040D1*
X3928620Y6519420D1*
X3783840Y6694680D2*
X3776220Y6687060D1*
X3768600Y6679440D1*
X3791460Y6694680D2*
X3799080Y6687060D1*
X3806700Y6679440D1*
X4035300Y6694680D2*
Y6687060D1*
Y6679440D1*
X4050540Y6694680D2*
X4058160Y6687060D1*
X4065780Y6679440D1*
X4202940Y6694680D2*
X4203260Y6687060D1*
X4204505Y6679440D1*
X4207332Y6671820D1*
X4211379Y6664200D1*
X4215662Y6656580D1*
X4219791Y6648960D1*
X4223775Y6641340D1*
X4227678Y6633720D1*
X4231722Y6626100D1*
X4236180Y6618480D1*
X4241040Y6610860D1*
X4218180Y6694680D2*
X4219387Y6687060D1*
X4221574Y6679440D1*
X4224816Y6671820D1*
X4229244Y6664200D1*
X4235000Y6656580D1*
X4241700Y6648960D1*
X4248887Y6641340D1*
X4256055Y6633720D1*
X4262436Y6626100D1*
X4267428Y6618480D1*
X4271520Y6610860D1*
X3875280Y6687060D2*
X3867660Y6679440D1*
X3882900Y6687060D2*
X3890520Y6679440D1*
X3898140Y6687060D2*
Y6679440D1*
X3898170Y6671820D1*
X3898460Y6664200D1*
X3899638Y6656580D1*
X3902243Y6648960D1*
X3905760Y6641340D1*
X3936240Y6687060D2*
X3936553Y6679440D1*
X3937736Y6671820D1*
X3940342Y6664200D1*
X3943860Y6656580D1*
X3936240Y6648960D1*
X3928620Y6641340D1*
X3951480Y6687060D2*
X3943860Y6679440D1*
X3959100Y6687060D2*
X3966720Y6679440D1*
X3722880Y6671820D2*
X3715260Y6664200D1*
X3738120Y6671820D2*
X3745740Y6664200D1*
X4096260Y6671820D2*
X4088640Y6664200D1*
X4111500Y6671820D2*
X4119120Y6664200D1*
X3646680D2*
X3640267Y6656580D1*
X3634804Y6648960D1*
X3630128Y6641340D1*
X3625698Y6633720D1*
X3621008Y6626100D1*
X3616041Y6618480D1*
X3611384Y6610860D1*
X3607361Y6603240D1*
X3604317Y6595620D1*
X3602509Y6588000D1*
X3601609Y6580380D1*
X3601213Y6572760D1*
X3601053Y6565140D1*
X3600991Y6557520D1*
X3600960Y6549900D1*
X3540000D1*
Y6542280D1*
Y6534660D1*
Y6527040D1*
Y6519420D1*
Y6511800D1*
Y6504180D1*
X3654300Y6664200D2*
X3669540Y6656580D1*
X3684780Y6648960D1*
X3671067Y6641340D1*
X3659289Y6633720D1*
X3650385Y6626100D1*
X3643621Y6618480D1*
X3641264Y6610860D1*
X3639994Y6603240D1*
X3639425Y6595620D1*
X3639194Y6588000D1*
X3639107Y6580380D1*
X3639076Y6572760D1*
X3639065Y6565140D1*
X3639062Y6557520D1*
X3639060Y6549900D1*
X3610390Y6542280D1*
X3588941Y6534660D1*
X3573025Y6527040D1*
X3567273Y6519420D1*
X3562860Y6511800D1*
X3593340Y6504180D1*
X3760980Y6664200D2*
X3753360Y6656580D1*
X3776220Y6664200D2*
X3783840Y6656580D1*
X4058160Y6664200D2*
X4050540Y6656580D1*
X4073400Y6664200D2*
X4081020Y6656580D1*
X4180080Y6664200D2*
X4164840Y6656580D1*
X4149600Y6648960D1*
X4164200Y6641340D1*
X4176891Y6633720D1*
X4187373Y6626100D1*
X4191443Y6618480D1*
X4193662Y6610860D1*
X4194668Y6603240D1*
X4195079Y6595620D1*
X4195235Y6588000D1*
X4195291Y6580380D1*
X4195310Y6572760D1*
X4195317Y6565140D1*
X4195319Y6557520D1*
X4195320Y6549900D1*
X4224280Y6542280D1*
X4246712Y6534660D1*
X4262145Y6527040D1*
X4271945Y6519420D1*
X4279140Y6511800D1*
X4248660Y6504180D1*
X4187700Y6664200D2*
X4194142Y6656580D1*
X4199843Y6648960D1*
X4205223Y6641340D1*
X4210507Y6633720D1*
X4215326Y6626100D1*
X4219668Y6618480D1*
X4223702Y6610860D1*
X4227342Y6603240D1*
X4230197Y6595620D1*
X4231923Y6588000D1*
X4232789Y6580380D1*
X4233173Y6572760D1*
X4233329Y6565140D1*
X4233389Y6557520D1*
X4233420Y6549900D1*
X4294380D1*
Y6542280D1*
Y6534660D1*
Y6527040D1*
Y6519420D1*
Y6511800D1*
Y6504180D1*
X3799080Y6656580D2*
X3791460Y6648960D1*
X3799080Y6656580D2*
X3806700Y6648960D1*
X3707640D2*
X3700020Y6641340D1*
X3692400Y6633720D1*
X3713177Y6626100D1*
X3729631Y6618480D1*
X3742018Y6610860D1*
X3751828Y6603240D1*
X3760053Y6595620D1*
X3766501Y6588000D1*
X3771289Y6580380D1*
X3771230Y6572760D1*
X3770062Y6565140D1*
X3768282Y6557520D1*
X3766340Y6549900D1*
X3764871Y6542280D1*
X3768651Y6534660D1*
X3778511Y6527040D1*
X3787655Y6519420D1*
X3794708Y6511800D1*
X3797019Y6504180D1*
X3798285Y6496560D1*
X3799080Y6488940D1*
X3700020Y6648960D2*
X3735342Y6641340D1*
X3765182Y6633720D1*
X3789211Y6626100D1*
X3799728Y6618480D1*
X3803460Y6610860D1*
X3805377Y6603240D1*
X3806201Y6595620D1*
X3806492Y6588000D1*
X3806319Y6580380D1*
X3805182Y6572760D1*
X3802591Y6565140D1*
X3799080Y6557520D1*
X3814320Y6549900D1*
X3829560Y6542280D1*
X3844770Y6534660D1*
X3859742Y6527040D1*
X3874006Y6519420D1*
X3887356Y6511800D1*
X3900328Y6504180D1*
X3913380Y6496560D1*
X4134360Y6648960D2*
X4100215Y6641340D1*
X4072265Y6633720D1*
X4050410Y6626100D1*
X4041262Y6618480D1*
X4038061Y6610860D1*
X4036424Y6603240D1*
X4035723Y6595620D1*
X4035451Y6588000D1*
X4035322Y6580380D1*
X4034960Y6572760D1*
X4034141Y6565140D1*
X4030285Y6557520D1*
X4021191Y6549900D1*
X4009528Y6542280D1*
X3996009Y6534660D1*
X3981505Y6527040D1*
X3966555Y6519420D1*
X3951422Y6511800D1*
X3936221Y6504180D1*
X3921000Y6496560D1*
X4126740Y6648960D2*
X4134360Y6641340D1*
X4141980Y6633720D1*
X4123517Y6626100D1*
X4108355Y6618480D1*
X4095586Y6610860D1*
X4084539Y6603240D1*
X4074987Y6595620D1*
X4066389Y6588000D1*
X4058160Y6580380D1*
X4061968Y6572760D1*
X4065133Y6565140D1*
X4068067Y6557520D1*
X4070512Y6549900D1*
X4072040Y6542280D1*
X4072824Y6534660D1*
X4073188Y6527040D1*
X4073400Y6519420D1*
X4035300D1*
Y6511800D1*
Y6504180D1*
Y6496560D1*
Y6488940D1*
X3898140Y6633720D2*
X3892018Y6626100D1*
X3887531Y6618480D1*
X3884712Y6610860D1*
X3882503Y6603240D1*
X3880141Y6595620D1*
X3877955Y6588000D1*
X3876429Y6580380D1*
X3875280Y6572760D1*
X3898140Y6633720D2*
X3905760Y6626100D1*
X3913380Y6618480D1*
X3943860Y6633720D2*
X3936240Y6626100D1*
X3928620Y6618480D1*
X3951480Y6633720D2*
X3951510Y6626100D1*
X3951778Y6618480D1*
X3952749Y6610860D1*
X3954574Y6603240D1*
X3956528Y6595620D1*
X3957862Y6588000D1*
X3958609Y6580380D1*
X3959100Y6572760D1*
X3654300Y6610860D2*
X3656443Y6603240D1*
X3664544Y6595620D1*
X3676125Y6588000D1*
X3688360Y6580380D1*
X3699090Y6572760D1*
X3703465Y6565140D1*
X3705853Y6557520D1*
X3706937Y6549900D1*
X3707469Y6542280D1*
X3708471Y6534660D1*
X3710513Y6527040D1*
X3718308Y6519420D1*
X3727956Y6511800D1*
X3738120Y6504180D1*
X3722880Y6610860D2*
X3730500Y6603240D1*
X3738120Y6595620D1*
X3745740Y6588000D1*
X3753360Y6580380D1*
X3760980Y6572760D1*
X3757172Y6565140D1*
X3754037Y6557520D1*
X3751371Y6549900D1*
X3749235Y6542280D1*
X3750177Y6534660D1*
X3751983Y6527040D1*
X3757555Y6519420D1*
X3772891Y6511800D1*
X3791460Y6504180D1*
X4111500Y6610860D2*
X4103880Y6603240D1*
X4096260Y6595620D1*
X4088640Y6588000D1*
X4081020Y6580380D1*
X4073400Y6572760D1*
X4078095Y6565140D1*
X4082143Y6557520D1*
X4084955Y6549900D1*
X4086513Y6542280D1*
X4084949Y6534660D1*
X4082101Y6527040D1*
X4077927Y6519420D1*
X4065508Y6511800D1*
X4050540Y6504180D1*
X4195320Y6610860D2*
X4186173Y6603240D1*
X4175181Y6595620D1*
X4162117Y6588000D1*
X4148827Y6580380D1*
X4136862Y6572760D1*
X4130874Y6565140D1*
X4128676Y6557520D1*
X4127537Y6549900D1*
X4126953Y6542280D1*
X4125926Y6534660D1*
X4123871Y6527040D1*
X4116073Y6519420D1*
X4106424Y6511800D1*
X4096260Y6504180D1*
X4187700Y6580380D2*
X4171922Y6572760D1*
X4157342Y6565140D1*
X4144687Y6557520D1*
X4138562Y6549900D1*
X4136326Y6542280D1*
X4135168Y6534660D1*
X4134577Y6527040D1*
X4133547Y6519420D1*
X4131491Y6511800D1*
X4123693Y6504180D1*
X4114044Y6496560D1*
X4103880Y6488940D1*
X4187700Y6580380D2*
Y6572760D1*
Y6565140D1*
Y6557520D1*
Y6549900D1*
Y6542280D1*
Y6534660D1*
Y6527040D1*
Y6519420D1*
X4233420D1*
Y6511800D1*
Y6504180D1*
Y6496560D1*
Y6488940D1*
X3654300Y6572760D2*
Y6565140D1*
Y6557520D1*
Y6549900D1*
Y6542280D1*
Y6534660D1*
Y6527040D1*
Y6519420D1*
X3600960D1*
Y6511800D1*
Y6504180D1*
Y6496560D1*
Y6488940D1*
X3669540Y6572760D2*
X3681785Y6565140D1*
X3692087Y6557520D1*
X3696149Y6549900D1*
X3698364Y6542280D1*
X3699369Y6534660D1*
X3699868Y6527040D1*
X3700858Y6519420D1*
X3702894Y6511800D1*
X3710689Y6504180D1*
X3720337Y6496560D1*
X3730500Y6488940D1*
X3791460Y6405120D2*
Y6397500D1*
Y6389880D1*
Y6382260D1*
Y6374640D1*
Y6367020D1*
Y6359400D1*
Y6351780D1*
Y6344160D1*
Y6336540D1*
Y6328920D1*
Y6321300D1*
Y6313680D1*
X3837180Y6405120D2*
X3846820Y6397500D1*
X3854576Y6389880D1*
X3857372Y6382260D1*
X3858595Y6374640D1*
X3858730Y6367020D1*
X3855720Y6359400D1*
X3852213Y6351780D1*
X3849219Y6344160D1*
X3850045Y6336540D1*
X3853553Y6328920D1*
X3856961Y6321300D1*
X3860040Y6313680D1*
X3875280Y6405120D2*
Y6397500D1*
Y6389880D1*
Y6382260D1*
X3905760D1*
Y6374640D1*
Y6367020D1*
Y6359400D1*
Y6351780D1*
Y6344160D1*
Y6336540D1*
Y6328920D1*
Y6321300D1*
Y6313680D1*
X3951480Y6405120D2*
Y6397500D1*
Y6389880D1*
Y6382260D1*
X3921000D1*
Y6374640D1*
Y6367020D1*
Y6359400D1*
Y6351780D1*
Y6344160D1*
Y6336540D1*
Y6328920D1*
Y6321300D1*
Y6313680D1*
X3966720Y6405120D2*
Y6397500D1*
Y6389880D1*
Y6382260D1*
Y6374640D1*
Y6367020D1*
Y6359400D1*
X3966750Y6351780D1*
X3967077Y6344160D1*
X3967881Y6336540D1*
X3971698Y6328920D1*
X3980062Y6321300D1*
X3989580Y6313680D1*
X3981960Y6405120D2*
Y6397500D1*
Y6389880D1*
Y6382260D1*
Y6374640D1*
X3981990Y6367020D1*
X3982280Y6359400D1*
X3983458Y6351780D1*
X3986063Y6344160D1*
X3989580Y6336540D1*
X4027680Y6405120D2*
Y6397500D1*
Y6389880D1*
Y6382260D1*
Y6374640D1*
X4027650Y6367020D1*
X4027360Y6359400D1*
X4026182Y6351780D1*
X4023577Y6344160D1*
X4020060Y6336540D1*
X4042920Y6405120D2*
Y6397500D1*
Y6389880D1*
Y6382260D1*
Y6374640D1*
Y6367020D1*
Y6359400D1*
X4042890Y6351780D1*
X4042593Y6344160D1*
X4041326Y6336540D1*
X4038259Y6328920D1*
X4033386Y6321300D1*
X4027680Y6313680D1*
X3806700Y6389880D2*
Y6382260D1*
Y6374640D1*
X3829560Y6389880D2*
X3837180Y6382260D1*
X3844800Y6374640D1*
X3806700Y6344160D2*
Y6336540D1*
Y6328920D1*
Y6321300D1*
Y6313680D1*
X3814320Y6344160D2*
X3821627Y6336540D1*
X3828064Y6328920D1*
X3833078Y6321300D1*
X3837180Y6313680D1*
X3410460Y6245100D2*
Y6237480D1*
Y6229860D1*
Y6222240D1*
Y6214620D1*
Y6207000D1*
Y6199380D1*
Y6191760D1*
Y6184140D1*
Y6176520D1*
X3463800Y6245100D2*
Y6237480D1*
Y6229860D1*
X3425700D1*
Y6222240D1*
Y6214620D1*
X3463800D1*
Y6207000D1*
X3425700Y6199380D1*
X3463800Y6191760D1*
Y6184140D1*
Y6176520D1*
X3479040Y6245100D2*
Y6237480D1*
Y6229860D1*
Y6222240D1*
Y6214620D1*
Y6207000D1*
Y6199380D1*
Y6191760D1*
Y6184140D1*
Y6176520D1*
X3494280Y6245100D2*
Y6237480D1*
Y6229860D1*
Y6222240D1*
Y6214620D1*
Y6207000D1*
Y6199380D1*
Y6191760D1*
X3532380D1*
Y6184140D1*
Y6176520D1*
X3547620Y6245100D2*
Y6237480D1*
Y6229860D1*
Y6222240D1*
Y6214620D1*
Y6207000D1*
Y6199380D1*
Y6191760D1*
Y6184140D1*
Y6176520D1*
X3600960Y6245100D2*
Y6237480D1*
Y6229860D1*
X3562860D1*
Y6222240D1*
Y6214620D1*
X3600960D1*
Y6207000D1*
X3562860Y6199380D1*
X3600960Y6191760D1*
Y6184140D1*
Y6176520D1*
X3616200Y6245100D2*
Y6237480D1*
Y6229860D1*
Y6222240D1*
Y6214620D1*
Y6207000D1*
Y6199380D1*
Y6191760D1*
Y6184140D1*
Y6176520D1*
X3631440Y6245100D2*
Y6237480D1*
Y6229860D1*
X3654300Y6245100D2*
X3650728Y6237480D1*
X3646680Y6229860D1*
X3806700Y6245100D2*
X3810272Y6237480D1*
X3814320Y6229860D1*
X3844800Y6245100D2*
X3836704Y6237480D1*
X3829560Y6229860D1*
X3882900Y6245100D2*
X3889022Y6237480D1*
X3893479Y6229860D1*
X3896031Y6222240D1*
X3897239Y6214620D1*
X3897446Y6207000D1*
X3896912Y6199380D1*
X3893140Y6191760D1*
X3884790Y6184140D1*
X3875280Y6176520D1*
X3913380Y6245100D2*
Y6237480D1*
Y6229860D1*
Y6222240D1*
Y6214620D1*
Y6207000D1*
Y6199380D1*
Y6191760D1*
Y6184140D1*
Y6176520D1*
X3928620Y6245100D2*
X3936240Y6237480D1*
X3943860Y6229860D1*
X3951480Y6222240D1*
X3966720Y6245100D2*
Y6237480D1*
Y6229860D1*
Y6222240D1*
X3981960Y6245100D2*
Y6237480D1*
Y6229860D1*
Y6222240D1*
Y6214620D1*
Y6207000D1*
Y6199380D1*
Y6191760D1*
Y6184140D1*
Y6176520D1*
X3997200Y6245100D2*
Y6237480D1*
Y6229860D1*
Y6222240D1*
Y6214620D1*
Y6207000D1*
Y6199380D1*
Y6191760D1*
Y6184140D1*
Y6176520D1*
X4012440Y6245100D2*
Y6237480D1*
Y6229860D1*
Y6222240D1*
Y6214620D1*
Y6207000D1*
Y6199380D1*
Y6191760D1*
Y6184140D1*
Y6176520D1*
X4027680Y6245100D2*
Y6237480D1*
Y6229860D1*
Y6222240D1*
Y6214620D1*
Y6207000D1*
Y6199380D1*
Y6191760D1*
Y6184140D1*
Y6176520D1*
X4042920Y6245100D2*
Y6237480D1*
Y6229860D1*
X4073400Y6245100D2*
X4065780Y6237480D1*
X4058160Y6229860D1*
X4096260Y6245100D2*
X4088640Y6237480D1*
X4081020Y6229860D1*
X4073400Y6222240D1*
X4065780Y6214620D1*
X4071999Y6207000D1*
X4076945Y6199380D1*
X4081020Y6191760D1*
X4126740Y6245100D2*
X4123845Y6237480D1*
X4120570Y6229860D1*
X4117032Y6222240D1*
X4113354Y6214620D1*
X4109793Y6207000D1*
X4106637Y6199380D1*
X4103880Y6191760D1*
X4149600Y6245100D2*
X4150807Y6237480D1*
X4152964Y6229860D1*
X4155908Y6222240D1*
X4159070Y6214620D1*
X4161752Y6207000D1*
X4163533Y6199380D1*
X4164840Y6191760D1*
X4195320Y6245100D2*
X4189518Y6237480D1*
X4185088Y6229860D1*
X4185886Y6222240D1*
X4193266Y6214620D1*
X4204544Y6207000D1*
X4218180Y6199380D1*
X4180080Y6191760D1*
X4233420Y6245100D2*
X4241040Y6237480D1*
X4233420Y6229860D1*
X4279140Y6245100D2*
Y6237480D1*
Y6229860D1*
Y6222240D1*
X4279170Y6214620D1*
X4279467Y6207000D1*
X4280734Y6199380D1*
X4283801Y6191760D1*
X4288674Y6184140D1*
X4294380Y6176520D1*
Y6245100D2*
Y6237480D1*
Y6229860D1*
Y6222240D1*
Y6214620D1*
Y6207000D1*
Y6199380D1*
X4332480Y6245100D2*
Y6237480D1*
X4332450Y6229860D1*
X4332160Y6222240D1*
X4330982Y6214620D1*
X4328377Y6207000D1*
X4324860Y6199380D1*
X4340100Y6245100D2*
Y6237480D1*
Y6229860D1*
Y6222240D1*
Y6214620D1*
X4340040Y6207000D1*
X4339460Y6199380D1*
X4338076Y6191760D1*
X4332138Y6184140D1*
X4324860Y6176520D1*
X4362960Y6245100D2*
Y6237480D1*
Y6229860D1*
Y6222240D1*
Y6214620D1*
Y6207000D1*
Y6199380D1*
Y6191760D1*
Y6184140D1*
Y6176520D1*
X4378200Y6245100D2*
X4383146Y6237480D1*
X4388176Y6229860D1*
X4393440Y6222240D1*
X4408680Y6245100D2*
Y6237480D1*
Y6229860D1*
Y6222240D1*
X4423920Y6245100D2*
Y6237480D1*
Y6229860D1*
Y6222240D1*
Y6214620D1*
Y6207000D1*
Y6199380D1*
Y6191760D1*
Y6184140D1*
Y6176520D1*
X3677160Y6237480D2*
X3669890Y6229860D1*
X3663842Y6222240D1*
X3659316Y6214620D1*
X3659870Y6207000D1*
X3664602Y6199380D1*
X3670671Y6191760D1*
X3677573Y6184140D1*
X3684780Y6176520D1*
X3707640Y6237480D2*
Y6229860D1*
Y6222240D1*
Y6214620D1*
Y6207000D1*
Y6199380D1*
Y6191760D1*
Y6184140D1*
Y6176520D1*
X3722880Y6237480D2*
Y6229860D1*
Y6222240D1*
Y6214620D1*
Y6207000D1*
Y6199380D1*
Y6191760D1*
Y6184140D1*
Y6176520D1*
X3753360Y6237480D2*
Y6229860D1*
Y6222240D1*
Y6214620D1*
Y6207000D1*
Y6199380D1*
Y6191760D1*
Y6184140D1*
Y6176520D1*
X3768600Y6237480D2*
Y6229860D1*
Y6222240D1*
X3783840Y6237480D2*
X3791460Y6229860D1*
X3799080Y6222240D1*
X3860040Y6237480D2*
X3852770Y6229860D1*
X3846712Y6222240D1*
X3842158Y6214620D1*
X3842902Y6207000D1*
X3844800Y6199380D1*
X3852420Y6237480D2*
X3864665Y6229860D1*
X3874967Y6222240D1*
X3879045Y6214620D1*
X3881378Y6207000D1*
X3882900Y6199380D1*
X4195320Y6237480D2*
X4205265Y6229860D1*
X4216366Y6222240D1*
X4226633Y6214620D1*
X4234929Y6207000D1*
X4237634Y6199380D1*
X4236215Y6191760D1*
X4231323Y6184140D1*
X4225800Y6176520D1*
X4218180Y6237480D2*
X4225800Y6229860D1*
X4134360Y6222240D2*
X4126740Y6214620D1*
X4134360Y6222240D2*
X4141980Y6214620D1*
X3814320D2*
X3806700Y6207000D1*
X3799080Y6199380D1*
X3804026Y6191760D1*
X3809056Y6184140D1*
X3814320Y6176520D1*
X3821940Y6214620D2*
X3823438Y6207000D1*
X3826601Y6199380D1*
X3831661Y6191760D1*
X3837984Y6184140D1*
X3844800Y6176520D1*
X3928620Y6214620D2*
Y6207000D1*
Y6199380D1*
Y6191760D1*
Y6184140D1*
Y6176520D1*
X3943860Y6214620D2*
X3945358Y6207000D1*
X3948521Y6199380D1*
X3953581Y6191760D1*
X3959904Y6184140D1*
X3966720Y6176520D1*
X4370580Y6214620D2*
Y6207000D1*
Y6199380D1*
Y6191760D1*
Y6184140D1*
Y6176520D1*
X4378200Y6214620D2*
X4385530Y6207000D1*
X4392168Y6199380D1*
X4397897Y6191760D1*
X4403249Y6184140D1*
X4408680Y6176520D1*
X4042920Y6207000D2*
Y6199380D1*
Y6191760D1*
Y6184140D1*
Y6176520D1*
X4058160Y6207000D2*
X4059656Y6199380D1*
X4062792Y6191760D1*
X4067686Y6184140D1*
X4073400Y6176520D1*
X3631440Y6199380D2*
Y6191760D1*
Y6184140D1*
Y6176520D1*
X3639060Y6199380D2*
X3646680Y6191760D1*
X3654300Y6184140D1*
X3661920Y6176520D1*
X3768600Y6199380D2*
Y6191760D1*
Y6184140D1*
Y6176520D1*
X3776220Y6199380D2*
X3782439Y6191760D1*
X3787385Y6184140D1*
X3791460Y6176520D1*
X4126740Y6191760D2*
X4119120Y6184140D1*
X4111500Y6176520D1*
X4157220Y6191760D2*
Y6184140D1*
Y6176520D1*
X4180080Y6184140D2*
X4172460Y6176520D1*
X4187700Y6184140D2*
X4195320Y6176520D1*
X4180080Y6138420D2*
X4183652Y6130800D1*
X4187700Y6123180D1*
X4183892Y6115560D1*
X4180697Y6107940D1*
X4177496Y6100320D1*
X4174073Y6092700D1*
X4170651Y6085080D1*
X4167559Y6077460D1*
X4164840Y6069840D1*
X4210560Y6138420D2*
X4206988Y6130800D1*
X4202940Y6123180D1*
X4207635Y6115560D1*
X4211714Y6107940D1*
X4214816Y6100320D1*
X4216776Y6092700D1*
X4218180Y6085080D1*
X3364740Y6123180D2*
Y6115560D1*
Y6107940D1*
Y6100320D1*
X3387600D1*
Y6092700D1*
Y6085080D1*
Y6077460D1*
Y6069840D1*
Y6062220D1*
Y6054600D1*
X3486660Y6123180D2*
Y6115560D1*
Y6107940D1*
X3448560Y6100320D1*
X3486660Y6092700D1*
Y6085080D1*
X3448560Y6077460D1*
X3486660Y6069840D1*
Y6062220D1*
Y6054600D1*
X3501900Y6123180D2*
Y6115560D1*
Y6107940D1*
Y6100320D1*
Y6092700D1*
Y6085080D1*
Y6077460D1*
Y6069840D1*
Y6062220D1*
Y6054600D1*
X3517140Y6123180D2*
Y6115560D1*
Y6107940D1*
Y6100320D1*
Y6092700D1*
Y6085080D1*
Y6077460D1*
Y6069840D1*
X3555240D1*
Y6062220D1*
Y6054600D1*
X3570480Y6123180D2*
Y6115560D1*
Y6107940D1*
Y6100320D1*
Y6092700D1*
Y6085080D1*
Y6077460D1*
Y6069840D1*
Y6062220D1*
Y6054600D1*
X3623820Y6123180D2*
Y6115560D1*
Y6107940D1*
X3578100Y6100320D1*
X3601912Y6092700D1*
X3623820Y6085080D1*
X3578100Y6077460D1*
X3623820Y6069840D1*
Y6062220D1*
Y6054600D1*
X3639060Y6123180D2*
Y6115560D1*
Y6107940D1*
Y6100320D1*
Y6092700D1*
Y6085080D1*
Y6077460D1*
Y6069840D1*
Y6062220D1*
Y6054600D1*
X3654300Y6123180D2*
Y6115560D1*
Y6107940D1*
X3684780Y6123180D2*
X3677160Y6115560D1*
X3669540Y6107940D1*
X3700020Y6123180D2*
X3695947Y6115560D1*
X3690843Y6107940D1*
X3685897Y6100320D1*
X3681980Y6092700D1*
X3682665Y6085080D1*
X3687433Y6077460D1*
X3693520Y6069840D1*
X3700429Y6062220D1*
X3707640Y6054600D1*
X3722880Y6123180D2*
X3716758Y6115560D1*
X3712301Y6107940D1*
X3709749Y6100320D1*
X3708541Y6092700D1*
X3708304Y6085080D1*
X3709357Y6077460D1*
X3712344Y6069840D1*
X3717188Y6062220D1*
X3722880Y6054600D1*
X3760980Y6123180D2*
X3767393Y6115560D1*
X3772796Y6107940D1*
X3776906Y6100320D1*
X3779953Y6092700D1*
X3779313Y6085080D1*
X3777544Y6077460D1*
X3775046Y6069840D1*
X3768627Y6062220D1*
X3760980Y6054600D1*
X3799080Y6123180D2*
Y6115560D1*
Y6107940D1*
Y6100320D1*
Y6092700D1*
Y6085080D1*
Y6077460D1*
Y6069840D1*
Y6062220D1*
Y6054600D1*
X3814320Y6123180D2*
X3819021Y6115560D1*
X3823171Y6107940D1*
X3826622Y6100320D1*
X3829560Y6092700D1*
X3852420Y6123180D2*
X3849814Y6115560D1*
X3847526Y6107940D1*
X3845964Y6100320D1*
X3844800Y6092700D1*
X3875280Y6123180D2*
Y6115560D1*
Y6107940D1*
Y6100320D1*
Y6092700D1*
Y6085080D1*
Y6077460D1*
Y6069840D1*
Y6062220D1*
Y6054600D1*
X3890520Y6123180D2*
Y6115560D1*
Y6107940D1*
X3890550Y6100320D1*
X3890818Y6092700D1*
X3891819Y6085080D1*
X3893935Y6077460D1*
X3897086Y6069840D1*
X3901135Y6062220D1*
X3905760Y6054600D1*
Y6123180D2*
Y6115560D1*
Y6107940D1*
Y6100320D1*
Y6092700D1*
Y6085080D1*
Y6077460D1*
X3943860Y6123180D2*
Y6115560D1*
Y6107940D1*
Y6100320D1*
Y6092700D1*
Y6085080D1*
Y6077460D1*
X3959100Y6123180D2*
Y6115560D1*
Y6107940D1*
Y6100320D1*
X3959070Y6092700D1*
X3958773Y6085080D1*
X3957506Y6077460D1*
X3954439Y6069840D1*
X3949566Y6062220D1*
X3943860Y6054600D1*
X3974340Y6123180D2*
Y6115560D1*
Y6107940D1*
Y6100320D1*
Y6092700D1*
Y6085080D1*
Y6077460D1*
Y6069840D1*
Y6062220D1*
Y6054600D1*
X3989580Y6123180D2*
X3994594Y6115560D1*
X3999926Y6107940D1*
X4005984Y6100320D1*
X4012440Y6092700D1*
X4027680Y6123180D2*
Y6115560D1*
Y6107940D1*
Y6100320D1*
Y6092700D1*
X4042920Y6123180D2*
Y6115560D1*
Y6107940D1*
Y6100320D1*
Y6092700D1*
Y6085080D1*
Y6077460D1*
Y6069840D1*
Y6062220D1*
Y6054600D1*
X4058160Y6123180D2*
Y6115560D1*
Y6107940D1*
Y6100320D1*
Y6092700D1*
Y6085080D1*
Y6077460D1*
Y6069840D1*
Y6062220D1*
Y6054600D1*
X4073400Y6123180D2*
Y6115560D1*
Y6107940D1*
Y6100320D1*
Y6092700D1*
Y6085080D1*
Y6077460D1*
Y6069840D1*
Y6062220D1*
Y6054600D1*
X4088640Y6123180D2*
Y6115560D1*
Y6107940D1*
Y6100320D1*
Y6092700D1*
Y6085080D1*
Y6077460D1*
Y6069840D1*
Y6062220D1*
Y6054600D1*
X4103880Y6123180D2*
Y6115560D1*
Y6107940D1*
X4134360Y6123180D2*
X4126740Y6115560D1*
X4119120Y6107940D1*
X4149600Y6123180D2*
X4145527Y6115560D1*
X4140423Y6107940D1*
X4135477Y6100320D1*
X4131560Y6092700D1*
X4132236Y6085080D1*
X4136752Y6077460D1*
X4141980Y6069840D1*
X4256280Y6123180D2*
X4248980Y6115560D1*
X4242632Y6107940D1*
X4238081Y6100320D1*
X4235334Y6092700D1*
X4233420Y6085080D1*
X4294380Y6123180D2*
X4297379Y6115560D1*
X4296420Y6107940D1*
X4294380Y6100320D1*
X4317240Y6123180D2*
Y6115560D1*
Y6107940D1*
Y6100320D1*
Y6092700D1*
Y6085080D1*
Y6077460D1*
Y6069840D1*
Y6062220D1*
Y6054600D1*
X4332480Y6123180D2*
Y6115560D1*
Y6107940D1*
Y6100320D1*
Y6092700D1*
Y6085080D1*
Y6077460D1*
Y6069840D1*
Y6062220D1*
Y6054600D1*
X4378200Y6123180D2*
Y6115560D1*
Y6107940D1*
Y6100320D1*
Y6092700D1*
Y6085080D1*
Y6077460D1*
Y6069840D1*
X4347720D1*
Y6062220D1*
Y6054600D1*
X4393440Y6123180D2*
Y6115560D1*
Y6107940D1*
Y6100320D1*
Y6092700D1*
X4393410Y6085080D1*
X4393120Y6077460D1*
X4391942Y6069840D1*
X4389337Y6062220D1*
X4385820Y6054600D1*
X4408680Y6123180D2*
Y6115560D1*
Y6107940D1*
Y6100320D1*
X4408710Y6092700D1*
X4409007Y6085080D1*
X4410274Y6077460D1*
X4413341Y6069840D1*
X4418214Y6062220D1*
X4423920Y6054600D1*
Y6123180D2*
Y6115560D1*
Y6107940D1*
Y6100320D1*
Y6092700D1*
Y6085080D1*
Y6077460D1*
X4462020Y6123180D2*
Y6115560D1*
X4461990Y6107940D1*
X4461700Y6100320D1*
X4460522Y6092700D1*
X4457917Y6085080D1*
X4454400Y6077460D1*
X4469640Y6123180D2*
Y6115560D1*
Y6107940D1*
Y6100320D1*
Y6092700D1*
X4469610Y6085080D1*
X4469320Y6077460D1*
X4468142Y6069840D1*
X4465537Y6062220D1*
X4462020Y6054600D1*
X3395220Y6107940D2*
Y6100320D1*
Y6092700D1*
Y6085080D1*
Y6077460D1*
Y6069840D1*
Y6062220D1*
Y6054600D1*
X3433320Y6107940D2*
Y6100320D1*
Y6092700D1*
Y6085080D1*
Y6077460D1*
Y6069840D1*
Y6062220D1*
Y6054600D1*
X3722880Y6107940D2*
Y6100320D1*
Y6092700D1*
Y6085080D1*
Y6077460D1*
X3753360Y6107940D2*
X3759172Y6100320D1*
X3763629Y6092700D1*
X3762881Y6085080D1*
X3760980Y6077460D1*
X4263900Y6107940D2*
X4258088Y6100320D1*
X4253631Y6092700D1*
X4254379Y6085080D1*
X4256280Y6077460D1*
X4195320Y6100320D2*
X4187700Y6092700D1*
X4195320Y6100320D2*
X4202940Y6092700D1*
X3806700D2*
Y6085080D1*
Y6077460D1*
Y6069840D1*
Y6062220D1*
Y6054600D1*
X3821940Y6092700D2*
X3822253Y6085080D1*
X3823436Y6077460D1*
X3826042Y6069840D1*
X3829560Y6062220D1*
X3989580Y6085080D2*
Y6077460D1*
Y6069840D1*
Y6062220D1*
Y6054600D1*
X3997200Y6085080D2*
X4004820Y6077460D1*
X4012440Y6069840D1*
X4020060Y6062220D1*
X4027680Y6054600D1*
X4294380Y6077460D2*
X3654300D2*
Y6069840D1*
Y6062220D1*
Y6054600D1*
X3661920Y6077460D2*
X3669540Y6069840D1*
X3677160Y6062220D1*
X3684780Y6054600D1*
X3844800Y6077460D2*
Y6069840D1*
Y6062220D1*
X3860040Y6077460D2*
Y6069840D1*
Y6062220D1*
Y6054600D1*
X4103880Y6077460D2*
Y6069840D1*
Y6062220D1*
Y6054600D1*
X4111500Y6077460D2*
X4119120Y6069840D1*
X4126740Y6062220D1*
X4134360Y6054600D1*
X4218180Y6077460D2*
X4224399Y6069840D1*
X4229345Y6062220D1*
X4233420Y6054600D1*
Y6077460D2*
X4241040Y6069840D1*
X4248660Y6062220D1*
X4256280Y6054600D1*
X4302000Y6069840D2*
X4298428Y6062220D1*
X4294380Y6054600D1*
X4187700Y6069840D2*
X4180080Y6062220D1*
X4172460Y6054600D1*
X4202940Y6069840D2*
X4210560Y6062220D1*
X4218180Y6054600D1*
X4042920Y6016500D2*
X4046492Y6008880D1*
X4050540Y6001260D1*
X4046732Y5993640D1*
X4043537Y5986020D1*
X4040336Y5978400D1*
X4036919Y5970780D1*
X4033537Y5963160D1*
X4030510Y5955540D1*
X4027647Y5947920D1*
X4024148Y5940300D1*
X4020060Y5932680D1*
X4073400Y6016500D2*
X4069828Y6008880D1*
X4065780Y6001260D1*
X4070475Y5993640D1*
X4074582Y5986020D1*
X4077931Y5978400D1*
X4080757Y5970780D1*
X4083757Y5963160D1*
X4087087Y5955540D1*
X4090472Y5947920D1*
X4093549Y5940300D1*
X4096260Y5932680D1*
X3616200Y6001260D2*
Y5993640D1*
Y5986020D1*
Y5978400D1*
Y5970780D1*
Y5963160D1*
Y5955540D1*
Y5947920D1*
Y5940300D1*
Y5932680D1*
X3669540Y6001260D2*
Y5993640D1*
Y5986020D1*
X3631440Y5978400D1*
X3669540Y5970780D1*
Y5963160D1*
Y5955540D1*
X3631440D1*
Y5947920D1*
Y5940300D1*
Y5932680D1*
X3700020Y6001260D2*
X3698813Y5993640D1*
X3696656Y5986020D1*
X3693682Y5978400D1*
X3690254Y5970780D1*
X3686621Y5963160D1*
X3683142Y5955540D1*
X3680327Y5947920D1*
X3678494Y5940300D1*
X3677160Y5932680D1*
X3722880Y6001260D2*
X3724087Y5993640D1*
X3726244Y5986020D1*
X3729218Y5978400D1*
X3732646Y5970780D1*
X3736279Y5963160D1*
X3739758Y5955540D1*
X3742573Y5947920D1*
X3744406Y5940300D1*
X3745740Y5932680D1*
X3760980Y6001260D2*
Y5993640D1*
Y5986020D1*
Y5978400D1*
Y5970780D1*
Y5963160D1*
Y5955540D1*
Y5947920D1*
Y5940300D1*
Y5932680D1*
X3776220Y6001260D2*
Y5993640D1*
Y5986020D1*
X3806700Y6001260D2*
X3799080Y5993640D1*
X3791460Y5986020D1*
X3821940Y6001260D2*
X3817867Y5993640D1*
X3812763Y5986020D1*
X3807817Y5978400D1*
X3803900Y5970780D1*
X3804585Y5963160D1*
X3809041Y5955540D1*
X3813944Y5947920D1*
X3818247Y5940300D1*
X3821940Y5932680D1*
X3837180Y6001260D2*
Y5993640D1*
Y5986020D1*
Y5978400D1*
Y5970780D1*
X3837210Y5963160D1*
X3837500Y5955540D1*
X3838678Y5947920D1*
X3841283Y5940300D1*
X3844800Y5932680D1*
Y6001260D2*
Y5993640D1*
Y5986020D1*
X3844830Y5978400D1*
X3845120Y5970780D1*
X3846298Y5963160D1*
X3848903Y5955540D1*
X3852420Y5947920D1*
X3882900Y6001260D2*
Y5993640D1*
Y5986020D1*
X3882870Y5978400D1*
X3882580Y5970780D1*
X3881402Y5963160D1*
X3878797Y5955540D1*
X3875280Y5947920D1*
X3898140Y6001260D2*
Y5993640D1*
Y5986020D1*
Y5978400D1*
X3898110Y5970780D1*
X3897813Y5963160D1*
X3896546Y5955540D1*
X3893479Y5947920D1*
X3888606Y5940300D1*
X3882900Y5932680D1*
X3913380Y6001260D2*
Y5993640D1*
Y5986020D1*
Y5978400D1*
Y5970780D1*
Y5963160D1*
Y5955540D1*
Y5947920D1*
Y5940300D1*
Y5932680D1*
X3928620Y6001260D2*
Y5993640D1*
Y5986020D1*
Y5978400D1*
Y5970780D1*
Y5963160D1*
Y5955540D1*
Y5947920D1*
Y5940300D1*
X3966720D1*
Y5932680D1*
Y6001260D2*
Y5993640D1*
Y5986020D1*
Y5978400D1*
X3989580D1*
Y5970780D1*
Y5963160D1*
Y5955540D1*
Y5947920D1*
Y5940300D1*
Y5932680D1*
X4027680Y6001260D2*
Y5993640D1*
Y5986020D1*
Y5978400D1*
X3997200D1*
Y5970780D1*
Y5963160D1*
Y5955540D1*
Y5947920D1*
Y5940300D1*
Y5932680D1*
X4096260Y6001260D2*
Y5993640D1*
Y5986020D1*
Y5978400D1*
X4119120D1*
Y5970780D1*
Y5963160D1*
Y5955540D1*
Y5947920D1*
Y5940300D1*
Y5932680D1*
X4149600Y6001260D2*
Y5993640D1*
Y5986020D1*
Y5978400D1*
X4126740D1*
Y5970780D1*
Y5963160D1*
Y5955540D1*
Y5947920D1*
Y5940300D1*
Y5932680D1*
X4164840Y6001260D2*
Y5993640D1*
Y5986020D1*
Y5978400D1*
Y5970780D1*
Y5963160D1*
Y5955540D1*
Y5947920D1*
Y5940300D1*
Y5932680D1*
X4218180Y6001260D2*
Y5993640D1*
Y5986020D1*
X4180080Y5978400D1*
X4218180Y5970780D1*
Y5963160D1*
Y5955540D1*
X4180080D1*
Y5947920D1*
Y5940300D1*
X4218180D1*
Y5932680D1*
X4050540Y5978400D2*
Y5970780D1*
Y5963160D1*
X4065780Y5978400D2*
Y5970780D1*
Y5963160D1*
X3707640Y5970780D2*
X3700020Y5963160D1*
X3715260Y5970780D2*
X3722880Y5963160D1*
X3776220Y5955540D2*
Y5947920D1*
Y5940300D1*
Y5932680D1*
X3783840Y5955540D2*
X3791460Y5947920D1*
X3799080Y5940300D1*
X3806700Y5932680D1*
X3692400Y5947920D2*
Y5940300D1*
Y5932680D1*
X3730500Y5947920D2*
Y5940300D1*
Y5932680D1*
X4050540Y5947920D2*
X4042920Y5940300D1*
X4035300Y5932680D1*
X4065780Y5947920D2*
X4073400Y5940300D1*
X4081020Y5932680D1*
X3607682Y4445664D2*
D75*
X3601645Y4457737D1*
X3589432Y4469950D1*
X3577359Y4475987D1*
X3553072D1*
X3540859Y4469950D1*
X3528786Y4457737D1*
X3522609Y4445664D1*
X3516572Y4427414D1*
Y4396950D1*
X3522609Y4378840D1*
X3528786Y4366627D1*
X3540859Y4354554D1*
X3553072Y4348377D1*
X3577359D1*
X3589432Y4354554D1*
X3601645Y4366627D1*
X3607682Y4378840D1*
X3646898Y4451560D2*
X3659111Y4457737D1*
X3677361Y4475846D1*
Y4348377D1*
X4543410Y2954664D2*
X4537374Y2966737D1*
X4525160Y2978950D1*
X4513087Y2984987D1*
X4488801D1*
X4476587Y2978950D1*
X4464514Y2966737D1*
X4458337Y2954664D1*
X4452301Y2936414D1*
Y2905950D1*
X4458337Y2887840D1*
X4464514Y2875627D1*
X4476587Y2863554D1*
X4488801Y2857377D1*
X4513087D1*
X4525160Y2863554D1*
X4537374Y2875627D1*
X4543410Y2887840D1*
X4588803Y2954523D2*
Y2960560D1*
X4594840Y2972773D1*
X4600876Y2978810D1*
X4613090Y2984846D1*
X4637376D1*
X4649449Y2978810D1*
X4655486Y2972773D1*
X4661663Y2960560D1*
Y2948487D1*
X4655486Y2936273D1*
X4643413Y2918164D1*
X4582626Y2857377D1*
X4667699D1*
X3650410Y2806680D2*
X3644374Y2818753D1*
X3632160Y2830967D1*
X3620087Y2837003D1*
X3595801D1*
X3583587Y2830967D1*
X3571514Y2818753D1*
X3565337Y2806680D1*
X3559301Y2788430D1*
Y2757967D1*
X3565337Y2739857D1*
X3571514Y2727644D1*
X3583587Y2715571D1*
X3595801Y2709394D1*
X3620087D1*
X3632160Y2715571D1*
X3644374Y2727644D1*
X3650410Y2739857D1*
X3701840Y2836863D2*
X3768522D1*
X3732163Y2788290D1*
X3750413D1*
X3762486Y2782253D1*
X3768522Y2776217D1*
X3774699Y2757967D1*
Y2745894D1*
X3768522Y2727644D1*
X3756449Y2715430D1*
X3738199Y2709394D1*
X3719949D1*
X3701840Y2715430D1*
X3695803Y2721607D1*
X3689626Y2733680D1*
X5679392Y6311864D2*
X5673356Y6323937D1*
X5661142Y6336150D1*
X5649069Y6342187D1*
X5624783D1*
X5612569Y6336150D1*
X5600496Y6323937D1*
X5594319Y6311864D1*
X5588283Y6293614D1*
Y6263150D1*
X5594319Y6245040D1*
X5600496Y6232827D1*
X5612569Y6220754D1*
X5624783Y6214577D1*
X5649069D1*
X5661142Y6220754D1*
X5673356Y6232827D1*
X5679392Y6245040D1*
X5779394Y6214577D2*
Y6342046D1*
X5718608Y6257114D1*
X5809717D1*
X6571410Y4991064D2*
X6565374Y5003137D1*
X6553160Y5015350D1*
X6541087Y5021387D1*
X6516801D1*
X6504587Y5015350D1*
X6492514Y5003137D1*
X6486337Y4991064D1*
X6480301Y4972814D1*
Y4942350D1*
X6486337Y4924241D1*
X6492514Y4912027D1*
X6504587Y4899954D1*
X6516801Y4893777D1*
X6541087D1*
X6553160Y4899954D1*
X6565374Y4912027D1*
X6571410Y4924241D1*
X6683486Y5021246D2*
X6622840D1*
X6616803Y4966637D1*
X6622840Y4972673D1*
X6641090Y4978850D1*
X6659199D1*
X6677449Y4972673D1*
X6689663Y4960600D1*
X6695699Y4942350D1*
Y4930277D1*
X6689663Y4912027D1*
X6677449Y4899814D1*
X6659199Y4893777D1*
X6641090D1*
X6622840Y4899814D1*
X6616803Y4905991D1*
X6610626Y4918064D1*
X7590499Y5626064D2*
X7584462Y5638137D1*
X7572249Y5650350D1*
X7560176Y5656387D1*
X7535889D1*
X7523676Y5650350D1*
X7511603Y5638137D1*
X7505426Y5626064D1*
X7499389Y5607814D1*
Y5577350D1*
X7505426Y5559241D1*
X7511603Y5547027D1*
X7523676Y5534954D1*
X7535889Y5528777D1*
X7560176D1*
X7572249Y5534954D1*
X7584462Y5547027D1*
X7590499Y5559241D1*
X7702574Y5638137D2*
X7696538Y5650210D1*
X7678288Y5656246D1*
X7666215D1*
X7647965Y5650210D1*
X7635751Y5631960D1*
X7629715Y5601637D1*
Y5571314D1*
X7635751Y5547027D1*
X7647965Y5534814D1*
X7666215Y5528777D1*
X7672251D1*
X7690361Y5534814D1*
X7702574Y5547027D1*
X7708611Y5565277D1*
Y5571314D1*
X7702574Y5589564D1*
X7690361Y5601637D1*
X7672251Y5607673D1*
X7666215D1*
X7647965Y5601637D1*
X7635751Y5589564D1*
X7629715Y5571314D1*
X7333410Y6438864D2*
X7327374Y6450937D1*
X7315160Y6463150D1*
X7303087Y6469187D1*
X7278801D1*
X7266587Y6463150D1*
X7254514Y6450937D1*
X7248337Y6438864D1*
X7242301Y6420614D1*
Y6390150D1*
X7248337Y6372040D1*
X7254514Y6359827D1*
X7266587Y6347754D1*
X7278801Y6341577D1*
X7303087D1*
X7315160Y6347754D1*
X7327374Y6359827D1*
X7333410Y6372040D1*
X7396913Y6341577D2*
X7457699Y6469046D1*
X7372626D1*
X5555481Y3390864D2*
X5549444Y3402937D1*
X5537231Y3415150D1*
X5525158Y3421187D1*
X5500871D1*
X5488658Y3415150D1*
X5476584Y3402937D1*
X5470408Y3390864D1*
X5464371Y3372614D1*
Y3342150D1*
X5470408Y3324040D1*
X5476584Y3311827D1*
X5488658Y3299754D1*
X5500871Y3293577D1*
X5525158D1*
X5537231Y3299754D1*
X5549444Y3311827D1*
X5555481Y3324040D1*
X5625019Y3421046D2*
X5606910Y3415010D1*
X5600733Y3402937D1*
Y3390723D1*
X5606910Y3378650D1*
X5618983Y3372473D1*
X5643269Y3366437D1*
X5661519Y3360400D1*
X5673592Y3348187D1*
X5679629Y3336114D1*
Y3317864D1*
X5673592Y3305790D1*
X5667556Y3299614D1*
X5649306Y3293577D1*
X5625019D1*
X5606910Y3299614D1*
X5600733Y3305790D1*
X5594696Y3317864D1*
Y3336114D1*
X5600733Y3348187D1*
X5612946Y3360400D1*
X5631056Y3366437D1*
X5655342Y3372473D1*
X5667556Y3378650D1*
X5673592Y3390723D1*
Y3402937D1*
X5667556Y3415010D1*
X5649306Y3421046D1*
X5625019D1*
X6320429Y2260564D2*
X6314392Y2272637D1*
X6302179Y2284850D1*
X6290106Y2290887D1*
X6265819D1*
X6253606Y2284850D1*
X6241533Y2272637D1*
X6235356Y2260564D1*
X6229319Y2242314D1*
Y2211850D1*
X6235356Y2193741D1*
X6241533Y2181527D1*
X6253606Y2169454D1*
X6265819Y2163277D1*
X6290106D1*
X6302179Y2169454D1*
X6314392Y2181527D1*
X6320429Y2193741D1*
X6438681Y2248350D2*
X6432504Y2230100D1*
X6420431Y2217887D1*
X6402181Y2211850D1*
X6396144D1*
X6377894Y2217887D1*
X6365821Y2230100D1*
X6359644Y2248350D1*
Y2254387D1*
X6365821Y2272637D1*
X6377894Y2284710D1*
X6396144Y2290746D1*
X6402181D1*
X6420431Y2284710D1*
X6432504Y2272637D1*
X6438681Y2248350D1*
Y2217887D1*
X6432504Y2187564D1*
X6420431Y2169314D1*
X6402181Y2163277D1*
X6390108D1*
X6371858Y2169314D1*
X6365821Y2181527D1*
X7171571Y2895564D2*
X7165534Y2907637D1*
X7153321Y2919850D1*
X7141248Y2925887D1*
X7116961D1*
X7104748Y2919850D1*
X7092675Y2907637D1*
X7086498Y2895564D1*
X7080461Y2877314D1*
Y2846850D1*
X7086498Y2828741D1*
X7092675Y2816527D1*
X7104748Y2804454D1*
X7116961Y2798277D1*
X7141248D1*
X7153321Y2804454D1*
X7165534Y2816527D1*
X7171571Y2828741D1*
X7210787Y2901460D2*
X7223000Y2907637D1*
X7241250Y2925746D1*
Y2798277D1*
X7316966Y2925746D2*
X7298716Y2919710D1*
X7286502Y2901460D1*
X7280466Y2871137D1*
Y2852887D1*
X7286502Y2822564D1*
X7298716Y2804314D1*
X7316966Y2798277D1*
X7329039D1*
X7347289Y2804314D1*
X7359362Y2822564D1*
X7365539Y2852887D1*
Y2871137D1*
X7359362Y2901460D1*
X7347289Y2919710D1*
X7329039Y2925746D1*
X7316966D1*
X7359362Y2901460D2*
X7286502Y2822564D1*
X6914937Y3198376D2*
X6902863Y3192339D1*
X6890650Y3180126D1*
X6884613Y3168053D1*
Y3143766D1*
X6890650Y3131553D1*
X6902863Y3119480D1*
X6914936Y3113303D1*
X6933186Y3107266D1*
X6963650D1*
X6981759Y3113303D1*
X6993973Y3119480D1*
X7006046Y3131553D1*
X7012223Y3143766D1*
Y3168053D1*
X7006046Y3180126D1*
X6993973Y3192339D1*
X6981760Y3198376D1*
X6909040Y3237592D2*
X6902863Y3249805D1*
X6884754Y3268055D1*
X7012223D1*
X6909040Y3307271D2*
X6902863Y3319484D1*
X6884754Y3337734D1*
X7012223D1*
X1199937Y2345571D2*
X1187863Y2339535D1*
X1175650Y2327321D1*
X1169613Y2315248D1*
Y2290962D1*
X1175650Y2278748D1*
X1187863Y2266675D1*
X1199936Y2260498D1*
X1218186Y2254462D1*
X1248650D1*
X1266759Y2260498D1*
X1278973Y2266675D1*
X1291046Y2278748D1*
X1297223Y2290961D1*
Y2315248D1*
X1291046Y2327321D1*
X1278973Y2339534D1*
X1266760Y2345571D1*
X1194040Y2384787D2*
X1187863Y2397000D1*
X1169754Y2415250D1*
X1297223D1*
X1200077Y2460643D2*
X1194040D1*
X1181827Y2466679D1*
X1175790Y2472716D1*
X1169754Y2484929D1*
Y2509216D1*
X1175790Y2521289D1*
X1181827Y2527325D1*
X1194040Y2533502D1*
X1206113D1*
X1218327Y2527325D1*
X1236437Y2515252D1*
X1297223Y2454466D1*
Y2539539D1*
X1199937Y4885571D2*
X1187863Y4879535D1*
X1175650Y4867321D1*
X1169613Y4855248D1*
Y4830962D1*
X1175650Y4818748D1*
X1187863Y4806675D1*
X1199936Y4800498D1*
X1218186Y4794462D1*
X1248650D1*
X1266759Y4800498D1*
X1278973Y4806675D1*
X1291046Y4818748D1*
X1297223Y4830961D1*
Y4855248D1*
X1291046Y4867321D1*
X1278973Y4879534D1*
X1266760Y4885571D1*
X1194040Y4924787D2*
X1187863Y4937000D1*
X1169754Y4955250D1*
X1297223D1*
X1169754Y5006679D2*
Y5073362D1*
X1218327Y5037002D1*
Y5055252D1*
X1224363Y5067325D1*
X1230400Y5073362D1*
X1248650Y5079539D1*
X1260723D1*
X1278973Y5073362D1*
X1291186Y5061289D1*
X1297223Y5043039D1*
Y5024789D1*
X1291186Y5006679D1*
X1285010Y5000643D1*
X1272936Y4994466D1*
X8358544Y5217987D2*
Y5120840D1*
X8352507Y5102590D1*
X8346330Y5096554D1*
X8334257Y5090377D1*
X8322044D1*
X8309971Y5096554D1*
X8303934Y5102590D1*
X8297757Y5120840D1*
Y5132914D1*
X8397759Y5193560D2*
X8409973Y5199737D1*
X8428223Y5217846D1*
Y5090377D1*
X4838249Y2393987D2*
Y2296840D1*
X4832212Y2278590D1*
X4826035Y2272554D1*
X4813962Y2266377D1*
X4801749D1*
X4789676Y2272554D1*
X4783639Y2278590D1*
X4777462Y2296840D1*
Y2308914D1*
X4883641Y2363523D2*
Y2369560D1*
X4889678Y2381773D1*
X4895715Y2387810D1*
X4907928Y2393846D1*
X4932215D1*
X4944288Y2387810D1*
X4950324Y2381773D1*
X4956501Y2369560D1*
Y2357487D1*
X4950324Y2345273D1*
X4938251Y2327164D1*
X4877465Y2266377D1*
X4962538D1*
X5069800Y4339624D2*
Y4394234D1*
X5063623Y4412484D1*
X5057587Y4418661D1*
X5045514Y4424697D1*
X5033300D1*
X5021227Y4418661D1*
X5015050Y4412484D1*
X5009013Y4394234D1*
Y4339624D1*
X5136623D1*
X5069800Y4382161D2*
X5136623Y4424697D1*
X5033440Y4463913D2*
X5027264Y4476126D1*
X5009154Y4494376D1*
X5136623D1*
X4447319Y5918200D2*
X4501929D1*
X4520179Y5924377D1*
X4526356Y5930414D1*
X4532392Y5942487D1*
Y5954700D1*
X4526356Y5966773D1*
X4520179Y5972950D1*
X4501929Y5978987D1*
X4447319D1*
Y5851377D1*
X4489856Y5918200D2*
X4532392Y5851377D1*
X4577785Y5948523D2*
Y5954560D1*
X4583821Y5966773D1*
X4589858Y5972810D1*
X4602071Y5978846D1*
X4626358D1*
X4638431Y5972810D1*
X4644467Y5966773D1*
X4650644Y5954560D1*
Y5942487D1*
X4644467Y5930273D1*
X4632394Y5912164D1*
X4571608Y5851377D1*
X4656681D1*
X6483319Y6840200D2*
X6537929D1*
X6556179Y6846377D1*
X6562356Y6852414D1*
X6568392Y6864487D1*
Y6876700D1*
X6562356Y6888773D1*
X6556179Y6894950D1*
X6537929Y6900987D1*
X6483319D1*
Y6773377D1*
X6525856Y6840200D2*
X6568392Y6773377D1*
X6619821Y6900846D2*
X6686504D1*
X6650144Y6852273D1*
X6668394D1*
X6680467Y6846237D1*
X6686504Y6840200D1*
X6692681Y6821950D1*
Y6809877D1*
X6686504Y6791627D1*
X6674431Y6779414D1*
X6656181Y6773377D1*
X6637931D1*
X6619821Y6779414D1*
X6613785Y6785590D1*
X6607608Y6797664D1*
X6226301Y4109700D2*
X6280910D1*
X6299160Y4115877D1*
X6305337Y4121914D1*
X6311374Y4133987D1*
Y4146200D1*
X6305337Y4158273D1*
X6299160Y4164450D1*
X6280910Y4170487D1*
X6226301D1*
Y4042877D1*
X6268837Y4109700D2*
X6311374Y4042877D1*
X6411376D2*
Y4170346D1*
X6350590Y4085414D1*
X6441699D1*
X2292319Y6332200D2*
X2346929D1*
X2365179Y6338377D1*
X2371356Y6344414D1*
X2377392Y6356487D1*
Y6368700D1*
X2371356Y6380773D1*
X2365179Y6386950D1*
X2346929Y6392987D1*
X2292319D1*
Y6265377D1*
X2334856Y6332200D2*
X2377392Y6265377D1*
X2489467Y6392846D2*
X2428821D1*
X2422785Y6338237D1*
X2428821Y6344273D1*
X2447071Y6350450D1*
X2465181D1*
X2483431Y6344273D1*
X2495644Y6332200D1*
X2501681Y6313950D1*
Y6301877D1*
X2495644Y6283627D1*
X2483431Y6271414D1*
X2465181Y6265377D1*
X2447071D1*
X2428821Y6271414D1*
X2422785Y6277590D1*
X2416608Y6289664D1*
X6510624Y6329487D2*
Y6238377D1*
X6516660Y6220127D1*
X6528874Y6208054D1*
X6547124Y6201877D1*
X6559197D1*
X6577447Y6208054D1*
X6589660Y6220127D1*
X6595697Y6238377D1*
Y6329487D1*
X6634913Y6305060D2*
X6647126Y6311237D1*
X6665376Y6329346D1*
Y6201877D1*
X6229319Y3598987D2*
Y3507877D1*
X6235356Y3489627D1*
X6247569Y3477554D1*
X6265819Y3471377D1*
X6277892D1*
X6296142Y3477554D1*
X6308356Y3489627D1*
X6314392Y3507877D1*
Y3598987D1*
X6359785Y3568523D2*
Y3574560D1*
X6365821Y3586773D1*
X6371858Y3592810D1*
X6384071Y3598846D1*
X6408358D1*
X6420431Y3592810D1*
X6426467Y3586773D1*
X6432644Y3574560D1*
Y3562487D1*
X6426467Y3550273D1*
X6414394Y3532164D1*
X6353608Y3471377D1*
X6438681D1*
X2292319Y5652987D2*
Y5561877D1*
X2298356Y5543627D1*
X2310569Y5531554D1*
X2328819Y5525377D1*
X2340892D1*
X2359142Y5531554D1*
X2371356Y5543627D1*
X2377392Y5561877D1*
Y5652987D1*
X2428821Y5652846D2*
X2495504D1*
X2459144Y5604273D1*
X2477394D1*
X2489467Y5598237D1*
X2495504Y5592200D1*
X2501681Y5573950D1*
Y5561877D1*
X2495504Y5543627D1*
X2483431Y5531414D1*
X2465181Y5525377D1*
X2446931D1*
X2428821Y5531414D1*
X2422785Y5537590D1*
X2416608Y5549664D1*
X4452301Y4340987D2*
Y4249877D1*
X4458337Y4231627D1*
X4470551Y4219554D1*
X4488801Y4213377D1*
X4500874D1*
X4519124Y4219554D1*
X4531337Y4231627D1*
X4537374Y4249877D1*
Y4340987D1*
X4637376Y4213377D2*
Y4340846D1*
X4576590Y4255914D1*
X4667699D1*
X1424587Y4569987D2*
X1473160Y4509200D1*
Y4442377D1*
X1521734Y4569987D2*
X1473160Y4509200D1*
X1560949Y4545560D2*
X1573163Y4551737D1*
X1591413Y4569846D1*
Y4442377D1*
X4682570Y6646360D2*
D76*
Y6653604D1*
X4689814Y6668260D1*
X4697058Y6675504D1*
X4711714Y6682748D1*
X4740858D1*
X4755346Y6675504D1*
X4762590Y6668260D1*
X4770002Y6653604D1*
Y6639117D1*
X4762590Y6624460D1*
X4748102Y6602729D1*
X4675158Y6529785D1*
X4777246D1*
X4868105Y6682748D2*
X4846205Y6675504D1*
X4831548Y6653604D1*
X4824305Y6617217D1*
Y6595317D1*
X4831548Y6558929D1*
X4846205Y6537029D1*
X4868105Y6529785D1*
X4882592D1*
X4904492Y6537029D1*
X4918980Y6558929D1*
X4926392Y6595317D1*
Y6617217D1*
X4918980Y6653604D1*
X4904492Y6675504D1*
X4882592Y6682748D1*
X4868105D1*
X4918980Y6653604D2*
X4831548Y6558929D1*
X4973451Y6653604D2*
X4988107Y6661017D1*
X5010007Y6682748D1*
Y6529785D1*
X5093454Y6682748D2*
X5071722Y6675504D1*
X5064310Y6661017D1*
Y6646360D1*
X5071722Y6631873D1*
X5086210Y6624460D1*
X5115354Y6617217D1*
X5137254Y6609973D1*
X5151741Y6595317D1*
X5158985Y6580829D1*
Y6558929D1*
X5151741Y6544441D1*
X5144498Y6537029D1*
X5122598Y6529785D1*
X5093454D1*
X5071722Y6537029D1*
X5064310Y6544441D1*
X5057066Y6558929D1*
Y6580829D1*
X5064310Y6595317D1*
X5078966Y6609973D1*
X5100698Y6617217D1*
X5129841Y6624460D1*
X5144498Y6631873D1*
X5151741Y6646360D1*
Y6661017D1*
X5144498Y6675504D1*
X5122598Y6682748D1*
X5093454D1*
X4777877Y6417925D2*
D75*
Y6290315D1*
X4692804Y6417925D1*
Y6290315D1*
X4895989Y6417925D2*
X4817093D1*
Y6290315D1*
X4895989D1*
X4817093Y6357138D2*
X4865666D1*
X4935205Y6417925D2*
Y6290315D1*
X4989955D1*
X5008205Y6296492D1*
X5014241Y6302529D1*
X5020278Y6314602D1*
Y6332852D1*
X5014241Y6345065D1*
X5008205Y6351102D1*
X4989955Y6357138D1*
X5008205Y6363315D1*
X5014241Y6369352D1*
X5020278Y6381425D1*
Y6393638D1*
X5014241Y6405711D1*
X5008205Y6411888D1*
X4989955Y6417925D1*
X4935205D1*
Y6357138D2*
X4989955D1*
X5156639Y6290315D2*
Y6417925D1*
X5108066Y6290315D1*
X5059493Y6417925D1*
Y6290315D1*
X5232355Y6417785D2*
X5214105Y6411748D1*
X5201892Y6393498D1*
X5195855Y6363175D1*
Y6344925D1*
X5201892Y6314602D1*
X5214105Y6296352D1*
X5232355Y6290315D1*
X5244428D1*
X5262678Y6296352D1*
X5274751Y6314602D1*
X5280928Y6344925D1*
Y6363175D1*
X5274751Y6393498D1*
X5262678Y6411748D1*
X5244428Y6417785D1*
X5232355D1*
X5274751Y6393498D2*
X5201892Y6314602D1*
X1787847Y1069383D2*
D77*
X1864412D1*
X1864413Y1094904D1*
X1860706Y1105854D1*
X1853463Y1113183D1*
X1846135Y1116804D1*
X1835269Y1120426D1*
X1816991D1*
X1806041Y1116805D1*
X1798797Y1113183D1*
X1791469Y1105855D1*
X1787847Y1094905D1*
Y1069383D1*
X1813369Y1187671D2*
X1864413D1*
X1824319D2*
X1816991Y1180428D1*
X1813369Y1173100D1*
Y1162234D1*
X1816991Y1154906D1*
X1824319Y1147662D1*
X1835269Y1143956D1*
X1842513D1*
X1853463Y1147662D1*
X1860706Y1154906D1*
X1864413Y1162234D1*
Y1173099D1*
X1860706Y1180428D1*
X1853463Y1187671D1*
X1787847Y1222151D2*
X1849841D1*
X1860706Y1225773D1*
X1864413Y1233101D1*
Y1240345D1*
X1813369Y1211201D2*
Y1236723D1*
Y1307590D2*
X1864413D1*
X1824319D2*
X1816991Y1300346D1*
X1813369Y1293018D1*
Y1282152D1*
X1816991Y1274824D1*
X1824319Y1267580D1*
X1835269Y1263874D1*
X1842513D1*
X1853463Y1267580D1*
X1860706Y1274824D1*
X1864413Y1282152D1*
Y1293018D1*
X1860706Y1300346D1*
X1853463Y1307590D1*
X1787847Y1405187D2*
X1864413D1*
X1787847Y1428717D2*
X1791469Y1432338D1*
X1787847Y1436045D1*
X1784141Y1432338D1*
X1787847Y1428717D1*
X1813369Y1432338D2*
X1864413D1*
X1813369Y1459574D2*
X1864413D1*
X1827941D2*
X1816991Y1470524D1*
X1813369Y1477852D1*
Y1488718D1*
X1816991Y1496046D1*
X1827941Y1499668D1*
X1864413D1*
X1835269Y1523197D2*
Y1566913D1*
X1827941D1*
X1820613Y1563291D1*
X1816991Y1559669D1*
X1813369Y1552341D1*
Y1541391D1*
X1816991Y1534147D1*
X1824319Y1526819D1*
X1835269Y1523197D1*
X1842513D1*
X1853463Y1526819D1*
X1860706Y1534147D1*
X1864413Y1541391D1*
Y1552341D1*
X1860706Y1559669D1*
X1853463Y1566913D1*
X2168846Y1158402D2*
X2245412D1*
X2168846Y1132880D2*
Y1183924D1*
X2194368Y1225647D2*
X2197990Y1218403D1*
X2205318Y1211075D1*
X2216268Y1207453D1*
X2223512D1*
X2234462Y1211075D1*
X2241706Y1218403D1*
X2245412Y1225647D1*
Y1236597D1*
X2241706Y1243925D1*
X2234462Y1251169D1*
X2223512Y1254875D1*
X2216268D1*
X2205318Y1251169D1*
X2197990Y1243925D1*
X2194368Y1236597D1*
Y1225647D1*
X2168846Y1352472D2*
X2245412D1*
Y1396188D1*
X2168846Y1467055D2*
Y1419717D1*
X2245412D1*
Y1467055D1*
X2205318Y1419717D2*
Y1448861D1*
X2168846Y1490584D2*
X2245412D1*
Y1516106D1*
X2241705Y1527056D1*
X2234462Y1534384D1*
X2227134Y1538006D1*
X2216268Y1541628D1*
X2197990D1*
X2187040Y1538006D1*
X2179796Y1534384D1*
X2172468Y1527056D1*
X2168846Y1516106D1*
Y1490584D1*
X7918560Y3686461D2*
X7914938Y3693705D1*
X7907610Y3701033D1*
X7900366Y3704655D1*
X7885794D1*
X7878466Y3701033D1*
X7871222Y3693705D1*
X7867516Y3686461D1*
X7863894Y3675511D1*
Y3657233D1*
X7867516Y3646367D1*
X7871222Y3639039D1*
X7878466Y3631795D1*
X7885794Y3628089D1*
X7900366D1*
X7907610Y3631795D1*
X7914938Y3639039D1*
X7918560Y3646367D1*
X7942089Y3704655D2*
Y3628089D1*
X7985805D1*
X8009334Y3704655D2*
Y3628089D1*
X8060378Y3704655D2*
X8009334Y3653611D1*
X8027528Y3671889D2*
X8060378Y3628089D1*
X7927376Y3450655D2*
Y3374089D1*
X7952898D1*
X7963848Y3377795D1*
X7971176Y3385039D1*
X7974798Y3392367D1*
X7978420Y3403233D1*
Y3421511D1*
X7974798Y3432461D1*
X7971176Y3439705D1*
X7963848Y3447033D1*
X7952898Y3450655D1*
X7927376D1*
X8027471D2*
Y3374089D1*
X8001949Y3450655D2*
X8052993D1*
X7978420Y3185705D2*
X7971176Y3193033D1*
X7960226Y3196655D1*
X7945654D1*
X7934704Y3193033D1*
X7927376Y3185705D1*
Y3178461D1*
X7931082Y3171133D1*
X7934704Y3167511D1*
X7941948Y3163889D1*
X7963848Y3156561D1*
X7971176Y3152939D1*
X7974798Y3149233D1*
X7978420Y3141989D1*
Y3131039D1*
X7971176Y3123795D1*
X7960226Y3120089D1*
X7945654D1*
X7934704Y3123795D1*
X7927376Y3131039D1*
X8001949Y3196655D2*
X8020227Y3120089D1*
X8038421Y3196655D1*
X8056615Y3120089D1*
X8074893Y3196655D1*
X7863894Y2942655D2*
X7893038Y2866089D1*
X7922182Y2942655D1*
X8000377Y2924461D2*
X7996755Y2931705D1*
X7989427Y2939033D1*
X7982183Y2942655D1*
X7967611D1*
X7960283Y2939033D1*
X7953039Y2931705D1*
X7949333Y2924461D1*
X7945711Y2913511D1*
Y2895233D1*
X7949333Y2884367D1*
X7953039Y2877039D1*
X7960283Y2869795D1*
X7967611Y2866089D1*
X7982183D1*
X7989427Y2869795D1*
X7996755Y2877039D1*
X8000377Y2884367D1*
X8078572Y2924461D2*
X8074950Y2931705D1*
X8067622Y2939033D1*
X8060378Y2942655D1*
X8045806D1*
X8038478Y2939033D1*
X8031234Y2931705D1*
X8027528Y2924461D1*
X8023906Y2913511D1*
Y2895233D1*
X8027528Y2884367D1*
X8031234Y2877039D1*
X8038478Y2869795D1*
X8045806Y2866089D1*
X8060378D1*
X8067622Y2869795D1*
X8074950Y2877039D1*
X8078572Y2884367D1*
X7918560Y2670461D2*
X7914938Y2677705D1*
X7907610Y2685033D1*
X7900366Y2688655D1*
X7885794D1*
X7878466Y2685033D1*
X7871222Y2677705D1*
X7867516Y2670461D1*
X7863894Y2659511D1*
Y2641233D1*
X7867516Y2630367D1*
X7871222Y2623039D1*
X7878466Y2615795D1*
X7885794Y2612089D1*
X7900366D1*
X7907610Y2615795D1*
X7914938Y2623039D1*
X7918560Y2630367D1*
Y2641233D1*
X7900366D1*
X7993133Y2688655D2*
Y2612089D1*
X7942089Y2688655D1*
Y2612089D1*
X8016662Y2688655D2*
Y2612089D1*
X8042184D1*
X8053134Y2615795D1*
X8060462Y2623039D1*
X8064084Y2630367D1*
X8067706Y2641233D1*
Y2659511D1*
X8064084Y2670461D1*
X8060462Y2677705D1*
X8053134Y2685033D1*
X8042184Y2688655D1*
X8016662D1*
X8454670Y2533494D2*
D78*
Y2577182D1*
X8449728Y2591782D1*
X8444899Y2596724D1*
X8435240Y2601553D1*
X8425470D1*
X8415811Y2596724D1*
X8410870Y2591782D1*
X8406040Y2577182D1*
Y2533494D1*
X8508128D1*
X8454670Y2567524D2*
X8508128Y2601553D1*
X8440070Y2657184D2*
X8444899Y2647525D1*
X8454670Y2637755D1*
X8469270Y2632925D1*
X8478928D1*
X8493528Y2637754D1*
X8503187Y2647525D1*
X8508128Y2657184D1*
Y2671784D1*
X8503187Y2681554D1*
X8493528Y2691213D1*
X8478928Y2696154D1*
X8469270D1*
X8454670Y2691213D1*
X8444899Y2681554D1*
X8440070Y2671784D1*
Y2657184D1*
X8406041Y2742127D2*
X8488699D1*
X8503187Y2746956D1*
X8508128Y2756727D1*
Y2766385D1*
X8440070Y2727527D2*
Y2761556D1*
Y2856046D2*
X8508128D1*
X8454670D2*
X8444899Y2846387D1*
X8440070Y2836616D1*
Y2822129D1*
X8444899Y2812358D1*
X8454670Y2802700D1*
X8469270Y2797758D1*
X8478928D1*
X8493528Y2802699D1*
X8503187Y2812358D1*
X8508128Y2822129D1*
Y2836616D1*
X8503187Y2846387D1*
X8493528Y2856046D1*
X8440070Y2887418D2*
X8508128D1*
X8469270D2*
X8454670Y2892360D1*
X8444899Y2902018D1*
X8440070Y2911789D1*
Y2926389D1*
Y2962703D2*
X8508128Y2991791D1*
X8527557Y2982132D1*
X8537328Y2972361D1*
X8542157Y2962703D1*
Y2957761D1*
X8440070Y3020991D2*
X8508128Y2991791D1*
X8469270Y3151120D2*
Y3209408D1*
X8459499D1*
X8449728Y3204579D1*
X8444899Y3199750D1*
X8440070Y3189979D1*
Y3175379D1*
X8444899Y3165720D1*
X8454670Y3155950D1*
X8469270Y3151120D1*
X8478928D1*
X8493528Y3155950D1*
X8503187Y3165720D1*
X8508128Y3175379D1*
Y3189979D1*
X8503187Y3199750D1*
X8493528Y3209408D1*
X8440070Y3240781D2*
X8508128D1*
X8459499D2*
X8444899Y3255381D1*
X8440070Y3265151D1*
Y3279639D1*
X8444899Y3289410D1*
X8459499Y3294239D1*
X8508128D1*
X8454670Y3384012D2*
X8444899Y3374241D1*
X8440070Y3364470D1*
Y3349982D1*
X8444899Y3340212D1*
X8454670Y3330553D1*
X8469270Y3325612D1*
X8478928D1*
X8493528Y3330553D1*
X8503187Y3340212D1*
X8508128Y3349982D1*
Y3364470D1*
X8503187Y3374241D1*
X8493528Y3384012D1*
X8440070Y3439643D2*
X8444899Y3429984D1*
X8454670Y3420213D1*
X8469270Y3415384D1*
X8478928D1*
X8493528Y3420213D1*
X8503187Y3429984D1*
X8508128Y3439643D1*
Y3454243D1*
X8503187Y3464013D1*
X8493528Y3473672D1*
X8478928Y3478613D1*
X8469270D1*
X8454670Y3473672D1*
X8444899Y3464013D1*
X8440070Y3454243D1*
Y3439643D1*
X8406040Y3568274D2*
X8508128D1*
X8454670D2*
X8444899Y3558615D1*
X8440070Y3548844D1*
Y3534244D1*
X8444899Y3524586D1*
X8454670Y3514815D1*
X8469270Y3509986D1*
X8478928D1*
X8493528Y3514815D1*
X8503187Y3524586D1*
X8508128Y3534244D1*
Y3548844D1*
X8503187Y3558615D1*
X8493528Y3568274D1*
X8469270Y3599646D2*
Y3657934D1*
X8459499D1*
X8449728Y3653105D1*
X8444899Y3648275D1*
X8440070Y3638505D1*
Y3623905D1*
X8444899Y3614246D1*
X8454670Y3604475D1*
X8469270Y3599646D1*
X8478928D1*
X8493528Y3604475D1*
X8503187Y3614246D1*
X8508128Y3623905D1*
Y3638505D1*
X8503187Y3648275D1*
X8493528Y3657934D1*
X8440070Y3689307D2*
X8508128D1*
X8469270D2*
X8454670Y3694248D1*
X8444899Y3703907D1*
X8440070Y3713677D1*
Y3728277D1*
X6615564Y5392791D2*
X6513476D1*
X6615564Y5353932D1*
X6513476Y5315074D1*
X6615564D1*
X6528076Y5492222D2*
X6518305Y5482563D1*
X6513476Y5467963D1*
Y5448534D1*
X6518305Y5433934D1*
X6528076Y5424163D1*
X6537735D1*
X6547505Y5429105D1*
X6552335Y5433934D1*
X6557164Y5443592D1*
X6566935Y5472792D1*
X6571764Y5482563D1*
X6576705Y5487392D1*
X6586364Y5492222D1*
X6600964Y5492221D1*
X6610622Y5482563D1*
X6615564Y5467963D1*
Y5448534D1*
X6610622Y5433934D1*
X6600964Y5424163D1*
X6537735Y5596482D2*
X6528076Y5591653D1*
X6518305Y5581882D1*
X6513476Y5572223D1*
Y5552794D1*
X6518305Y5543023D1*
X6528076Y5533365D1*
X6537735Y5528423D1*
X6552335Y5523594D1*
X6576705D1*
X6591193Y5528423D1*
X6600964Y5533365D1*
X6610622Y5543023D1*
X6615564Y5552794D1*
Y5572223D1*
X6610622Y5581882D1*
X6600964Y5591652D1*
X6591193Y5596482D1*
X6576705D1*
Y5572223D1*
X6513476Y5690971D2*
Y5627854D1*
X6615564D1*
Y5690971D1*
X6562105Y5627854D2*
Y5666713D1*
X6513476Y5751544D2*
X6518193Y5741885D1*
X6527964Y5732115D1*
X6537735Y5727285D1*
X6552335Y5722344D1*
X6576593D1*
X6591193Y5727285D1*
X6600851Y5732115D1*
X6610622Y5741885D1*
X6615451Y5751544D1*
Y5770973D1*
X6610622Y5780744D1*
X6600851Y5790402D1*
X6591193Y5795231D1*
X6576593Y5800173D1*
X6552335D1*
X6537735Y5795231D1*
X6527964Y5790402D1*
X6518193Y5780744D1*
X6513476Y5770973D1*
Y5751544D1*
X6596022Y5766144D2*
X6625222Y5795231D1*
X6615564Y5850975D2*
X6513588Y5899604D1*
Y5831546D1*
X6361564Y2662291D2*
X6259476D1*
X6361564Y2623432D1*
X6259476Y2584574D1*
X6361564D1*
X6274076Y2761722D2*
X6264305Y2752063D1*
X6259476Y2737463D1*
Y2718034D1*
X6264305Y2703434D1*
X6274076Y2693663D1*
X6283735D1*
X6293505Y2698605D1*
X6298335Y2703434D1*
X6303164Y2713092D1*
X6312935Y2742292D1*
X6317764Y2752063D1*
X6322705Y2756892D1*
X6332364Y2761722D1*
X6346964Y2761721D1*
X6356622Y2752063D1*
X6361564Y2737463D1*
Y2718034D1*
X6356622Y2703434D1*
X6346964Y2693663D1*
X6283735Y2865982D2*
X6274076Y2861153D1*
X6264305Y2851382D1*
X6259476Y2841723D1*
Y2822294D1*
X6264305Y2812523D1*
X6274076Y2802865D1*
X6283735Y2797923D1*
X6298335Y2793094D1*
X6322705D1*
X6337193Y2797923D1*
X6346964Y2802865D1*
X6356622Y2812523D1*
X6361564Y2822294D1*
Y2841723D1*
X6356622Y2851382D1*
X6346964Y2861152D1*
X6337193Y2865982D1*
X6322705D1*
Y2841723D1*
X6259476Y2960471D2*
Y2897354D1*
X6361564D1*
Y2960471D1*
X6308105Y2897354D2*
Y2936213D1*
X6259476Y3021044D2*
X6264193Y3011385D1*
X6273964Y3001615D1*
X6283735Y2996785D1*
X6298335Y2991844D1*
X6322593D1*
X6337193Y2996785D1*
X6346851Y3001615D1*
X6356622Y3011385D1*
X6361451Y3021044D1*
Y3040473D1*
X6356622Y3050244D1*
X6346851Y3059902D1*
X6337193Y3064731D1*
X6322593Y3069673D1*
X6298335D1*
X6283735Y3064731D1*
X6273964Y3059902D1*
X6264193Y3050244D1*
X6259476Y3040473D1*
Y3021044D1*
X6342022Y3035644D2*
X6371222Y3064731D1*
X6361564Y3120475D2*
X6259588Y3169104D1*
Y3101046D1*
M02*
